<svg width="27" height="29" viewBox="0 0 27 29" fill="none" xmlns="http://www.w3.org/2000/svg">
<path d="M20.494 7.09833L22.4191 2.28567C22.5203 2.03278 22.5579 1.75896 22.5288 1.48815C22.4996 1.21735 22.4045 0.957827 22.2518 0.732288C22.0991 0.506748 21.8935 0.322068 21.6529 0.194408C21.4123 0.0667476 21.144 -1.91706e-06 20.8717 0H5.79508C5.52272 8.06621e-07 5.2545 0.0667524 5.0139 0.194414C4.77331 0.322075 4.56767 0.506755 4.41497 0.732294C4.26228 0.957833 4.16718 1.21736 4.13801 1.48816C4.10884 1.75896 4.14648 2.03278 4.24763 2.28567L6.17268 7.09833C4.28131 8.30011 2.72393 9.9599 1.64489 11.9239C0.565854 13.8879 7.6126e-05 16.0925 0 18.3333V21.6667C0 23.4348 0.702379 25.1305 1.95262 26.3807C3.20286 27.631 4.89856 28.3333 6.66667 28.3333H20C21.7681 28.3333 23.4638 27.631 24.714 26.3807C25.9643 25.1305 26.6667 23.4348 26.6667 21.6667V18.3333C26.6666 16.0925 26.1008 13.8879 25.0218 11.9239C23.9427 9.9599 22.3854 8.30011 20.494 7.09833ZM5.79508 1.66667H20.8717L19.0229 6.28845C17.2462 5.44022 15.3022 5 13.3334 5C11.3645 5 9.4206 5.44022 7.64383 6.28845L5.79508 1.66667ZM25 21.6667C24.9985 22.9923 24.4713 24.2632 23.5339 25.2006C22.5965 26.1379 21.3256 26.6652 20 26.6667H6.66667C5.34104 26.6652 4.07015 26.1379 3.13279 25.2005C2.19543 24.2632 1.66817 22.9923 1.66667 21.6667V18.3333C1.66667 15.2391 2.89583 12.2717 5.08375 10.0838C7.27168 7.89583 10.2391 6.66667 13.3333 6.66667C16.4275 6.66667 19.395 7.89583 21.5829 10.0838C23.7708 12.2717 25 15.2391 25 18.3333V21.6667Z" fill="#D35100"/>
</svg>
