<svg width="17" height="20" viewBox="0 0 17 20" fill="none" xmlns="http://www.w3.org/2000/svg">
<path d="M6.75029 0H14.7052C15.3367 0 15.9107 0.257943 16.3264 0.6736C16.742 1.08924 17 1.6633 17 2.29482V12.4152C17 13.0467 16.7421 13.6207 16.3264 14.0364C15.9108 14.4521 15.3367 14.71 14.7052 14.71H12.5445V17.0744C12.5445 17.7059 12.2865 18.2799 11.8709 18.6956C11.4552 19.1112 10.8811 19.3692 10.2496 19.3692H2.29424C1.66273 19.3692 1.08873 19.1112 0.673601 18.6956C0.25796 18.2799 0 17.7059 0 17.0744V6.95396C0 6.32244 0.257943 5.74844 0.673601 5.33274C1.08924 4.91709 1.6633 4.65914 2.29424 4.65914H4.45497V2.29482C4.45497 1.6633 4.71291 1.08931 5.12857 0.6736C5.54421 0.25796 6.11828 0 6.74979 0H6.75029ZM11.4094 14.7093H6.75029C6.11877 14.7093 5.54477 14.4514 5.12907 14.0357C4.71342 13.6201 4.45547 13.046 4.45547 12.4145V5.79333H2.29474C1.97631 5.79333 1.68632 5.92381 1.47644 6.13427C1.26591 6.34479 1.13492 6.63472 1.13492 6.95315V17.0735C1.13492 17.392 1.2654 17.682 1.47644 17.8924C1.68696 18.1029 1.97689 18.2334 2.29474 18.2334H10.2501C10.5686 18.2334 10.8585 18.1029 11.069 17.8924C11.2795 17.6819 11.4099 17.392 11.4099 17.0735V14.7092L11.4094 14.7093ZM14.7052 1.13423H6.75029C6.43186 1.13423 6.14186 1.26471 5.93141 1.47517C5.72088 1.68569 5.59046 1.97562 5.59046 2.29405V12.4144C5.59046 12.7329 5.72095 13.0229 5.93141 13.2333C6.14193 13.4438 6.43186 13.5743 6.75029 13.5743H14.7057C15.0241 13.5743 15.3141 13.4438 15.5246 13.2333C15.7351 13.0228 15.8655 12.7329 15.8655 12.4144V2.29405C15.8655 1.97562 15.735 1.68562 15.5246 1.47517C15.314 1.26465 15.0241 1.13423 14.7057 1.13423H14.7052Z" fill="white"/>
</svg>
