<svg width="1600" height="1600" viewBox="0 0 1600 1600" fill="none" xmlns="http://www.w3.org/2000/svg">
<path d="M1210.88 591.84C1210.88 591.679 1210.72 591.361 1210.72 591.2C1209.76 588.637 1208.16 586.397 1206.4 584.319C1206.24 584.158 1206.24 584.002 1206.08 583.84L914.883 271.52C910.404 266.718 904.003 263.838 897.285 263.838H460.805C420.487 263.838 387.523 296.641 387.523 337.119V1262.72C387.523 1303.04 420.326 1336 460.805 1336H1139.2C1179.52 1336 1212.49 1303.2 1212.49 1262.72L1212.48 600.319C1212.48 597.283 1211.84 594.564 1210.88 591.84L1210.88 591.84ZM920.48 348L1133.28 576.16H945.76C931.839 576.16 920.479 564.801 920.479 550.879L920.48 348ZM1164.48 1262.72C1164.48 1276.64 1153.12 1288 1139.2 1288H460.799C446.877 1288 435.517 1276.64 435.517 1262.72V337.28C435.517 323.359 446.877 311.999 460.799 311.999H872.479V551.039C872.479 591.356 905.281 624.32 945.76 624.32H1164.48V1262.72Z" fill="white"/>
<path d="M600.64 783.521C600.64 796.802 611.359 807.521 624.64 807.521H975.2C988.481 807.521 999.2 796.802 999.2 783.521C999.2 770.239 988.481 759.521 975.2 759.521H624.64C611.52 759.521 600.64 770.239 600.64 783.521Z" fill="white"/>
<path d="M975.36 872.8H624.64C611.359 872.8 600.64 883.519 600.64 896.8C600.64 910.081 611.359 920.8 624.64 920.8H975.2C988.481 920.8 999.2 910.081 999.2 896.8C999.195 883.519 988.476 872.8 975.356 872.8H975.36Z" fill="white"/>
<path d="M975.36 986.08H624.64C611.359 986.08 600.64 996.799 600.64 1010.08C600.64 1023.36 611.359 1034.08 624.64 1034.08H975.2C988.481 1034.08 999.2 1023.36 999.2 1010.08C999.195 996.804 988.476 986.08 975.356 986.08H975.36Z" fill="white"/>
<path d="M800 1099.36H624.64C611.359 1099.36 600.64 1110.08 600.64 1123.36C600.64 1136.64 611.359 1147.36 624.64 1147.36H800C813.281 1147.36 824 1136.64 824 1123.36C824 1110.08 813.12 1099.36 800 1099.36Z" fill="white"/>
</svg>
