<svg width="50" height="50" viewBox="0 0 50 50" fill="none" xmlns="http://www.w3.org/2000/svg">
<path d="M13.6719 11L13.5469 11.2969L7.04688 26.2969L7 26.3906V26.5C7 30.3695 10.1409 33.5 14 33.5C17.8591 33.5 21 30.3695 21 26.5V26.3906L20.9531 26.2969L14.75 12H24.5V38H19.5V39H30.5V38H25.5V12H35.25L29.0469 26.2969L29 26.3906V26.5C29 30.3695 32.1409 33.5 36 33.5C39.8591 33.5 43 30.3695 43 26.5V26.3906L42.9531 26.2969L36.4531 11.2969L36.3281 11H36H14H13.6719ZM14 12.75L19.7344 26H8.26562L14 12.75ZM36 12.75L41.7344 26H30.2656L36 12.75ZM8.03125 27H19.9688C19.7144 30.091 17.1504 32.5 14 32.5C10.8496 32.5 8.28556 30.091 8.03125 27ZM30.0312 27H41.9688C41.7144 30.091 39.1504 32.5 36 32.5C32.8496 32.5 30.2856 30.091 30.0312 27Z" fill="#D35100"/>
</svg>
