<svg width="100" height="60" viewBox="0 0 100 60" fill="none" xmlns="http://www.w3.org/2000/svg">
<g clip-path="url(#clip0_67_49)">
<path d="M43.1598 36.8617C37.3672 34.2523 33.334 28.4267 33.334 21.6666C33.334 12.4679 40.802 5 50.0007 5C55.3184 5 60.0578 7.4957 63.1071 11.3827C64.1033 12.7864 64.7694 15.7297 62.2327 18.722C60.8127 20.3971 57.5339 22.3573 52.8813 24.4915C49.2721 26.124 45.718 28.0706 43.4456 30.3673C42.5956 31.2262 42.0348 32.1926 41.7451 33.1127C41.3209 34.4589 41.7802 36.1874 43.1598 36.8617Z" stroke="white" stroke-width="3" stroke-miterlimit="10"/>
<path d="M53.1511 24.3649L53.1526 24.3679C53.0283 27.769 52.0507 31.3681 50.62 33.9729C49.2114 36.5382 45.7727 37.8609 43.4313 36.9761L43.1607 36.8617C41.7811 36.1874 41.3218 34.4589 41.746 33.1127C42.0358 32.1926 42.5965 31.2262 43.4466 30.3673C45.7189 28.0706 49.273 26.124 52.8822 24.4915L53.1511 24.3649Z" stroke="white" stroke-width="3" stroke-miterlimit="10"/>
<path d="M66.9344 24.556C69.1735 25.6065 70.7278 27.9414 70.7196 30.6453C70.7086 34.3247 67.8087 37.3033 64.2479 37.2925C62.1895 37.2863 60.3579 36.2825 59.1822 34.7242C58.7984 34.1615 58.5441 32.9834 59.5296 31.7894C60.0811 31.1211 61.3527 30.3408 63.1563 29.4926C64.5554 28.8439 65.9336 28.0693 66.8159 27.1533C67.1459 26.8107 67.3643 26.4249 67.4776 26.0572C67.6434 25.5192 67.4675 24.8272 66.9344 24.556Z" stroke="white" stroke-width="3" stroke-miterlimit="10"/>
<path d="M63.0514 29.5429L63.0508 29.5418C63.1029 28.1815 63.4858 26.7429 64.0425 25.7028C64.591 24.6782 65.9236 24.1532 66.8289 24.5098L66.9336 24.556C67.4667 24.8272 67.6426 25.5191 67.4768 26.0572C67.3635 26.4249 67.1451 26.8107 66.815 27.1533C65.9327 28.0693 64.5546 28.8438 63.1555 29.4926L63.0514 29.5429Z" stroke="white" stroke-width="3" stroke-miterlimit="10"/>
</g>
<defs>
<clipPath id="clip0_67_49">
<rect width="100" height="59.3333" fill="white"/>
</clipPath>
</defs>
</svg>
