<svg width="60" height="60" viewBox="0 0 60 60" fill="none" xmlns="http://www.w3.org/2000/svg">
<path fill-rule="evenodd" clip-rule="evenodd" d="M11.0004 21.002C14.3254 21.002 17.9504 22.798 20.0924 25.48L27.9084 55.009L2.32044 25.009C4.49144 22.594 7.87144 21.002 11.0004 21.002ZM30.0004 55.094L22.1004 25.246C24.3904 22.439 27.0434 21.002 30.0004 21.002C32.9574 21.002 35.6104 22.439 37.9004 25.246L30.0004 55.094ZM57.6804 25.009L32.0924 55.009L39.9084 25.48C42.0504 22.798 45.6754 21.002 49.0004 21.002C52.1294 21.002 55.5094 22.594 57.6804 25.009ZM59.9464 25.233C59.9704 25.154 59.9844 25.074 59.9874 24.994C60.0114 24.424 59.7744 23.768 59.6404 23.217C59.4954 22.624 59.3314 22.035 59.1494 21.453C58.7894 20.297 58.3564 19.164 57.8564 18.063C56.8664 15.879 55.6104 13.817 54.1344 11.929C52.6634 10.048 50.9754 8.33795 49.1154 6.83995C47.2534 5.33995 45.2194 4.05195 43.0634 3.01395C40.8934 1.96795 38.6004 1.17595 36.2434 0.667953C34.1934 0.226953 32.0974 0.00195312 30.0004 0.00195312C27.5634 0.00195312 25.1304 0.306953 22.7674 0.898953C20.4344 1.48395 18.1724 2.35095 16.0394 3.46395C13.9214 4.56995 11.9314 5.92095 10.1174 7.47895C8.30744 9.03395 6.67344 10.797 5.26544 12.725C3.84944 14.662 2.66044 16.767 1.74344 18.985C1.28044 20.106 0.886441 21.257 0.564441 22.428C0.402441 23.019 0.260441 23.614 0.136441 24.215C-0.00555857 24.898 0.00444141 25.395 0.480441 25.927C0.564441 26.021 0.643441 26.124 0.725441 26.221C0.935441 26.467 1.14544 26.712 1.35444 26.958C1.99044 27.705 2.62844 28.451 3.26544 29.198C4.13744 30.222 5.01044 31.245 5.88344 32.269C6.92744 33.492 7.97144 34.716 9.01544 35.94L12.4664 39.986C13.6574 41.383 14.8494 42.78 16.0414 44.177C17.2094 45.547 18.3774 46.916 19.5454 48.285C20.6244 49.551 21.7034 50.816 22.7834 52.082C23.7094 53.168 24.6354 54.254 25.5624 55.339C26.2694 56.169 26.9774 56.999 27.6854 57.828C28.1084 58.326 28.5334 58.823 28.9584 59.321C29.2424 59.655 29.5144 59.991 29.9934 59.995C30.6054 59.999 30.9464 59.434 31.3004 59.02C31.7974 58.437 32.2954 57.853 32.7924 57.27C33.5474 56.385 34.3014 55.501 35.0554 54.617C36.0044 53.504 36.9534 52.391 37.9034 51.277C38.9864 50.008 40.0694 48.737 41.1524 47.468C42.3094 46.112 43.4644 44.758 44.6204 43.402L48.1214 39.298C49.2374 37.989 50.3544 36.68 51.4724 35.37C52.4774 34.191 53.4814 33.013 54.4874 31.834C55.3194 30.858 56.1514 29.883 56.9844 28.906C57.5824 28.205 58.1814 27.504 58.7784 26.803C59.1404 26.379 59.7784 25.808 59.9464 25.233Z" fill="white"/>
</svg>
