<svg width="16" height="16" viewBox="0 0 16 16" fill="none" xmlns="http://www.w3.org/2000/svg">
<path d="M8.47266 0.801025C8.02486 0.801025 7.6619 1.16398 7.6619 1.61178V7.49027H1.78341C1.33561 7.49027 0.972656 7.85323 0.972656 8.30103C0.972656 8.74883 1.33561 9.11178 1.78341 9.11178H7.6619V14.9903C7.6619 15.4381 8.02486 15.801 8.47266 15.801C8.92046 15.801 9.28341 15.4381 9.28341 14.9903V9.11178H15.1619C15.6097 9.11178 15.9727 8.74883 15.9727 8.30103C15.9727 7.85323 15.6097 7.49027 15.1619 7.49027H9.28341V1.61178C9.28341 1.16398 8.92046 0.801025 8.47266 0.801025V0.801025Z" fill="#D35100"/>
</svg>
