<svg width="512" height="512" viewBox="0 0 512 512" fill="none" xmlns="http://www.w3.org/2000/svg">
<g opacity="0.9" clip-path="url(#clip0_357_149)">
<path d="M256 512.001C152.64 512.001 68.5498 427.911 68.5498 324.551C68.5498 227.911 222.76 29.8506 240.34 7.55057C242.207 5.18647 244.586 3.27602 247.297 1.96257C250.009 0.649122 252.982 -0.0332031 255.995 -0.0332031C259.007 -0.0332031 261.981 0.649122 264.692 1.96257C267.404 3.27602 269.782 5.18647 271.65 7.55057C289.24 29.8206 443.44 227.871 443.44 324.551C443.45 427.911 359.37 512.001 256 512.001ZM256 52.6606C203.81 121.891 108.45 261.441 108.45 324.551C108.45 405.901 174.64 472.091 256 472.091C337.36 472.091 403.55 405.911 403.55 324.551C403.55 261.441 308.19 121.891 256 52.6606V52.6606Z" fill="white"/>
<path d="M256 432.209C250.939 431.869 246.197 429.619 242.732 425.914C239.268 422.209 237.341 417.326 237.341 412.254C237.341 407.182 239.268 402.299 242.732 398.594C246.197 394.89 250.939 392.639 256 392.299C273.959 392.281 291.178 385.14 303.879 372.442C316.58 359.745 323.726 342.529 323.75 324.569C324.09 319.508 326.34 314.766 330.045 311.302C333.75 307.837 338.633 305.91 343.705 305.91C348.777 305.91 353.66 307.837 357.365 311.302C361.07 314.766 363.32 319.508 363.66 324.569C363.623 353.109 352.268 380.469 332.085 400.648C311.902 420.827 284.54 432.178 256 432.209Z" fill="white"/>
</g>
<defs>
<clipPath id="clip0_357_149">
<rect width="512" height="512" fill="white"/>
</clipPath>
</defs>
</svg>
