<svg width="1600" height="1600" viewBox="0 0 1600 1600" fill="none" xmlns="http://www.w3.org/2000/svg">
<path d="M1120 1120C1046.12 1193.99 948.868 1240.07 844.828 1250.4C740.776 1260.73 636.361 1234.67 549.374 1176.66C462.385 1118.64 398.201 1032.27 367.761 932.229C337.313 832.202 342.485 724.709 382.397 628.069C422.314 531.429 494.496 451.616 586.664 402.216C678.82 352.825 785.25 336.909 887.824 357.185C990.402 377.461 1082.77 432.674 1149.21 513.412C1215.65 594.152 1252.03 695.438 1252.18 799.985C1252.48 859.422 1240.95 918.329 1218.26 973.265C1195.57 1028.21 1162.18 1078.08 1120.02 1119.98L1120 1120ZM1163.52 437.76C1079.64 353.468 969.109 300.88 850.776 288.986C732.453 277.085 613.669 306.601 514.669 372.497C415.669 438.393 342.602 536.59 307.936 650.35C273.253 764.105 279.113 886.364 324.504 996.284C369.9 1106.2 452.02 1196.96 556.864 1253.1C661.702 1309.23 782.77 1327.25 899.41 1304.1C1016.06 1280.94 1121.05 1218.03 1196.5 1126.11C1271.95 1034.18 1313.16 918.937 1313.13 800.017C1312.95 663.964 1258.94 533.51 1162.89 437.137L1163.52 437.76Z" fill="white"/>
<path d="M800.801 553.119C753.509 551.171 708.03 571.479 677.921 607.999C658.358 632.234 646.489 661.765 643.838 692.802C643.297 703.776 648.651 714.209 657.885 720.166C667.114 726.119 678.828 726.702 688.604 721.682C698.38 716.666 704.734 706.818 705.281 695.838C707.281 677.816 714.453 660.759 725.921 646.718C744.421 624.822 772.186 612.958 800.801 614.718C838.4 614.718 864.801 625.119 878.238 645.759C885.952 658.15 890.051 672.447 890.077 687.04C890.077 707.358 872.155 723.358 843.035 747.843L843.041 747.838C828.901 759.03 815.489 771.108 802.879 783.999C762.239 827.838 759.197 854.078 759.197 883.838V886.4C758.582 894.952 761.551 903.379 767.389 909.655C773.233 915.936 781.42 919.499 789.999 919.499C798.577 919.499 806.764 915.936 812.608 909.655C818.447 903.379 821.415 894.952 820.801 886.4V883.681C820.801 865.921 820.801 855.364 847.998 825.76C858.857 814.401 870.399 803.714 882.561 793.76C914.561 766.719 951.519 735.839 951.519 685.921C951.608 659.119 943.879 632.875 929.279 610.4C897.279 562.4 841.597 552.16 801.279 552.16L800.801 553.119Z" fill="white"/>
<path d="M789.921 962.399C778.072 962.399 766.707 967.108 758.337 975.493C749.962 983.873 745.264 995.242 745.279 1007.09C745.295 1018.94 750.019 1030.29 758.41 1038.66C766.805 1047.02 778.175 1051.71 790.024 1051.68C801.873 1051.65 813.227 1046.91 821.576 1038.51C829.93 1030.11 834.602 1018.73 834.561 1006.88C834.514 995.065 829.795 983.753 821.425 975.414C813.061 967.081 801.729 962.399 789.921 962.399Z" fill="white"/>
</svg>
