<svg width="128" height="128" viewBox="0 0 128 128" fill="none" xmlns="http://www.w3.org/2000/svg">
<path d="M46 48C39.2755 48 32.7019 49.9941 27.1106 53.73C21.5194 57.466 17.1615 62.7761 14.5881 68.9888C12.0147 75.2014 11.3414 82.0377 12.6533 88.6331C13.9652 95.2284 17.2034 101.287 21.9584 106.042C26.7134 110.797 32.7716 114.035 39.3669 115.347C45.9623 116.659 52.7986 115.985 59.0113 113.412C65.2239 110.839 70.534 106.481 74.27 100.889C78.0059 95.2981 80 88.7246 80 82C80 72.9826 76.4179 64.3346 70.0416 57.9584C63.6654 51.5821 55.0174 48 46 48ZM46 112C40.0666 112 34.2664 110.241 29.3329 106.944C24.3994 103.648 20.5543 98.9623 18.2836 93.4805C16.013 87.9987 15.4189 81.9667 16.5765 76.1473C17.734 70.3279 20.5912 64.9824 24.7868 60.7868C28.9824 56.5912 34.3279 53.734 40.1473 52.5764C45.9667 51.4189 51.9987 52.013 57.4805 54.2836C62.9623 56.5542 67.6477 60.3994 70.9441 65.3329C74.2405 70.2664 76 76.0666 76 82C76 89.9565 72.8393 97.5871 67.2132 103.213C61.5871 108.839 53.9565 112 46 112Z" fill="#D35100"/>
<path d="M62.9996 70.9999L46.9996 61.7699C46.6956 61.5944 46.3507 61.502 45.9996 61.502C45.6485 61.502 45.3036 61.5944 44.9996 61.7699L28.9996 70.9999C28.6959 71.1753 28.4436 71.4274 28.2681 71.7311C28.0925 72.0347 28 72.3792 27.9996 72.7299V91.2199C27.991 91.5791 28.0794 91.9339 28.2553 92.2471C28.4313 92.5603 28.6884 92.8204 28.9996 92.9999L44.9996 102.24C45.3036 102.415 45.6485 102.508 45.9996 102.508C46.3507 102.508 46.6956 102.415 46.9996 102.24L62.9996 92.9999C63.3033 92.8245 63.5556 92.5724 63.7311 92.2687C63.9066 91.9651 63.9992 91.6206 63.9996 91.2699V72.7399C64.001 72.3875 63.9092 72.0409 63.7336 71.7354C63.558 71.4298 63.3048 71.1761 62.9996 70.9999ZM45.9996 65.7999L58.3096 72.9099L45.9996 79.9999L33.6896 72.9199L45.9996 65.7999ZM31.9996 76.5699L43.9996 83.4999V96.9999L31.9996 90.0599V76.5699ZM47.9996 96.9999V83.4999L59.9996 76.5699V90.0599L47.9996 96.9999Z" fill="#D35100"/>
<path d="M78 16C58.93 16 44 23 44 32V42C44 42.5304 44.2107 43.0391 44.5858 43.4142C44.9609 43.7893 45.4696 44 46 44C46.5304 44 47.0391 43.7893 47.4142 43.4142C47.7893 43.0391 48 42.5304 48 42V39.64C53.68 44.64 64.86 48 78 48C91.14 48 102.32 44.66 108 39.64V58.22C108 62.54 100 67.98 84.74 70.02C84.2408 70.0909 83.7869 70.3478 83.469 70.7391C83.1511 71.1304 82.9927 71.6274 83.0256 72.1305C83.0585 72.6336 83.2801 73.1057 83.6462 73.4524C84.0123 73.799 84.4958 73.9946 85 74H85.26C95.66 72.62 103.57 69.7 108 65.85V84.11C108 88.84 98.94 94.52 83.79 95.82C83.2596 95.8425 82.7598 96.0749 82.4007 96.4659C82.0415 96.8569 81.8525 97.3746 81.875 97.905C81.8975 98.4354 82.1299 98.9352 82.5209 99.2943C82.9119 99.6535 83.4296 99.8425 83.96 99.82H84.13C100.54 98.39 112 91.94 112 84.11V32C112 23 97.07 16 78 16ZM78 44C60.32 44 48 37.68 48 32C48 26.32 60.32 20 78 20C95.68 20 108 26.32 108 32C108 37.68 95.68 44 78 44Z" fill="#D35100"/>
</svg>
