<svg width="40" height="40" viewBox="0 0 40 40" fill="none" xmlns="http://www.w3.org/2000/svg">
<g clip-path="url(#clip0_19_1741)">
<path d="M29.0913 10.528H33.0795C33.6661 10.528 34.2525 9.94138 34.2525 9.2376V5.9532H4.92677C4.34014 5.9532 3.87094 5.60119 3.87094 5.0148C3.87094 4.42818 4.34014 3.95898 4.92677 3.95898H34.2525V3.48978C34.2525 2.78601 33.6659 2.19938 32.9621 2.19938H3.28437C2.5806 2.19938 1.99397 2.78601 1.99397 3.48978V28.5926C1.99397 29.2964 2.5806 29.883 3.28437 29.883H32.9621C33.6659 29.883 34.2525 29.2964 34.2525 28.5926V22.7275C34.2525 22.0237 33.6659 21.4371 33.0795 21.4371H29.0913C27.2145 21.4371 25.8069 20.0295 25.8069 18.1527V13.8125C25.8069 12.0529 27.2145 10.5281 29.0913 10.5281V10.528ZM36.0119 10.528H36.7157C38.4753 10.528 40.0001 12.053 40.0001 13.8124V18.1526C40.0001 20.0294 38.4751 21.437 36.7157 21.437H36.0119C36.1293 21.9062 36.2465 22.2582 36.2465 22.7274V28.5925C36.2465 30.3521 34.8389 31.8769 32.9621 31.8769H3.2844C1.5248 31.8769 0 30.3519 0 28.5925V3.48966C0 1.73006 1.52503 0.205261 3.2844 0.205261H32.9621C34.8389 0.205261 36.2465 1.73029 36.2465 3.48966V9.23766C36.2465 9.70685 36.1291 10.1761 36.0119 10.5281V10.528ZM36.7157 12.5222H29.0911C28.3873 12.5222 27.8007 13.1088 27.8007 13.8126V18.1527C27.8007 18.8565 28.3873 19.4431 29.0911 19.4431H36.7157C37.4195 19.4431 38.0061 18.8565 38.0061 18.1527V13.8126C38.0061 13.1088 37.4195 12.5222 36.7157 12.5222Z" fill="white"/>
<path d="M31.3198 13.4606C32.7274 13.4606 33.9004 14.6335 33.9004 16.0411C33.9004 17.4487 32.7274 18.5045 31.3198 18.5045C29.9122 18.5045 28.8564 17.4487 28.8564 16.0411C28.8564 14.6336 29.9123 13.4606 31.3198 13.4606ZM31.3198 15.4547C31.0852 15.4547 30.8506 15.6893 30.8506 16.0414C30.8506 16.276 31.0852 16.628 31.3198 16.628C31.6718 16.628 31.9064 16.276 31.9064 16.0414C31.9064 15.6894 31.6718 15.4547 31.3198 15.4547Z" fill="white"/>
</g>
<defs>
<clipPath id="clip0_19_1741">
<rect width="40" height="40" fill="white"/>
</clipPath>
</defs>
</svg>
