<svg width="1600" height="1600" viewBox="0 0 1600 1600" fill="none" xmlns="http://www.w3.org/2000/svg">
<path d="M944 771.52C951.026 775.119 956.469 781.182 959.292 788.552C962.115 795.923 962.115 804.078 959.292 811.448C956.469 818.818 951.026 824.881 944 828.48L844 880.002L734.563 936.164C724.667 941.216 712.861 940.778 703.371 935.007C693.882 929.231 688.064 918.95 688.001 907.841V692.161C688.007 681.02 693.804 670.687 703.304 664.879C712.804 659.067 724.643 658.614 734.564 663.681L844.001 720L944 771.52Z" stroke="white" stroke-width="48" stroke-linecap="round" stroke-linejoin="round"/>
<path d="M456 440H1144C1241.2 440 1320 537.203 1320 616V984C1320 1081.2 1241.2 1160 1144 1160H456C358.797 1160 280 1062.8 280 984V616C280 518.797 358.797 440 456 440Z" stroke="white" stroke-width="48" stroke-linecap="round" stroke-linejoin="round"/>
</svg>
