<svg width="25" height="30" fill="none" xmlns="http://www.w3.org/2000/svg"><g clip-path="url(#prefix__clip0_8_1959)"><path d="M21.52 4.446C19.486 1.997 16.873.53 13.698.104c-.246-.032-.491-.07-.737-.106H11.34c-.494.074-.99.133-1.48.225C7.696.628 5.795 1.58 4.145 3.03A12.04 12.04 0 00.43 8.942a11.659 11.659 0 00-.425 3.488c.003.111.115.252.22.323a3414.23 3414.23 0 008.729 6.152H7.37a.763.763 0 00-.762.762v9.57A.762.762 0 007.37 30h9.569a.762.762 0 00.762-.762v-9.569a.762.762 0 00-.762-.762h-1.598c2.903-2.043 5.807-4.084 8.712-6.123a.527.527 0 00.257-.491c-.003-2.946-.91-5.585-2.79-7.847zm-5.544 16.711v6.591a.525.525 0 01-.525.526H8.86a.525.525 0 01-.526-.526v-6.59a.525.525 0 01.525-.526h6.59a.525.525 0 01.526.525zM10.495 3.974c.236-.603.601-1.158.915-1.727a1.02 1.02 0 01.213-.235c.388-.359.671-.364 1.053.006.539.521.84 1.193 1.1 1.879.553 1.447.85 2.958 1.033 4.491.079.658.128 1.32.195 2.037a6.273 6.273 0 00-2.855-.694c-.985 0-1.924.228-2.863.694.07-.742.124-1.423.204-2.1.177-1.486.458-2.954 1.005-4.35v-.001zm4.268 8.58c-.852 1.78-1.694 3.562-2.54 5.344-.016.033-.038.062-.087.141-.906-1.91-1.79-3.78-2.68-5.658a4.227 4.227 0 012.351-.906 4.371 4.371 0 012.846.76c.126.086.192.15.11.32zM3.981 5.702C5.383 3.939 7.173 2.749 9.43 2.098a13.887 13.887 0 00-1.347 4.095c-.234 1.394-.398 2.8-.597 4.227-1.794-.879-3.663-.932-5.59-.062A10.148 10.148 0 013.98 5.703v-.001zm-.47 5.915c1.468-.353 2.807-.064 3.983.901a.881.881 0 01.237.284c.71 1.485 1.414 2.973 2.114 4.463.02.04.032.082.075.198L2.27 12.08c.458-.173.84-.363 1.24-.46v-.002zm10.932 5.797l-.044-.048c.27-.572.542-1.144.815-1.716.432-.913.859-1.829 1.3-2.738a1.34 1.34 0 01.33-.425c1.33-1.133 3.367-1.339 4.902-.507.066.036.128.08.223.14l-7.526 5.295zm2.3-6.953c-.202-2.883-.556-5.694-1.836-8.304 3.154.675 6.773 3.802 7.481 8.196-1.904-.856-3.775-.822-5.645.109v-.001z" fill="#fff"/></g><defs><clipPath id="prefix__clip0_8_1959"><path fill="#fff" d="M0 0h24.31v30H0z"/></clipPath></defs></svg>