<svg width="30" height="23" fill="none" xmlns="http://www.w3.org/2000/svg"><g clip-path="url(#prefix__clip0_8_1964)"><path d="M29.998 8.892a.584.584 0 00-.329-.55c-.382-.212-.757-.434-1.136-.65l-2.95-1.68a.513.513 0 00-.523-.004 927.514 927.514 0 00-3.682 2.101c-.134.076-.238.086-.375.002-.372-.227-.749-.446-1.133-.65-.152-.082-.213-.173-.213-.349.008-1.367.002-2.734.006-4.101 0-.282-.1-.48-.353-.625C18.023 1.648 16.735.91 15.46.152c-.36-.215-.66-.195-.995.03-.311.21-.647.38-.972.567L10.61 2.417c-.215.124-.31.307-.31.559.005 1.4 0 2.8.006 4.201 0 .144-.05.216-.172.282a37.6 37.6 0 00-1.149.658c-.12.072-.22.08-.345.004-.267-.164-.545-.313-.818-.47-.91-.52-1.823-1.037-2.73-1.566-.263-.154-.512-.19-.776-.023-.067.04-.133.075-.2.114L.336 8.34a.602.602 0 00-.334.567c.002 1.556.002 3.112 0 4.668 0 .27.125.448.35.575a10785.62 10785.62 0 004.057 2.339.534.534 0 00.553 0c.198-.11.394-.223.59-.335.585-.334 1.17-.667 1.752-1.006.24-.14.321-.505.18-.754-.129-.23-.49-.335-.73-.206-.19.102-.374.214-.56.32-.306.175-.612.348-.941.534-.009-.074-.019-.121-.019-.166 0-1.057.002-2.113-.003-3.168 0-.122.054-.178.146-.232.804-.462 1.607-.926 2.409-1.391.145-.084.291-.165.458-.26v2.825c-.4-.233-.762-.457-1.136-.655a.804.804 0 00-.436-.1c-.257.026-.407.209-.46.46-.042.203.093.457.307.582 1.205.705 2.41 1.41 3.62 2.106.127.073.167.145.167.283-.004 1.412-.002 2.823-.003 4.235 0 .23.09.402.29.518l4.068 2.361a.604.604 0 00.634.008c.067-.037.133-.077.2-.116l3.425-1.982c.129-.074.254-.157.387-.223.265-.134.36-.35.36-.638-.005-1.384-.003-2.768-.003-4.151 0-.1-.008-.195.103-.26.934-.536 1.866-1.075 2.796-1.616.334-.194.675-.377.998-.587.253-.164.3-.447.156-.72a.534.534 0 00-.655-.237c-.187.077-.36.188-.538.288-.248.138-.493.28-.762.433v-2.8c.037.011.074.025.109.04l2.752 1.592c.1.057.151.12.15.246-.005 1.05-.002 2.1-.003 3.151 0 .053-.009.105-.015.174-.05-.023-.08-.033-.108-.05-.472-.267-.942-.533-1.414-.797a.563.563 0 00-.74.2c-.16.283-.082.6.195.76.752.431 1.507.856 2.258 1.289.256.147.5.146.751-.004.413-.245.827-.487 1.243-.728l2.726-1.57c.215-.125.338-.303.337-.567-.006-1.56-.008-3.121-.005-4.683zM4.112 15.035c-.308-.175-.59-.333-.867-.495-.673-.39-1.347-.78-2.015-1.178a.267.267 0 01-.117-.19c-.007-1.072-.005-2.144-.005-3.216 0-.032.008-.063.018-.134l2.831 1.628.167.108v.45a.307.307 0 000 .084v.181l.003.002v2.519c-.002.07-.01.14-.015.241zm1.204-4.806l-.587.334a.286.286 0 01-.041.002h-.01c-.17-.005-.295-.149-.436-.228-.822-.463-1.634-.94-2.45-1.414-.028-.016-.052-.038-.104-.076.166-.098.313-.187.463-.272.81-.462 1.621-.923 2.434-1.382.048-.027.133-.037.18-.012.946.534 1.891 1.071 2.834 1.613a.77.77 0 01.077.067l-2.36 1.368zm7.405-7.756c.673-.39 1.345-.78 2.022-1.163.104-.059.211-.179.36-.07h.005l.25.146c.04.036.086.063.137.08l.346.203c.04.03.081.055.125.077l1.937 1.11a.426.426 0 01.067.07c-.3.176-.587.347-.876.514-.667.387-1.334.774-2.007 1.154a.243.243 0 01-.203.003c-.906-.516-1.807-1.039-2.709-1.56-.057-.034-.112-.07-.2-.126.266-.155.505-.298.746-.438zm1.706 18.43a.502.502 0 01-.025.09c-.166-.092-.324-.177-.48-.266-.8-.46-1.597-.92-2.391-1.386-.06-.034-.12-.126-.122-.19-.007-1.079-.005-2.157-.004-3.235 0-.027.006-.054.015-.125.245.139.464.26.682.386.74.428 1.481.856 2.219 1.29a.237.237 0 01.103.166c.006 1.09.004 2.18.003 3.27zm.67-4.402c-.082.048-.138.052-.225.002-.895-.524-1.794-1.04-2.692-1.56-.06-.033-.117-.073-.202-.128.193-.114.364-.218.538-.318.793-.458 1.587-.914 2.382-1.367a.209.209 0 01.175 0c.948.542 1.894 1.087 2.839 1.636.017.01.029.03.06.066-.54.315-1.063.62-1.588.924-.429.247-.86.492-1.287.744zm3.301 2.865c-.896.511-1.787 1.032-2.68 1.549-.051.029-.105.054-.18.092V20.7c0-.995 0-1.99-.003-2.984 0-.128.029-.205.154-.276.897-.51 1.787-1.032 2.68-1.55.05-.03.105-.053.193-.097v.202c0 1.028-.002 2.056.002 3.084 0 .138-.043.216-.167.287l.001.001zm2.248-6.281c0 .143-.034.23-.17.305-.43.236-.85.492-1.277.733a.216.216 0 01-.18-.002 789.456 789.456 0 01-3.68-2.138c-.225-.133-.44-.153-.672-.017-.934.546-1.869 1.09-2.805 1.631-.3.175-.6.353-.904.519a.233.233 0 01-.193 0c-.437-.247-.87-.501-1.3-.761a.252.252 0 01-.103-.184c-.006-1.29-.003-2.58-.006-3.869 0-.117.066-.166.15-.214l1.628-.926c.694-.397 1.39-.792 2.082-1.195.284-.167.355-.473.191-.758a.551.551 0 00-.737-.195c-.348.192-.693.392-1.04.587-.06.034-.123.065-.216.113V3.888c.19.106.356.196.52.29.798.461 1.597.92 2.39 1.39.056.033.1.133.1.202.007 1.05.005 2.1.004 3.15-.003.052-.01.104-.018.155a1.813 1.813 0 01-.17-.078l-1.239-.733c-.382-.228-.677-.05-.8.15-.189.304-.097.617.237.815.531.315 1.067.623 1.6.933.167.098.34.186.498.298.3.214.57.2.887.006.706-.433 1.434-.828 2.147-1.246.376-.22.433-.637.139-.915a.506.506 0 00-.599-.091c-.464.256-.92.526-1.38.789-.05.029-.105.05-.18.087-.006-.078-.013-.131-.013-.184 0-1.04 0-2.078-.002-3.118 0-.118.033-.184.144-.247.896-.511 1.787-1.034 2.68-1.55.052-.03.107-.056.183-.095v2.796a34.99 34.99 0 01-.518-.286c-.226-.127-.449-.26-.677-.384-.278-.15-.606-.066-.753.187-.167.288-.093.594.203.767.614.36 1.234.713 1.852 1.067.603.344 1.208.686 1.815 1.024.13.073.183.16.183.316a328.422 328.422 0 00-.002 3.7v.002zm4.796-2.566c-.061.034-.171.046-.228.014-.94-.536-1.875-1.08-2.81-1.623a.694.694 0 01-.076-.066c.233-.134.447-.259.661-.38.738-.422 1.476-.845 2.217-1.26a.249.249 0 01.207-.009c.934.524 1.863 1.056 2.793 1.586.028.016.052.038.106.077-.16.096-.302.183-.446.267-.808.465-1.615.933-2.426 1.393l.002.001zm3.306 2.868c-.944.538-1.882 1.087-2.86 1.654-.006-.1-.013-.167-.013-.23 0-1.022.003-2.044-.004-3.067 0-.145.05-.226.174-.285a.875.875 0 00.2-.118l.613-.347c.107-.047.203-.117.304-.175.53-.305 1.057-.618 1.585-.927.045-.021.09-.04.137-.055.004.082.01.141.01.2 0 1.028-.002 2.056.003 3.084 0 .125-.036.199-.15.264l.001.002z" fill="#fff"/></g><defs><clipPath id="prefix__clip0_8_1964"><path fill="#fff" d="M0 0h30v22.531H0z"/></clipPath></defs></svg>