<svg width="24" height="37" viewBox="0 0 24 37" fill="none" xmlns="http://www.w3.org/2000/svg">
<path d="M4.88889 36V32.1111M18.5 20.4444V16.5556M4.88889 20.4444V16.5556M18.5 4.88889V1M8.77778 21.6111V30.9444C8.77778 31.2539 8.65486 31.5506 8.43607 31.7694C8.21728 31.9882 7.92053 32.1111 7.61111 32.1111H2.16667C1.85725 32.1111 1.5605 31.9882 1.34171 31.7694C1.12292 31.5506 1 31.2539 1 30.9444V21.6111C1 21.3017 1.12292 21.0049 1.34171 20.7862C1.5605 20.5674 1.85725 20.4444 2.16667 20.4444H7.61111C7.92053 20.4444 8.21728 20.5674 8.43607 20.7862C8.65486 21.0049 8.77778 21.3017 8.77778 21.6111ZM22.3889 6.05556V15.3889C22.3889 15.6983 22.266 15.9951 22.0472 16.2138C21.8284 16.4326 21.5316 16.5556 21.2222 16.5556H15.7778C15.6246 16.5556 15.4729 16.5254 15.3313 16.4667C15.1898 16.4081 15.0612 16.3222 14.9528 16.2138C14.8445 16.1055 14.7585 15.9769 14.6999 15.8354C14.6413 15.6938 14.6111 15.5421 14.6111 15.3889V6.05556C14.6111 5.90235 14.6413 5.75064 14.6999 5.60909C14.7585 5.46754 14.8445 5.33893 14.9528 5.2306C15.0612 5.12226 15.1898 5.03633 15.3313 4.9777C15.4729 4.91907 15.6246 4.88889 15.7778 4.88889H21.2222C21.5316 4.88889 21.8284 5.01181 22.0472 5.2306C22.266 5.44939 22.3889 5.74614 22.3889 6.05556Z" stroke="#E77728" stroke-width="2" stroke-linecap="round" stroke-linejoin="round"/>
</svg>
