<svg width="35" height="35" viewBox="0 0 35 35" fill="none" xmlns="http://www.w3.org/2000/svg">
<path d="M4.375 17.5C4.375 19.2236 4.71449 20.9303 5.37408 22.5227C6.03367 24.1151 7.00045 25.562 8.21922 26.7808C9.43799 27.9995 10.8849 28.9663 12.4773 29.6259C14.0697 30.2855 15.7764 30.625 17.5 30.625C19.2236 30.625 20.9303 30.2855 22.5227 29.6259C24.1151 28.9663 25.562 27.9995 26.7808 26.7808C27.9995 25.562 28.9663 24.1151 29.6259 22.5227C30.2855 20.9303 30.625 19.2236 30.625 17.5C30.625 15.7764 30.2855 14.0697 29.6259 12.4773C28.9663 10.8849 27.9995 9.43799 26.7808 8.21922C25.562 7.00045 24.1151 6.03367 22.5227 5.37408C20.9303 4.71449 19.2236 4.375 17.5 4.375C15.7764 4.375 14.0697 4.71449 12.4773 5.37408C10.8849 6.03367 9.43799 7.00045 8.21922 8.21922C7.00045 9.43799 6.03367 10.8849 5.37408 12.4773C4.71449 14.0697 4.375 15.7764 4.375 17.5Z" stroke="#E77728" stroke-width="2" stroke-linecap="round" stroke-linejoin="round"/>
<path d="M21.5833 13.125C21.3192 12.6667 20.9353 12.289 20.4729 12.0321C20.0105 11.7752 19.487 11.6489 18.9583 11.6667H16.0417C15.2681 11.6667 14.5263 11.974 13.9793 12.5209C13.4323 13.0679 13.125 13.8098 13.125 14.5833C13.125 15.3569 13.4323 16.0988 13.9793 16.6457C14.5263 17.1927 15.2681 17.5 16.0417 17.5H18.9583C19.7319 17.5 20.4737 17.8073 21.0207 18.3543C21.5677 18.9013 21.875 19.6431 21.875 20.4167C21.875 21.1902 21.5677 21.9321 21.0207 22.4791C20.4737 23.0261 19.7319 23.3333 18.9583 23.3333H16.0417C15.513 23.3511 14.9895 23.2248 14.5271 22.968C14.0647 22.7111 13.6808 22.3333 13.4167 21.875M17.5 10.2083V24.7917" stroke="#E77728" stroke-width="2" stroke-linecap="round" stroke-linejoin="round"/>
</svg>
