<svg width="33" height="30" viewBox="0 0 33 30" fill="none" xmlns="http://www.w3.org/2000/svg">
<g clip-path="url(#clip0_8_1929)">
<path d="M12.7306 21.9525C12.7306 20.9979 12.7601 20.1269 12.7076 19.2624C12.6961 19.0656 12.4238 18.8556 12.2286 18.7063C11.2444 17.9474 10.246 17.1994 9.23338 16.4624C9.0125 16.2781 8.75111 16.1488 8.47063 16.0851C3.54964 15.429 0.0409701 11.4741 0.00488281 6.49079C0.00488281 5.6165 0.00488281 4.7422 0.00488281 3.86626C0.00488281 2.69999 0.403483 2.31615 1.596 2.31287C3.34131 2.31287 5.08663 2.31287 6.89919 2.31287C6.91559 1.96184 6.932 1.6715 6.94348 1.38281C6.97957 0.40845 7.37817 0.00492863 8.37057 0.0032883C13.566 -0.00327302 18.7604 -0.00327302 23.9537 0.0032883C24.9477 0.0032883 25.3447 0.405166 25.3759 1.38444C25.3841 1.65674 25.3759 1.92903 25.3759 2.31287H28.3482C32.7639 2.32107 32.3095 1.86998 32.3145 6.3284C32.345 7.97498 31.9549 9.60213 31.181 11.0558C29.6046 13.9395 27.172 15.5881 23.9291 16.0802C23.6 16.1584 23.2928 16.3098 23.0302 16.5231C22.0378 17.235 21.052 17.9567 20.0956 18.7162C19.839 18.91 19.6636 19.1924 19.6035 19.5085C19.5379 20.2892 19.5806 21.0782 19.5806 21.9509C20.0251 21.9509 20.3729 21.9509 20.719 21.9509C22.6332 21.9706 24.0702 23.2632 24.1883 25.1643C24.2621 26.3618 24.2293 27.569 24.203 28.773C24.185 29.562 23.7585 29.9885 22.958 29.9902C18.4209 30.0044 13.8826 30.0044 9.34328 29.9902C8.54772 29.9902 8.1196 29.5588 8.09991 28.7714C8.07203 27.5969 8.04906 26.4175 8.09991 25.2447C8.19505 23.3025 9.63526 21.964 11.5791 21.9525C11.9219 21.9493 12.2483 21.9525 12.7306 21.9525ZM9.21698 2.32435C9.21698 5.03254 9.20221 7.65215 9.21698 10.2734C9.2383 13.3342 10.9475 15.8046 13.8345 16.8724C14.6891 17.189 15.0401 17.668 14.9827 18.5784C14.9204 19.684 14.968 20.7961 14.968 21.8951H17.3497C17.3497 20.7239 17.3907 19.6069 17.3366 18.4947C17.2956 17.65 17.6335 17.1972 18.416 16.902C21.4407 15.7537 23.1007 13.331 23.1106 10.1061C23.1106 7.78337 23.1106 5.45903 23.1106 3.13632C23.1106 2.87223 23.086 2.60977 23.0712 2.31615L9.21698 2.32435ZM21.9591 27.6658C21.9591 26.8457 22.0083 26.0895 21.9443 25.3365C21.8885 24.6558 21.4522 24.231 20.7485 24.2293C17.6866 24.2162 14.6246 24.2162 11.5627 24.2293C10.854 24.2293 10.4374 24.6771 10.3865 25.3562C10.3291 26.1091 10.3734 26.8686 10.3734 27.6642L21.9591 27.6658ZM2.35548 4.62902C1.97164 9.15305 4.21889 13.0439 7.40605 13.3917C6.5498 10.5096 7.15836 7.54717 6.87623 4.62902H2.35548ZM25.1807 13.3818C28.2661 12.8684 30.807 8.3378 29.8983 4.66018H25.4694C25.3693 7.61278 25.2742 10.5129 25.1807 13.3818Z" fill="#E77728"/>
</g>
<defs>
<clipPath id="clip0_8_1929">
<rect width="32.3276" height="30" fill="white"/>
</clipPath>
</defs>
</svg>
