<svg width="29" height="27" viewBox="0 0 29 27" fill="none" xmlns="http://www.w3.org/2000/svg">
<g clip-path="url(#clip0_8_6563)">
<path d="M27.1502 0H1.84823C1.35829 0.000461576 0.888541 0.195945 0.542047 0.543562C0.195553 0.891178 0.000613551 1.36254 0 1.85422V22.6733C0.000408727 23.1652 0.195233 23.6368 0.541727 23.9847C0.88822 24.3326 1.35809 24.5284 1.84823 24.5291H2.83009L3.81774 26.6678C3.86357 26.767 3.93672 26.851 4.02857 26.9099C4.12041 26.9687 4.22712 27 4.3361 27H9.01383C9.12273 27 9.22935 26.9687 9.32115 26.91C9.41295 26.8512 9.4861 26.7673 9.53199 26.6682L10.5212 24.5291H18.906L19.8937 26.6678C19.9395 26.767 20.0126 26.851 20.1044 26.9098C20.1962 26.9687 20.3029 27 20.4118 27H25.0898C25.1986 27 25.3052 26.9688 25.397 26.91C25.4888 26.8512 25.5619 26.7673 25.6077 26.6682L26.5969 24.5291H27.15C27.6404 24.5286 28.1106 24.333 28.4574 23.9851C28.8042 23.6372 28.9993 23.1654 29 22.6733V1.85422C28.9992 1.36233 28.804 0.890857 28.4572 0.543241C28.1104 0.195625 27.6404 0.00025596 27.1502 0ZM8.64863 25.8536H4.70091L4.08928 24.5291H9.26181L8.64863 25.8536ZM24.7245 25.8536H20.7768L20.1652 24.5291H25.3377L24.7245 25.8536ZM27.8571 22.6733C27.8568 22.8614 27.7821 23.0418 27.6495 23.1748C27.5169 23.3077 27.3371 23.3825 27.1496 23.3827H1.84823C1.66096 23.3823 1.48148 23.3074 1.34915 23.1744C1.21682 23.0415 1.14245 22.8612 1.14235 22.6733V1.85422C1.14265 1.66649 1.21714 1.48654 1.34947 1.35385C1.4818 1.22117 1.66117 1.14656 1.84823 1.14641H27.1502C27.3375 1.14631 27.5172 1.22078 27.6498 1.35348C27.7824 1.48618 27.8572 1.66627 27.8577 1.85422L27.8571 22.6733Z" fill="#0E0E0E"/>
<path d="M9.63686 7.34279C8.61936 7.33972 7.62905 7.67231 6.81836 8.28938C6.02599 8.89171 5.44392 9.73027 5.15553 10.6849C5.02358 11.1237 4.95694 11.5796 4.95777 12.0379C4.95777 14.6168 7.04857 16.7222 9.62083 16.7315H9.65521C12.2252 16.7222 14.3169 14.6168 14.3169 12.0379C14.3169 9.44878 12.217 7.34279 9.63686 7.34279ZM9.65173 15.5851H9.62276C7.68048 15.5781 6.10012 13.9869 6.10012 12.0383C6.09941 11.6921 6.14972 11.3476 6.24941 11.0161C6.6936 9.52863 8.08624 8.48959 9.63686 8.48959C11.5874 8.48959 13.1738 10.0816 13.1738 12.0383C13.1738 13.9867 11.5938 15.5777 9.65173 15.5851Z" fill="#0E0E0E"/>
<path d="M9.63676 9.96143C8.73002 9.96143 7.91522 10.5696 7.65662 11.4367C7.59765 11.6315 7.56791 11.834 7.56836 12.0376C7.56836 13.1772 8.49248 14.1081 9.63039 14.1125H9.64564C10.7812 14.1081 11.7053 13.1772 11.7053 12.0376C11.7047 11.4872 11.4865 10.9595 11.0987 10.5703C10.711 10.1811 10.1852 9.96214 9.63676 9.96143ZM9.64197 12.9655H9.6327C9.38805 12.9642 9.15386 12.8658 8.98119 12.6918C8.80851 12.5179 8.71136 12.2825 8.71091 12.037C8.71015 11.9459 8.72317 11.8552 8.74953 11.768C8.79886 11.6029 8.89288 11.4549 9.02112 11.3403C9.14936 11.2258 9.30677 11.1492 9.47583 11.1192C9.64488 11.0891 9.81892 11.1068 9.97856 11.1702C10.1382 11.2336 10.2772 11.3402 10.3799 11.4782C10.4827 11.6162 10.5453 11.7802 10.5607 11.9518C10.5761 12.1234 10.5438 12.2959 10.4672 12.4501C10.3906 12.6043 10.2729 12.7342 10.1271 12.8252C9.98136 12.9162 9.81327 12.9648 9.64159 12.9655H9.64197Z" fill="#0E0E0E"/>
<path d="M26.2328 2.19006H2.76786C2.6164 2.19006 2.47114 2.25044 2.36404 2.35792C2.25694 2.4654 2.19678 2.61117 2.19678 2.76317V21.7658C2.19678 21.9178 2.25694 22.0636 2.36404 22.1711C2.47114 22.2786 2.6164 22.3389 2.76786 22.3389H12.2089C12.2848 22.3403 12.3602 22.3265 12.4307 22.2984C12.5012 22.2702 12.5654 22.2282 12.6196 22.1748C12.6738 22.1215 12.7168 22.0578 12.7462 21.9876C12.7755 21.9173 12.7907 21.8419 12.7907 21.7657C12.7907 21.6896 12.7755 21.6142 12.7462 21.5439C12.7168 21.4737 12.6738 21.41 12.6196 21.3566C12.5654 21.3033 12.5012 21.2613 12.4307 21.2331C12.3602 21.2049 12.2848 21.1911 12.2089 21.1925H3.33874V3.33647H25.6612V21.1925H16.7684C16.6169 21.1925 16.4716 21.2529 16.3645 21.3604C16.2573 21.468 16.1972 21.6138 16.1972 21.7658C16.1972 21.9179 16.2573 22.0637 16.3645 22.1712C16.4716 22.2787 16.6169 22.3391 16.7684 22.3391H26.2317C26.3832 22.3391 26.5285 22.2787 26.6356 22.1712C26.7428 22.0637 26.8029 21.9179 26.8029 21.7658V2.76317C26.8028 2.61137 26.7428 2.46581 26.6359 2.35838C26.529 2.25095 26.3841 2.19042 26.2328 2.19006Z" fill="#0E0E0E"/>
<path d="M16.4075 9.31309H18.4486C18.6001 9.31304 18.7453 9.25262 18.8524 9.14511C18.9595 9.0376 19.0197 8.8918 19.0197 8.73979V6.69195C19.0197 6.61668 19.005 6.54213 18.9763 6.47258C18.9476 6.40302 18.9055 6.33982 18.8525 6.28658C18.7995 6.23334 18.7365 6.19111 18.6672 6.1623C18.5979 6.13348 18.5236 6.11865 18.4486 6.11865H16.4075C16.2559 6.11865 16.1106 6.17905 16.0035 6.28657C15.8964 6.39408 15.8362 6.5399 15.8362 6.69195V8.73921C15.8361 8.81454 15.8509 8.88914 15.8796 8.95875C15.9082 9.02836 15.9503 9.09162 16.0034 9.14491C16.0564 9.19821 16.1194 9.24049 16.1887 9.26934C16.2581 9.2982 16.3324 9.31307 16.4075 9.31309ZM16.9787 7.26584H17.8773V8.16649H16.9787V7.26584Z" fill="#0E0E0E"/>
<path d="M20.3974 9.31309H22.4402C22.5917 9.31309 22.737 9.25269 22.8441 9.14518C22.9512 9.03766 23.0114 8.89184 23.0114 8.73979V6.69195C23.0114 6.5399 22.9512 6.39408 22.8441 6.28657C22.737 6.17905 22.5917 6.11865 22.4402 6.11865H20.3974C20.2459 6.11865 20.1006 6.17905 19.9935 6.28657C19.8864 6.39408 19.8262 6.5399 19.8262 6.69195V8.73921C19.8261 8.81454 19.8408 8.88916 19.8695 8.95878C19.8982 9.0284 19.9402 9.09167 19.9933 9.14497C20.0463 9.19827 20.1093 9.24055 20.1787 9.2694C20.248 9.29824 20.3224 9.31309 20.3974 9.31309ZM20.9687 7.26584H21.8683V8.16649H20.9681L20.9687 7.26584Z" fill="#0E0E0E"/>
<path d="M15.8362 13.0834C15.8362 13.2354 15.8964 13.3812 16.0035 13.4888C16.1106 13.5963 16.2559 13.6567 16.4075 13.6567H18.4486C18.5236 13.6567 18.5979 13.6418 18.6672 13.613C18.7365 13.5842 18.7995 13.542 18.8525 13.4887C18.9055 13.4355 18.9476 13.3723 18.9763 13.3028C19.005 13.2332 19.0197 13.1587 19.0197 13.0834V11.0363C19.0197 10.8843 18.9595 10.7385 18.8524 10.631C18.7453 10.5235 18.6001 10.4631 18.4486 10.463H16.4075C16.256 10.4631 16.1107 10.5235 16.0036 10.631C15.8964 10.7385 15.8362 10.8843 15.8362 11.0363V13.0834ZM16.9787 11.6104H17.8773V12.511H16.9787V11.6104Z" fill="#0E0E0E"/>
<path d="M19.8262 13.0834C19.8262 13.2354 19.8864 13.3812 19.9935 13.4888C20.1006 13.5963 20.2459 13.6567 20.3974 13.6567H22.4401C22.5917 13.6567 22.737 13.5963 22.8441 13.4888C22.9512 13.3812 23.0114 13.2354 23.0114 13.0834V11.0363C23.0114 10.8843 22.9512 10.7385 22.844 10.631C22.7369 10.5235 22.5916 10.4631 22.4401 10.463H20.3974C20.2459 10.463 20.1006 10.5234 19.9935 10.6309C19.8864 10.7384 19.8262 10.8843 19.8262 11.0363V13.0834ZM20.9687 11.6104H21.8683V12.511H20.9681L20.9687 11.6104Z" fill="#0E0E0E"/>
<path d="M18.4484 18.2121C18.5234 18.2121 18.5977 18.1973 18.667 18.1685C18.7363 18.1397 18.7993 18.0975 18.8524 18.0443C18.9054 17.9911 18.9475 17.9279 18.9762 17.8584C19.0049 17.7888 19.0197 17.7143 19.0197 17.639V15.5927C19.0197 15.4407 18.9595 15.2948 18.8524 15.1873C18.7452 15.0798 18.5999 15.0194 18.4484 15.0194H16.4075C16.2559 15.0194 16.1106 15.0798 16.0035 15.1873C15.8964 15.2948 15.8362 15.4407 15.8362 15.5927V17.64C15.8362 17.7152 15.851 17.7898 15.8797 17.8593C15.9084 17.9289 15.9505 17.9921 16.0035 18.0453C16.0566 18.0985 16.1195 18.1407 16.1889 18.1695C16.2582 18.1983 16.3324 18.2131 16.4075 18.2131L18.4484 18.2121ZM16.9787 16.165H17.8773V17.0657H16.9787V16.165Z" fill="#0E0E0E"/>
<path d="M19.8262 17.639C19.8262 17.7143 19.8409 17.7888 19.8697 17.8584C19.8984 17.9279 19.9405 17.9911 19.9935 18.0443C20.0466 18.0975 20.1095 18.1397 20.1788 18.1685C20.2482 18.1973 20.3224 18.2121 20.3974 18.2121H22.4401C22.5152 18.2121 22.5894 18.1973 22.6588 18.1685C22.7281 18.1397 22.791 18.0975 22.8441 18.0443C22.8971 17.9911 22.9392 17.9279 22.9679 17.8584C22.9966 17.7888 23.0114 17.7143 23.0114 17.639V15.5927C23.0114 15.4407 22.9512 15.2948 22.8441 15.1873C22.737 15.0798 22.5917 15.0194 22.4401 15.0194H20.3974C20.2459 15.0194 20.1006 15.0798 19.9935 15.1873C19.8864 15.2948 19.8262 15.4407 19.8262 15.5927V17.639ZM20.9687 16.166H21.8683V17.0657H20.9681L20.9687 16.166Z" fill="#0E0E0E"/>
<path d="M14.4991 21.1926H14.4895C14.338 21.1926 14.1927 21.253 14.0855 21.3605C13.9784 21.4681 13.9182 21.6139 13.9182 21.7659C13.9182 21.918 13.9784 22.0638 14.0855 22.1713C14.1927 22.2788 14.338 22.3392 14.4895 22.3392H14.4991C14.6507 22.3392 14.796 22.2788 14.9031 22.1713C15.0102 22.0638 15.0704 21.918 15.0704 21.7659C15.0704 21.6139 15.0102 21.4681 14.9031 21.3605C14.796 21.253 14.6507 21.1926 14.4991 21.1926Z" fill="#0E0E0E"/>
</g>
<defs>
<clipPath id="clip0_8_6563">
<rect width="29" height="27" fill="white"/>
</clipPath>
</defs>
</svg>
