<svg xmlns="http://www.w3.org/2000/svg" width="200" height="200" fill="none"><path fill="#5E12A0" d="M191.136 35.352c-2.036-7.84-8.58-15.68-20.359-24.406C161.323 3.994 151.289 0 143.291 0c-1.6 0-3.054.148-4.508.444-3.636.74-6.836 3.402-8.871 7.396-2.472 4.733-3.054 11.093-1.454 14.939.581 1.183 1.308 2.663 2.181 3.994-7.708 4.733-12.071 6.064-12.653 6.212 20.07 6.804 36.794 21.004 47.264 39.494l.146-1.775c.436-4.881 1.89-10.502 3.927-16.271 2.035.592 4.071.888 6.107.888 5.381 0 10.034-2.22 12.943-6.213 2.909-3.994 4.071-9.319 2.763-13.756Z"/><path fill="url(#a)" d="M170.197 50.148c13.233 3.697 18.614-6.657 16.868-13.609-1.89-6.952-7.998-14.052-18.76-22.04-10.761-7.987-21.667-11.24-28.648-9.762-6.98 1.48-9.016 12.277-7.272 16.419.728 1.627 2.327 3.994 4.509 6.656-2.763 1.923-5.381 3.402-7.562 4.733 13.379 6.065 25.013 15.532 33.738 27.365 1.018-3.994 2.473-7.544 3.782-10.65 1.017.148 2.181.444 3.345.888Z"/><path fill="url(#b)" d="M94.424 195.112c44.896 0 81.293-37.02 81.293-82.685 0-45.666-36.397-82.685-81.293-82.685-44.897 0-81.293 37.02-81.293 82.685s36.396 82.685 81.293 82.685Z"/><path fill="#A98698" d="M180.377 29.73c-11.053-11.832-20.36-14.939-31.558-17.453-8.725-2.071-6.399-7.1 4.218-6.065-5.09-1.775-9.889-2.219-13.38-1.48-6.98 1.48-9.016 12.278-7.271 16.42.727 1.627 2.327 3.993 4.509 6.656a110.347 110.347 0 0 1-10.036 6.064 66.791 66.791 0 0 1 4.799 2.367c4.945 2.663 10.326 7.1 10.326 7.1-8.144-7.1-6.399-10.354 4.799-18.342 3.491-2.514 9.889-2.218 15.852.888 5.962 3.106 12.942 10.946 12.942 10.946l-6.689 13.016 1.309.444c4.217 1.183 7.561.888 10.18-.148 3.054-1.923 11.052-8.431 0-20.412Z" opacity=".6"/><path fill="#5E12A0" d="M148.673 19.385c2.909 1.183 6.69 3.254 11.344 6.36 5.526 3.698 10.325 7.84 13.379 11.094-5.09 6.804-8.435 16.123-10.47 22.631 1.018 1.48 2.181 2.959 3.199 4.438 1.018-3.698 2.762-9.17 5.089-14.644.582.148 1.31.148 2.036.148 1.745 0 3.781-.296 5.381-1.627 1.163-.887 2.473-2.514 2.327-5.473 0-2.81-2.181-6.36-6.69-10.65-3.199-3.106-7.561-6.508-11.924-9.614-12.507-8.431-21.233-10.798-25.159-6.804-2.618 2.662-2.327 5.916-1.455 8.283-4.653 3.106-8.58 5.325-11.197 6.804 1.745.592 3.345 1.331 5.09 2.07 4.653-2.514 11.343-6.803 19.05-13.016Zm27.486 21.152c.436.74.582 1.48.582 1.923 0 1.331-.436 1.775-.728 2.07-.581.445-1.745.74-2.763.74.873-1.775 1.891-3.254 2.909-4.733Zm-35.92-22.04c.436-.443 1.6-.739 3.49-.443-1.454 1.183-2.908 2.219-4.362 3.254-.146-1.035 0-2.07.872-2.81Z"/><path fill="#5E12A0" d="M94.424 24.867c-47.554 0-86.092 39.198-86.092 87.567C8.332 160.801 46.87 200 94.424 200s86.092-39.199 86.092-87.566c0-48.37-38.683-87.567-86.092-87.567Zm0 170.251c-44.937 0-81.293-36.978-81.293-82.684 0-45.707 36.356-82.686 81.293-82.686 44.936 0 81.294 36.98 81.294 82.686 0 45.706-36.502 82.684-81.294 82.684Z"/><path fill="url(#c)" d="M94.424 195.112c44.896 0 81.293-37.02 81.293-82.685 0-45.666-36.397-82.685-81.293-82.685-44.897 0-81.293 37.02-81.293 82.685s36.396 82.685 81.293 82.685Z" opacity=".6"/><path fill="#A98698" d="M93.85 185.062c-44.354-7.248-74.457-49.7-67.186-94.814 3.2-19.969 13.088-36.979 27.05-49.256-20.36 11.981-35.485 32.837-39.556 58.28-7.126 45.113 22.977 87.565 67.186 94.813 24.722 4.142 48.572-3.698 66.169-19.081a80.37 80.37 0 0 1-53.662 10.058Z" opacity=".6"/><path fill="url(#d)" d="M107.365 30.924c-20.505-3.402-40.428 1.33-56.716 11.833l-.582.592c6.254-3.846 15.416-7.248 15.416-7.248-23.56 13.904-30.83 29.73-30.83 29.73 9.161-18.045 36.065-30.766 57.152-31.653 21.086-.888 34.901 5.473 51.771 19.229 16.869 13.904 27.049 42.303 26.031 64.787-.872 22.484-12.506 40.677-12.506 40.677 7.998-10.503 12.797-18.193 15.851-26.034.582-2.366 1.164-4.732 1.454-7.247 7.272-44.967-22.686-87.418-67.041-94.666Z" opacity=".6"/><path fill="url(#e)" d="M171.644 111.689c0 43.339-34.612 78.544-77.22 78.544-42.61 0-77.367-35.205-77.367-78.544h154.587Z"/><path fill="url(#f)" d="M165.534 111.689c0 42.304-32.866 76.916-74.167 78.544h3.054c42.61 0 77.222-35.205 77.222-78.544h-6.109Z" opacity=".6"/><path fill="url(#g)" d="M27.964 111.689H17.057c0 43.339 34.611 78.544 77.22 78.544 1.891 0 3.636 0 5.382-.149-39.993-2.958-71.695-36.978-71.695-78.395Z" opacity=".7"/><path fill="url(#h)" d="M171.499 112.422c0-9.023-15.415-14.2-35.921-15.975-14.833-1.184-29.811.295-46.972 5.62-14.833 4.438-28.212 3.698-37.956 2.514-21.668-2.514-33.593-2.81-33.593 7.841 0 15.383 30.83 34.612 77.075 27.955 23.414-3.401 35.484-10.353 49.3-15.087 14.979-5.029 28.067-4.881 28.067-12.868Z"/><path fill="#fff" d="M119.727 75.152c7.229 0 13.088-5.96 13.088-13.312 0-7.353-5.859-13.313-13.088-13.313-7.228 0-13.088 5.96-13.088 13.313 0 7.352 5.86 13.312 13.088 13.312ZM141.108 85.062c3.052 0 5.526-2.517 5.526-5.62 0-3.105-2.474-5.622-5.526-5.622-3.052 0-5.526 2.517-5.526 5.621 0 3.104 2.474 5.62 5.526 5.62Z"/><path fill="url(#i)" d="M160.884 51.203h-.291c-.873-.148-1.454-1.035-1.309-2.07 1.309-6.805 6.835-13.313 7.126-13.61.581-.739 1.745-.739 2.327-.147.727.592.727 1.775.145 2.367-.145.148-5.235 6.212-6.398 12.129-.146.887-.873 1.331-1.6 1.331Z" opacity=".6"/><path fill="#fff" d="M89.06 174.098c2.25 0 4.072-1.854 4.072-4.142 0-2.287-1.823-4.142-4.072-4.142s-4.072 1.855-4.072 4.142c0 2.288 1.823 4.142 4.072 4.142Z" opacity=".2"/><g opacity=".4"><path fill="url(#j)" d="M86.713 172.657c-1.6-1.627-1.6-4.289 0-5.917.29-.296.582-.444.873-.74-.582.149-1.018.444-1.455.888-1.6 1.627-1.6 4.29 0 5.917 1.31 1.331 3.345 1.627 4.945.74-1.454.591-3.2.296-4.363-.888Z" opacity=".6"/></g><path fill="#fff" d="M90.492 168.779a.88.88 0 0 0 .872-.887.88.88 0 0 0-.872-.888.88.88 0 0 0-.873.888c0 .49.39.887.873.887Z" opacity=".3"/><path fill="#fff" d="M110.302 172.035c2.249 0 4.072-1.855 4.072-4.143s-1.823-4.142-4.072-4.142-4.072 1.854-4.072 4.142c0 2.288 1.823 4.143 4.072 4.143Z" opacity=".2"/><g opacity=".4"><path fill="url(#k)" d="M107.955 170.593c-1.6-1.628-1.6-4.291 0-5.918.29-.296.582-.444.872-.739-.582.147-1.018.443-1.454.887-1.599 1.627-1.599 4.29 0 5.917 1.31 1.332 3.345 1.627 4.945.739-1.454.593-3.199.297-4.363-.886Z" opacity=".6"/></g><path fill="#fff" d="M111.734 166.714a.88.88 0 0 0 .872-.888.88.88 0 0 0-.872-.887.88.88 0 0 0-.873.887.88.88 0 0 0 .873.888Z" opacity=".3"/><path fill="#fff" d="M99.798 181.662c1.687 0 3.054-1.391 3.054-3.106 0-1.716-1.367-3.107-3.054-3.107-1.687 0-3.054 1.391-3.054 3.107 0 1.715 1.367 3.106 3.054 3.106Z" opacity=".2"/><g opacity=".4"><path fill="url(#l)" d="M98.053 180.497c-1.163-1.184-1.163-3.254 0-4.438.145-.148.436-.295.582-.444-.437.149-.728.444-1.018.74-1.164 1.183-1.164 3.255 0 4.438 1.018 1.036 2.472 1.183 3.781.444a3.125 3.125 0 0 1-3.345-.74Z" opacity=".6"/></g><path fill="#fff" d="M100.822 177.508a.586.586 0 0 0 .581-.591.587.587 0 0 0-.581-.593.588.588 0 0 0-.582.593c0 .326.261.591.582.591Z" opacity=".3"/><path fill="#fff" d="M118.565 179.429c1.687 0 3.054-1.39 3.054-3.106s-1.367-3.106-3.054-3.106c-1.686 0-3.053 1.39-3.053 3.106s1.367 3.106 3.053 3.106Z" opacity=".2"/><g opacity=".4"><path fill="url(#m)" d="M116.821 178.265c-1.163-1.184-1.163-3.255 0-4.438.145-.148.436-.296.582-.444-.437.148-.728.444-1.018.74-1.164 1.183-1.164 3.254 0 4.438 1.018 1.035 2.472 1.183 3.781.444a3.127 3.127 0 0 1-3.345-.74Z" opacity=".6"/></g><path fill="#fff" d="M119.592 175.293a.587.587 0 0 0 .582-.592.587.587 0 0 0-.582-.592.587.587 0 0 0-.582.592c0 .327.261.592.582.592Z" opacity=".3"/><path fill="#fff" d="M71.737 172.634c3.694 0 6.689-3.047 6.689-6.804 0-3.758-2.995-6.805-6.69-6.805-3.694 0-6.69 3.047-6.69 6.805 0 3.757 2.996 6.804 6.69 6.804Z" opacity=".2"/><g opacity=".4"><path fill="url(#n)" d="M67.957 170.104c-2.618-2.663-2.618-6.953 0-9.615.436-.444.873-.74 1.454-1.036-.872.296-1.6.888-2.327 1.48a6.867 6.867 0 0 0 0 9.614c2.182 2.219 5.527 2.663 8.144 1.035-2.472 1.036-5.38.592-7.271-1.478Z" opacity=".6"/></g><path fill="#fff" d="M74.072 163.749c.803 0 1.454-.662 1.454-1.479 0-.817-.651-1.479-1.454-1.479-.804 0-1.455.662-1.455 1.479 0 .817.651 1.479 1.454 1.479Z" opacity=".3"/><path fill="#fff" d="M131.539 155.913c3.695 0 6.69-3.046 6.69-6.804 0-3.758-2.995-6.804-6.69-6.804-3.694 0-6.689 3.046-6.689 6.804 0 3.758 2.995 6.804 6.689 6.804Z" opacity=".2"/><g opacity=".4"><path fill="url(#o)" d="M127.574 153.4c-2.618-2.662-2.618-6.951 0-9.614.436-.444.873-.74 1.455-1.036-.874.296-1.6.888-2.327 1.48a6.866 6.866 0 0 0 0 9.614c2.181 2.219 5.526 2.663 8.144 1.035-2.473 1.036-5.237.593-7.272-1.479Z" opacity=".6"/></g><path fill="#fff" d="M133.837 147.049c.804 0 1.454-.663 1.454-1.48s-.65-1.479-1.454-1.479c-.803 0-1.454.662-1.454 1.479 0 .817.651 1.48 1.454 1.48Z" opacity=".3"/><defs><linearGradient id="h" x1="17.226" x2="171.503" y1="118.947" y2="118.947" gradientUnits="userSpaceOnUse"><stop stop-color="#000292"/><stop offset=".995" stop-color="#BE00C7"/></linearGradient><linearGradient id="o" x1="124.728" x2="134.775" y1="149.279" y2="149.279" gradientUnits="userSpaceOnUse"><stop offset=".289" stop-color="#fff"/><stop offset=".78" stop-color="#fff" stop-opacity="0"/></linearGradient><linearGradient id="c" x1="81.384" x2="108.26" y1="193.94" y2="30.922" gradientUnits="userSpaceOnUse"><stop stop-color="#81FFFF"/><stop offset=".62" stop-color="#fff" stop-opacity="0"/></linearGradient><linearGradient id="d" x1="151.713" x2="83.45" y1="56.271" y2="117.851" gradientUnits="userSpaceOnUse"><stop offset=".289" stop-color="#fff"/><stop offset=".78" stop-color="#fff" stop-opacity="0"/></linearGradient><linearGradient id="e" x1="17.122" x2="171.607" y1="150.914" y2="150.914" gradientUnits="userSpaceOnUse"><stop stop-color="#0002E9"/><stop offset=".995" stop-color="#FF00C7"/></linearGradient><linearGradient id="f" x1="178.918" x2="93.487" y1="118.581" y2="197.959" gradientUnits="userSpaceOnUse"><stop offset=".289" stop-color="#fff"/><stop offset=".78" stop-color="#fff" stop-opacity="0"/></linearGradient><linearGradient id="g" x1="17.122" x2="99.77" y1="150.914" y2="150.914" gradientUnits="userSpaceOnUse"><stop stop-color="#000292"/><stop offset=".995" stop-color="#7D00C7"/></linearGradient><linearGradient id="n" x1="65.054" x2="75.102" y1="165.988" y2="165.988" gradientUnits="userSpaceOnUse"><stop offset=".289" stop-color="#fff"/><stop offset=".78" stop-color="#fff" stop-opacity="0"/></linearGradient><linearGradient id="i" x1="168.973" x2="157.609" y1="34.804" y2="52.958" gradientUnits="userSpaceOnUse"><stop offset=".289" stop-color="#fff"/><stop offset=".78" stop-color="#fff" stop-opacity="0"/></linearGradient><linearGradient id="j" x1="84.927" x2="91.08" y1="170.121" y2="170.121" gradientUnits="userSpaceOnUse"><stop offset=".289" stop-color="#fff"/><stop offset=".78" stop-color="#fff" stop-opacity="0"/></linearGradient><linearGradient id="k" x1="106.155" x2="112.307" y1="168.028" y2="168.028" gradientUnits="userSpaceOnUse"><stop offset=".289" stop-color="#fff"/><stop offset=".78" stop-color="#fff" stop-opacity="0"/></linearGradient><linearGradient id="l" x1="96.662" x2="101.282" y1="178.604" y2="178.604" gradientUnits="userSpaceOnUse"><stop offset=".289" stop-color="#fff"/><stop offset=".78" stop-color="#fff" stop-opacity="0"/></linearGradient><linearGradient id="m" x1="115.43" x2="120.049" y1="176.371" y2="176.371" gradientUnits="userSpaceOnUse"><stop offset=".289" stop-color="#fff"/><stop offset=".78" stop-color="#fff" stop-opacity="0"/></linearGradient><radialGradient id="b" cx="0" cy="0" r="1" gradientTransform="matrix(182.033 0 0 196.916 167.394 97.743)" gradientUnits="userSpaceOnUse"><stop stop-color="#FFEAFF" stop-opacity=".6"/><stop offset=".681" stop-color="#A087C9"/><stop offset="1" stop-color="#10002F"/></radialGradient><radialGradient id="a" cx="0" cy="0" r="1" gradientTransform="matrix(64.9971 0 0 66.1101 184.413 27.22)" gradientUnits="userSpaceOnUse"><stop stop-color="#FFEAFF" stop-opacity=".6"/><stop offset=".681" stop-color="#A087C9"/><stop offset="1" stop-color="#10002F"/></radialGradient></defs></svg>