<svg xmlns:xlink="http://www.w3.org/1999/xlink" xmlns="http://www.w3.org/2000/svg" viewBox="0 0 160 138.197" xml:space="preserve" width="864"  height="931" ><defs><linearGradient id="line-gradient" gradientUnits="objectBoundingBox" x1="0" y1="0" x2="1" y2="1">
							<stop offset="0" stop-color="#FFF"></stop>
							<stop offset="1" stop-color="#000"></stop>
						</linearGradient><linearGradient id="line-gradient" gradientUnits="objectBoundingBox" x1="0" y1="0" x2="1" y2="1">
							<stop offset="0" stop-color="#FFF"></stop>
							<stop offset="1" stop-color="#000"></stop>
						</linearGradient><linearGradient id="line-gradient" gradientUnits="objectBoundingBox" x1="0" y1="0" x2="1" y2="1">
							<stop offset="0" stop-color="#FFF"></stop>
							<stop offset="1" stop-color="#000"></stop>
						</linearGradient><linearGradient id="line-gradient" gradientUnits="objectBoundingBox" x1="0" y1="0" x2="1" y2="1">
							<stop offset="0" stop-color="#FFF"></stop>
							<stop offset="1" stop-color="#000"></stop>
						</linearGradient><linearGradient id="line-gradient" gradientUnits="objectBoundingBox" x1="0" y1="0" x2="1" y2="1">
							<stop offset="0" stop-color="#FFF"></stop>
							<stop offset="1" stop-color="#000"></stop>
						</linearGradient></defs>
					<path vector-effect="non-scaling-stroke" d="M42.761 135.092C18.437 124.134 1.5 99.672 1.5 71.284c0-38.628 31.36-69.988 69.988-69.988 22.331 0 42.233 10.48 55.038 26.802 4.183 5.895 6.98 18.255-3.672 30.82-5.963 7.035-19.732 15.266-39.27 24.228-15.155 6.855-30.08 15.03-39.622 24.674-3.57 3.607-5.925 7.665-7.141 11.529-1.782 5.653.147 12.912 5.94 15.743z" stroke="url(&quot;#line-gradient&quot;)" fill="none" stroke-width="2px"></path>
					<path vector-effect="non-scaling-stroke" d="m84.714 82.614.006.013c-.522 14.282-4.627 29.396-10.635 40.334-5.915 10.772-20.355 16.327-30.187 12.612l-1.137-.48c-5.793-2.832-7.722-10.091-5.94-15.744 1.216-3.864 3.571-7.922 7.14-11.529 9.543-9.644 24.468-17.819 39.624-24.674l1.129-.532z" stroke="url(&quot;#line-gradient&quot;)" fill="none" stroke-width="2px"></path>
					<path vector-effect="non-scaling-stroke" d="M142.605 83.417c9.402 4.411 15.93 14.216 15.895 25.57-.047 15.451-12.224 27.96-27.177 27.914-8.643-.026-16.335-4.241-21.272-10.785-1.612-2.363-2.68-7.31 1.459-12.324 2.316-2.807 7.655-6.083 15.23-9.645 5.875-2.724 11.662-5.977 15.367-9.823 1.386-1.44 2.303-3.059 2.779-4.603.696-2.26-.043-5.165-2.281-6.304z" stroke="url(&quot;#line-gradient&quot;)" fill="none" stroke-width="2px"></path>
					<path vector-effect="non-scaling-stroke" d="m126.302 104.358-.002-.004c.218-5.713 1.826-11.754 4.164-16.121 2.303-4.303 7.9-6.508 11.701-5.01l.44.194c2.238 1.139 2.977 4.044 2.28 6.304-.475 1.544-1.392 3.164-2.778 4.603-3.705 3.846-9.492 7.099-15.368 9.823l-.437.211z" stroke="url(&quot;#line-gradient&quot;)" fill="none" stroke-width="2px"></path>
				</svg>