<svg xmlns="http://www.w3.org/2000/svg" width="40" height="40" fill="none"><g clip-path="url(#a)"><path fill="url(#b)" d="M13.71.94C21.488.552 26.679 4.117 31.55 12.3c5.992 10.07 2.873 20.245-3.545 26.256 4.058-8.504 3.208-11.93-5.744-19.24C13.31 12.003 12.711 5.872 13.71.94Z"/><path fill="url(#c)" fill-rule="evenodd" d="M40 20.141c0 8.218-4.932 15.286-12.003 18.418 4.532-4.187 10.014-15.089 3.77-25.374C26.245 4.088 18.085 1.8 13.707.94 15.635.33 17.688 0 19.818 0 30.964 0 40 9.017 40 20.141Z" clip-rule="evenodd"/><path fill="url(#d)" d="M26.29 39.056c-5.315.927-11.712-2.417-17.84-11.36-6.623-9.668-2.873-20.245 3.545-26.257-4.058 8.505-3.208 11.93 5.744 19.242 8.951 7.31 9.55 13.442 8.551 18.375Z"/><path fill="url(#e)" fill-rule="evenodd" d="M0 19.855C0 11.637 4.932 4.569 12.002 1.437 7.472 5.624 1.99 16.526 8.233 26.81c5.522 9.096 13.682 11.384 18.06 12.245-1.928.61-3.981.94-6.111.94C9.036 39.996 0 30.979 0 19.855Z" clip-rule="evenodd"/></g><defs><linearGradient id="b" x1="13.723" x2="28.203" y1=".94" y2="38.57" gradientUnits="userSpaceOnUse"><stop stop-color="#3A447C"/><stop offset=".524" stop-color="#252945"/><stop offset="1" stop-color="#121114"/></linearGradient><linearGradient id="c" x1="13.71" x2="28.364" y1="1.034" y2="38.583" gradientUnits="userSpaceOnUse"><stop stop-color="#7387F6"/><stop offset=".474" stop-color="#4B548D"/><stop offset="1" stop-color="#1F1D23"/></linearGradient><linearGradient id="d" x1="26.276" x2="11.797" y1="39.056" y2="1.426" gradientUnits="userSpaceOnUse"><stop stop-color="#53347A"/><stop offset=".524" stop-color="#37244D"/><stop offset="1" stop-color="#16141B"/></linearGradient><linearGradient id="e" x1="26.29" x2="11.636" y1="38.962" y2="1.413" gradientUnits="userSpaceOnUse"><stop stop-color="#A868F5"/><stop offset=".474" stop-color="#684692"/><stop offset="1" stop-color="#25222A"/></linearGradient><clipPath id="a"><path fill="#fff" d="M0 0h40v40H0z"/></clipPath></defs></svg>