<svg xmlns="http://www.w3.org/2000/svg" xmlns:xlink="http://www.w3.org/1999/xlink" version="1.1" x="0" y="0" viewBox="0 0 540 296" xml:space="preserve" width="540"  height="296" ><defs><linearGradient id="logo-gradient-01" gradientUnits="userSpaceOnUse" x1="387.904" y1="142.844" x2="369.095" y2="156.559">
							<stop offset="0" stop-color="#c8c8c8"></stop>
							<stop offset="1" stop-color="#b8b8b8"></stop>
						</linearGradient><linearGradient id="logo-gradient-02" gradientUnits="userSpaceOnUse" x1="361.007" y1="163.451" x2="386.085" y2="148.561">
							<stop offset="0" stop-color="#6b6a6b"></stop>
							<stop offset="1" stop-color="#6b6a6b"></stop>
						</linearGradient><linearGradient id="logo-gradient-03" gradientUnits="userSpaceOnUse" x1="338.5" y1="173.082" x2="374.157" y2="158.192">
							<stop offset=".005" stop-color="#030303"></stop>
							<stop offset="1" stop-color="#494949"></stop>
						</linearGradient><linearGradient id="logo-gradient-04" gradientUnits="userSpaceOnUse" x1="323.943" y1="165.476" x2="364.542" y2="178.683">
							<stop offset="0" stop-color="#686868"></stop>
							<stop offset="1" stop-color="#282828"></stop>
						</linearGradient><linearGradient id="logo-gradient-05" gradientUnits="userSpaceOnUse" x1="364.941" y1="146.623" x2="368.821" y2="156.937">
							<stop offset="0" stop-color="#f0eff0"></stop>
							<stop offset="1" stop-color="#dcdbdc"></stop>
						</linearGradient><linearGradient id="logo-gradient-06" gradientUnits="userSpaceOnUse" x1="352.432" y1="123.166" x2="365.571" y2="138.729">
							<stop offset="0" stop-color="#c4c4c4"></stop>
							<stop offset=".995" stop-color="#8e8e8e"></stop>
						</linearGradient><linearGradient id="logo-gradient-07" gradientUnits="userSpaceOnUse" x1="169.936" y1="133.549" x2="348.535" y2="31.14">
							<stop offset="0" stop-color="#bcbcbc"></stop>
							<stop offset=".995" stop-color="#989898"></stop>
						</linearGradient><linearGradient id="logo-gradient-08" gradientUnits="userSpaceOnUse" x1="183.704" y1="102.323" x2="346.797" y2="66.018">
							<stop offset="0" stop-color="#c8c8c8"></stop>
							<stop offset="1" stop-color="#b8b8b8"></stop>
						</linearGradient><linearGradient id="logo-gradient-09" gradientUnits="userSpaceOnUse" x1="190.636" y1="114.256" x2="259.022" y2="114.256">
							<stop offset="0" stop-color="#919191"></stop>
							<stop offset="1" stop-color="#323232"></stop>
						</linearGradient><linearGradient id="logo-gradient-10" gradientUnits="userSpaceOnUse" x1="211.349" y1="123.913" x2="336.656" y2="78.749">
							<stop offset=".005" stop-color="#030303"></stop>
							<stop offset="1" stop-color="#494949"></stop>
						</linearGradient><linearGradient id="logo-gradient-11" gradientUnits="userSpaceOnUse" x1="277.104" y1="175.806" x2="245.416" y2="138.915">
							<stop offset="0" stop-color="#c4c4c4"></stop>
							<stop offset=".995" stop-color="#8e8e8e"></stop>
						</linearGradient><linearGradient id="logo-gradient-12" gradientUnits="userSpaceOnUse" x1="338.735" y1="83.838" x2="285.321" y2="87.884">
							<stop offset="0" stop-color="#919191"></stop>
							<stop offset="1" stop-color="#323232"></stop>
						</linearGradient><linearGradient id="logo-gradient-13" gradientUnits="userSpaceOnUse" x1="289.836" y1="79.03" x2="300.186" y2="105.94">
							<stop offset="0" stop-color="#f0eff0"></stop>
							<stop offset="1" stop-color="#dcdbdc"></stop>
						</linearGradient><linearGradient id="logo-gradient-01" gradientUnits="userSpaceOnUse" x1="387.904" y1="142.844" x2="369.095" y2="156.559">
							<stop offset="0" stop-color="#c8c8c8"></stop>
							<stop offset="1" stop-color="#b8b8b8"></stop>
						</linearGradient><linearGradient id="logo-gradient-02" gradientUnits="userSpaceOnUse" x1="361.007" y1="163.451" x2="386.085" y2="148.561">
							<stop offset="0" stop-color="#6b6a6b"></stop>
							<stop offset="1" stop-color="#6b6a6b"></stop>
						</linearGradient><linearGradient id="logo-gradient-03" gradientUnits="userSpaceOnUse" x1="338.5" y1="173.082" x2="374.157" y2="158.192">
							<stop offset=".005" stop-color="#030303"></stop>
							<stop offset="1" stop-color="#494949"></stop>
						</linearGradient><linearGradient id="logo-gradient-04" gradientUnits="userSpaceOnUse" x1="323.943" y1="165.476" x2="364.542" y2="178.683">
							<stop offset="0" stop-color="#686868"></stop>
							<stop offset="1" stop-color="#282828"></stop>
						</linearGradient><linearGradient id="logo-gradient-05" gradientUnits="userSpaceOnUse" x1="364.941" y1="146.623" x2="368.821" y2="156.937">
							<stop offset="0" stop-color="#f0eff0"></stop>
							<stop offset="1" stop-color="#dcdbdc"></stop>
						</linearGradient><linearGradient id="logo-gradient-06" gradientUnits="userSpaceOnUse" x1="352.432" y1="123.166" x2="365.571" y2="138.729">
							<stop offset="0" stop-color="#c4c4c4"></stop>
							<stop offset=".995" stop-color="#8e8e8e"></stop>
						</linearGradient><linearGradient id="logo-gradient-07" gradientUnits="userSpaceOnUse" x1="169.936" y1="133.549" x2="348.535" y2="31.14">
							<stop offset="0" stop-color="#bcbcbc"></stop>
							<stop offset=".995" stop-color="#989898"></stop>
						</linearGradient><linearGradient id="logo-gradient-08" gradientUnits="userSpaceOnUse" x1="183.704" y1="102.323" x2="346.797" y2="66.018">
							<stop offset="0" stop-color="#c8c8c8"></stop>
							<stop offset="1" stop-color="#b8b8b8"></stop>
						</linearGradient><linearGradient id="logo-gradient-09" gradientUnits="userSpaceOnUse" x1="190.636" y1="114.256" x2="259.022" y2="114.256">
							<stop offset="0" stop-color="#919191"></stop>
							<stop offset="1" stop-color="#323232"></stop>
						</linearGradient><linearGradient id="logo-gradient-10" gradientUnits="userSpaceOnUse" x1="211.349" y1="123.913" x2="336.656" y2="78.749">
							<stop offset=".005" stop-color="#030303"></stop>
							<stop offset="1" stop-color="#494949"></stop>
						</linearGradient><linearGradient id="logo-gradient-11" gradientUnits="userSpaceOnUse" x1="277.104" y1="175.806" x2="245.416" y2="138.915">
							<stop offset="0" stop-color="#c4c4c4"></stop>
							<stop offset=".995" stop-color="#8e8e8e"></stop>
						</linearGradient><linearGradient id="logo-gradient-12" gradientUnits="userSpaceOnUse" x1="338.735" y1="83.838" x2="285.321" y2="87.884">
							<stop offset="0" stop-color="#919191"></stop>
							<stop offset="1" stop-color="#323232"></stop>
						</linearGradient><linearGradient id="logo-gradient-13" gradientUnits="userSpaceOnUse" x1="289.836" y1="79.03" x2="300.186" y2="105.94">
							<stop offset="0" stop-color="#f0eff0"></stop>
							<stop offset="1" stop-color="#dcdbdc"></stop>
						</linearGradient></defs>
									<g class="logo-icon">
										<g fill-rule="evenodd" clip-rule="evenodd">
											<path d="M371.512 117.413c13.448 6.26 22.812 20.234 22.812 36.45 0 22.067-17.338 39.983-38.693 39.983-12.345 0-23.348-5.988-30.427-15.312-2.312-3.368-3.859-10.427 2.03-17.606 3.297-4.018 10.909-8.721 21.71-13.841 8.379-3.916 16.63-8.586 21.905-14.095 1.973-2.06 3.275-4.378 3.948-6.585.985-3.23-.082-7.377-3.285-8.994z" fill="#949494"></path>
											<path d="M374.064 128.32c11.374 7.452 12.303 18.894 12.73 25.612.453 7.13-4.414 27.955-25.917 31.237-21.056 3.213-30.767-12.632-34.039-23.745.128-.165.26-.33.397-.496 3.296-4.018 10.908-8.721 21.709-13.841 8.379-3.916 16.63-8.586 21.905-14.095a17.295 17.295 0 0 0 3.215-4.673z" fill="url(&quot;#logo-gradient-01&quot;)"></path>
											<path d="M361.26 140.512c.45.745.876 1.408 1.322 1.915 8.842 10.047 13.738 1.153 19.232 6.752 2.799 2.853 4.312 5.046 4.84 8.341-1.038 8.878-7.196 24.812-25.777 27.649-21.056 3.213-30.767-12.632-34.039-23.745.128-.165.26-.33.397-.496 3.296-4.018 10.908-8.721 21.709-13.841 4.263-1.992 8.493-4.18 12.315-6.575z" fill="url(&quot;#logo-gradient-02&quot;)"></path>
											<path d="M358.032 142.435c4.047 2.37 8.35 6.168 12.464 13.648 3.57 6.49 7.922 10.375 12.884 12.466-3.582 7.383-10.413 14.774-22.503 16.62-21.056 3.213-30.767-12.632-34.039-23.745.128-.165.26-.33.397-.496 3.296-4.018 10.908-8.721 21.709-13.841 3.094-1.446 6.171-2.995 9.088-4.652z" fill="url(&quot;#logo-gradient-03&quot;)"></path>
											<path d="M331.907 156.707c3.596 2.77 4.106 5.657 5.543 12.39 1.572 7.371 14.493 20.202 32.613 13.23-2.658 1.319-5.704 2.31-9.186 2.842-21.056 3.213-30.767-12.632-34.039-23.745.128-.165.26-.33.397-.496 1.095-1.335 2.666-2.745 4.672-4.221z" fill="url(&quot;#logo-gradient-04&quot;)"></path>
											<path d="M356.268 145.687c3.516-2.158 4.751-.303 5.358.405.606.708-.758 4.852-3.589 6.268-2.83 1.415-5.105.859-5.914 0-.809-.86 1.264-4.903 4.145-6.673z" fill="#F1F0F1"></path>
											<path d="M364.709 146.9c1.713-1.383 4.7 2.275 5.156 5.46.455 3.184-.96 4.6-2.123 4.903-1.162.303-3.178-2.62-3.69-5.763-.354-2.173-.657-3.538.657-4.6z" fill="url(&quot;#logo-gradient-05&quot;)"></path>
											<path class="logo-color-right" d="m348.32 147.39-.004-.006c.289-8.159 2.558-16.793 5.88-23.041 3.27-6.154 11.252-9.328 16.688-7.205l.628.275c3.203 1.617 4.27 5.764 3.285 8.994-.673 2.207-1.975 4.524-3.948 6.585-5.275 5.51-13.526 10.18-21.905 14.095l-.624.304z" fill="url(&quot;#logo-gradient-06&quot;)"></path>
											<path d="M228.956 191.162C194.2 175.505 170 140.552 170 99.992c0-55.192 44.809-100 100-100 31.906 0 60.343 14.975 78.64 38.297 5.975 8.422 9.972 26.081-5.247 44.035-8.52 10.051-28.193 21.813-56.109 34.618-21.655 9.794-42.979 21.474-56.614 35.254-5.1 5.153-8.464 10.952-10.203 16.471-2.545 8.077.21 18.45 8.49 22.495z" fill="url(&quot;#logo-gradient-07&quot;)"></path>
											<path d="M221.907 164.87c-10.544-7.15-18.467-18.026-27.04-38.528-12.284-29.374-3.427-104.777 72.364-112.954 34.5-3.721 71.238 26.308 80.248 63.444a52.367 52.367 0 0 1-4.086 5.492c-8.52 10.051-28.193 21.813-56.109 34.618-21.655 9.794-42.979 21.474-56.614 35.254-3.94 3.982-6.845 8.349-8.763 12.674z" fill="url(&quot;#logo-gradient-08&quot;)"></path>
											<path d="M190.913 110.34c3.688-16.409 12.648-32.237 32.259-40.875 4.778-2.106 29.025-8.418 47.426-4.645 17.865 3.663 17.777 15.889 34.471 15.937 12.076.036 20.361-.581 24.463 1.653 2.628 1.432 5.37 3.46 7.957 5.705-10.233 8.678-27.49 18.407-50.205 28.827-21.655 9.794-42.979 21.474-56.614 35.254-3.94 3.982-6.845 8.349-8.763 12.674-10.544-7.15-18.467-18.026-27.04-38.528-1.85-4.421-3.219-9.884-3.954-16.002z" fill="url(&quot;#logo-gradient-09&quot;)"></path>
											<path d="M277.064 66.773c11.694 4.855 13.617 13.942 28.005 13.984 12.076.036 20.361-.581 24.463 1.653 2.628 1.432 5.37 3.46 7.957 5.705-10.233 8.678-27.49 18.407-50.205 28.827-21.655 9.794-42.979 21.474-56.614 35.254a45.648 45.648 0 0 0-3.394 3.834c-8.955-13.137-18.385-36.34-5.914-57.471 13.18-22.333 32.413-31.28 55.702-31.786z" fill="url(&quot;#logo-gradient-10&quot;)"></path>
											<path class="logo-color-left" d="m288.897 116.181.01.018c-.747 20.408-6.612 42.001-15.195 57.63-8.453 15.392-29.084 23.329-43.133 18.02l-1.623-.687c-8.278-4.046-11.034-14.418-8.49-22.495 1.74-5.52 5.105-11.318 10.204-16.471 13.635-13.78 34.959-25.46 56.614-35.254l1.613-.76z" fill="url(&quot;#logo-gradient-11&quot;)"></path>
											<path d="M257.09 94.903c-3.945-5.92 2.137-14.425 8.762-17.31 6.625-2.885 12.93-3.099 16.028 0 3.098 3.099 1.71 12.394-7.48 17.31-9.19 4.915-14.318 4.487-17.31 0z" fill="#F1F0F1"></path>
											<path d="M278.106 67.228c10.78 4.943 13.012 13.488 26.963 13.53 12.076.035 20.361-.582 24.463 1.652 2.628 1.432 5.37 3.46 7.957 5.705-7.06 5.988-17.465 12.476-30.7 19.346-9.163-17.153-19.376-25.35-28.683-40.233z" fill="url(&quot;#logo-gradient-12&quot;)"></path>
											<path d="M290.321 80.799c3.843-1.398 9.082 2.243 11.753 8.654 2.672 6.412 3.28 14.308-4.808 16.562-6.518 1.817-8.655-8.655-9.296-13.25-.64-4.594-1.175-10.684 2.351-11.966z" fill="url(&quot;#logo-gradient-13&quot;)"></path>
										</g>
									</g>
									<g class="logo-text">
										<path d="m33.33 296.008-5.275-4.988c-1.47 1.216-3.15 2.15-5.035 2.805-1.887.656-3.901.984-6.043.984-3.293 0-6.227-.735-8.8-2.206-2.574-1.47-4.58-3.525-6.019-6.163S0 280.79 0 277.4s.72-6.402 2.158-9.04c1.439-2.638 3.445-4.692 6.019-6.162 2.573-1.47 5.507-2.206 8.8-2.206 3.293 0 6.226.736 8.8 2.206 2.573 1.47 4.58 3.524 6.02 6.163 1.438 2.637 2.157 5.65 2.157 9.04 0 2.27-.336 4.387-1.007 6.353-.671 1.967-1.63 3.702-2.877 5.204l5.323 5.035-2.063 2.015zm-9.063-5.803c2.141-1.247 3.812-2.981 5.011-5.204 1.199-2.222 1.799-4.754 1.799-7.6s-.6-5.38-1.799-7.602c-1.199-2.222-2.87-3.957-5.011-5.204-2.143-1.247-4.573-1.87-7.29-1.87-2.75 0-5.196.623-7.338 1.87-2.142 1.247-3.812 2.982-5.011 5.204-1.199 2.222-1.798 4.756-1.798 7.601 0 2.847.6 5.38 1.798 7.601 1.199 2.223 2.87 3.957 5.011 5.204 2.142 1.246 4.588 1.87 7.338 1.87 2.717 0 5.147-.624 7.29-1.87zM70.21 293.058c-2.014-1.134-3.581-2.733-4.7-4.795-1.12-2.063-1.679-4.452-1.679-7.17v-20.478h2.83v20.478c0 2.142.439 4.045 1.319 5.707.879 1.663 2.117 2.949 3.716 3.86 1.599.911 3.421 1.367 5.468 1.367 2.077 0 3.916-.456 5.515-1.367 1.598-.911 2.837-2.197 3.716-3.86.88-1.662 1.32-3.565 1.32-5.707v-20.478h2.829v20.478c0 2.718-.56 5.107-1.679 7.17-1.12 2.062-2.685 3.66-4.7 4.795-2.014 1.135-4.348 1.703-7.001 1.703-2.622 0-4.94-.568-6.954-1.703zM122.58 260.615h2.83v33.57h-2.83v-33.57zM163.966 292.603c-2.622-1.47-4.66-3.532-6.114-6.187-1.456-2.653-2.183-5.66-2.183-9.016 0-3.357.727-6.362 2.183-9.016 1.454-2.653 3.492-4.716 6.114-6.186 2.622-1.47 5.611-2.206 8.968-2.206 2.334 0 4.532.431 6.594 1.295a15.78 15.78 0 0 1 5.444 3.788l-1.967 1.823a13.091 13.091 0 0 0-4.531-3.117c-1.711-.704-3.542-1.056-5.492-1.056-2.814 0-5.316.617-7.505 1.847-2.19 1.23-3.901 2.965-5.131 5.203-1.232 2.239-1.847 4.78-1.847 7.625 0 2.847.615 5.388 1.847 7.626 1.23 2.238 2.94 3.973 5.13 5.203 2.19 1.231 4.692 1.846 7.506 1.846a14.539 14.539 0 0 0 10.263-4.172l1.918 1.918a16.83 16.83 0 0 1-5.539 3.693c-2.094.864-4.324 1.295-6.69 1.295-3.357 0-6.346-.735-8.968-2.206zM239.212 294.185h-3.98l-17.313-16.497v16.497h-2.878v-33.57h2.878v15.25l15.97-15.25h3.884l-16.929 16.114 18.368 17.456zM269.688 293.154c-2.478-1.07-4.468-2.5-5.97-4.292l1.774-2.014c1.183 1.535 2.878 2.79 5.084 3.764a16.78 16.78 0 0 0 6.858 1.463c3.196 0 5.722-.591 7.577-1.774 1.854-1.182 2.781-2.797 2.781-4.844 0-1.278-.335-2.333-1.007-3.165-.67-.83-1.774-1.55-3.309-2.159-1.534-.607-3.677-1.166-6.426-1.678-3.038-.543-5.467-1.222-7.29-2.038-1.822-.815-3.15-1.823-3.98-3.02-.832-1.2-1.247-2.695-1.247-4.485 0-1.727.528-3.261 1.583-4.605 1.054-1.342 2.541-2.389 4.46-3.14 1.918-.752 4.124-1.127 6.618-1.127 2.398 0 4.628.4 6.69 1.199 2.062.799 3.828 1.95 5.3 3.453l-1.631 2.014c-1.28-1.31-2.822-2.318-4.628-3.022-1.807-.702-3.733-1.055-5.779-1.055-2.942 0-5.308.584-7.098 1.75-1.79 1.169-2.685 2.695-2.685 4.58 0 1.216.327 2.248.983 3.094.654.847 1.71 1.567 3.165 2.158 1.454.592 3.445 1.127 5.97 1.607 3.325.608 5.94 1.311 7.842 2.11 1.902.8 3.268 1.79 4.1 2.973.831 1.184 1.247 2.67 1.247 4.46 0 1.887-.536 3.542-1.607 4.964-1.071 1.423-2.606 2.518-4.604 3.285-1.998.768-4.34 1.151-7.025 1.151-2.686 0-5.268-.536-7.746-1.607zM320.547 260.615h2.83v33.57h-2.83v-33.57zM355.796 260.615h2.83v30.836h18.895v2.734h-21.725v-33.57zM426.341 260.615h3.07l-13.813 33.57h-3.213l-13.86-33.57h3.07l12.42 30.262 12.326-30.262zM461.302 291.451h21.1v2.734h-23.93v-33.57h23.355v2.686h-20.525v12.565h19.614v2.685h-19.614v12.9zM524.845 281.62h-9.112v12.565h-2.83v-33.57h14.771c2.207 0 4.15.44 5.827 1.319 1.68.88 2.982 2.11 3.909 3.693.927 1.582 1.39 3.413 1.39 5.49 0 3.006-.934 5.468-2.805 7.386s-4.372 2.958-7.505 3.117L540 294.185h-3.693l-11.462-12.565zm-9.112-18.272v15.54h11.99c2.525 0 4.531-.704 6.018-2.111 1.487-1.407 2.23-3.293 2.23-5.66 0-2.365-.743-4.251-2.23-5.658s-3.493-2.11-6.018-2.11h-11.99z"></path>
									</g>
								</svg>