 <svg width="41" height="42" viewBox="0 0 41 42" fill="none" xmlns="http://www.w3.org/2000/svg">
                      <g clip-path="url(#clip0_50_1675)">
                        <path d="M20.5 41.5C31.8218 41.5 41 32.3218 41 21C41 9.67816 31.8218 0.5 20.5 0.5C9.17816 0.5 0 9.67816 0 21C0 32.3218 9.17816 41.5 20.5 41.5Z" fill="#2E3148" />
                        <path
                          d="M20.4996 32.8951C27.069 32.8951 32.3947 27.5695 32.3947 21.0001C32.3947 14.4306 27.069 9.10498 20.4996 9.10498C13.9301 9.10498 8.60449 14.4306 8.60449 21.0001C8.60449 27.5695 13.9301 32.8951 20.4996 32.8951Z"
                          fill="#1B1E36"
                        />
                        <path
                          d="M20.5421 3.11523C18.3292 3.11523 16.5349 11.1414 16.5349 21.0422C16.5349 30.9431 18.3292 38.9692 20.5421 38.9692C22.7549 38.9692 24.5493 30.9431 24.5493 21.0422C24.5493 11.1414 22.7549 3.11523 20.5421 3.11523ZM20.8188 37.9575C20.5657 38.295 20.3127 38.0418 20.3127 38.0418C19.2936 36.861 18.784 34.6674 18.784 34.6674C17.0015 28.9308 17.4258 16.6139 17.4258 16.6139C18.2635 6.83557 19.7874 4.52563 20.3059 4.01281C20.3589 3.96047 20.4286 3.92848 20.5028 3.92248C20.577 3.91648 20.651 3.93685 20.7117 3.98001C21.4641 4.51317 22.0952 6.74292 22.0952 6.74292C23.9587 13.6606 23.7899 20.1565 23.7899 20.1565C23.9587 25.8087 22.8561 32.1359 22.8561 32.1359C22.0074 36.9443 20.8188 37.9575 20.8188 37.9575Z"
                          fill="#6F7390"
                        />
                        <path
                          d="M36.0914 12.1209C34.9896 10.2008 27.1355 12.6388 18.5434 17.5657C9.95127 22.4926 3.89049 28.0435 4.99142 29.9628C6.09235 31.882 13.9473 29.4448 22.5394 24.518C31.1315 19.5911 37.1923 14.0402 36.0914 12.1209ZM6.00789 29.6994C5.58608 29.6462 5.68137 29.2995 5.68137 29.2995C6.19879 27.8283 7.84535 26.2946 7.84535 26.2946C11.936 21.8935 22.8315 16.1323 22.8315 16.1323C31.7292 11.9926 34.4929 12.1673 35.194 12.3603C35.2659 12.3804 35.3285 12.4253 35.3705 12.4871C35.4125 12.5489 35.4313 12.6235 35.4236 12.6978C35.3393 13.6162 33.7152 15.2726 33.7152 15.2726C28.6456 20.3335 22.9268 23.4203 22.9268 23.4203C18.108 26.3805 12.0711 28.5714 12.0711 28.5714C7.47766 30.2266 6.00806 29.6994 6.00806 29.6994H6.00789Z"
                          fill="#6F7390"
                        />
                        <path
                          d="M36.0532 30.0269C37.1635 28.1118 31.118 22.5355 22.556 17.5716C13.9941 12.6076 6.14094 10.1394 5.03164 12.0577C3.92235 13.976 9.96689 19.5491 18.5338 24.513C27.1006 29.477 34.9439 31.9453 36.0532 30.0269ZM5.76735 12.7977C5.60335 12.4088 5.94955 12.3152 5.94955 12.3152C7.48229 12.0257 9.63529 12.6854 9.63529 12.6854C15.4925 14.0192 25.9369 20.5615 25.9369 20.5615C33.9783 26.1885 35.2116 28.667 35.3964 29.3705C35.4152 29.4427 35.4079 29.5192 35.3758 29.5865C35.3437 29.6538 35.2888 29.7076 35.2209 29.7384C34.3824 30.1223 32.1366 29.5503 32.1366 29.5503C25.2146 27.6943 19.6788 24.2938 19.6788 24.2938C14.7049 21.6111 9.78649 17.4832 9.78649 17.4832C6.04926 14.3365 5.76849 12.802 5.76849 12.802L5.76735 12.7977Z"
                          fill="#6F7390"
                        />
                        <path
                          d="M20.4997 23.1092C21.6645 23.1092 22.6087 22.1649 22.6087 21.0002C22.6087 19.8354 21.6645 18.8911 20.4997 18.8911C19.3349 18.8911 18.3906 19.8354 18.3906 21.0002C18.3906 22.1649 19.3349 23.1092 20.4997 23.1092Z"
                          fill="#B7B9C8"
                        />
                        <path
                          d="M29.1471 14.1666C29.8227 14.1666 30.3704 13.6 30.3704 12.9012C30.3704 12.2023 29.8227 11.6357 29.1471 11.6357C28.4715 11.6357 27.9238 12.2023 27.9238 12.9012C27.9238 13.6 28.4715 14.1666 29.1471 14.1666Z"
                          fill="#B7B9C8"
                        />
                        <path
                          d="M9.06898 18.4691C9.74457 18.4691 10.2923 17.9025 10.2923 17.2037C10.2923 16.5048 9.74457 15.9382 9.06898 15.9382C8.39338 15.9382 7.8457 16.5048 7.8457 17.2037C7.8457 17.9025 8.39338 18.4691 9.06898 18.4691Z"
                          fill="#B7B9C8"
                        />
                        <path
                          d="M18.0114 33.9918C18.687 33.9918 19.2346 33.4252 19.2346 32.7264C19.2346 32.0275 18.687 31.4609 18.0114 31.4609C17.3358 31.4609 16.7881 32.0275 16.7881 32.7264C16.7881 33.4252 17.3358 33.9918 18.0114 33.9918Z"
                          fill="#B7B9C8"
                        />
                      </g>
                      <defs>
                        <clipPath id="clip0_50_1675">
                          <rect width="41" height="41" fill="white" transform="translate(0 0.5)" />
                        </clipPath>
                      </defs>
                    </svg>