<svg width="41" height="40" viewBox="0 0 41 40" fill="none" xmlns="http://www.w3.org/2000/svg">
<path d="M20.2645 39.8013C31.2554 39.8013 40.1653 30.8914 40.1653 19.9005C40.1653 8.90963 31.2554 -0.000244141 20.2645 -0.000244141C9.27364 -0.000244141 0.36377 8.90963 0.36377 19.9005C0.36377 30.8914 9.27364 39.8013 20.2645 39.8013Z" fill="#ED4E33"/>
<path d="M16.6768 10.6578C11.2478 12.7453 10.7505 18.0913 9.19376 20.588C7.61861 23.1144 4.01001 24.5083 4.50348 25.7959C4.99692 27.0832 8.60983 25.7004 11.4682 26.5219C14.2926 27.3336 18.2335 30.9735 23.6625 28.886C26.4281 27.8226 28.4308 25.6338 29.3518 23.0414C29.4508 22.7631 29.2656 22.4655 28.9718 22.438C28.7892 22.4208 28.6139 22.5166 28.5316 22.6806C27.6986 24.3425 26.2696 25.7112 24.3995 26.43C21.3122 27.6171 17.9342 26.6851 15.8596 24.3477C15.3884 23.8169 14.9854 23.2127 14.6673 22.5449C14.5799 22.3611 14.4967 22.1743 14.423 21.9811C14.3488 21.7879 14.2858 21.5933 14.2279 21.3979C15.8596 20.6361 17.7426 19.8292 19.8772 19.0086C21.9703 18.2038 23.8751 17.5511 25.5712 17.0289C26.7186 16.6759 27.7701 16.3822 28.7196 16.1421C28.7884 16.1249 28.8561 16.1078 28.9233 16.091C29.067 16.0554 29.2145 16.1322 29.2676 16.2705L29.2686 16.2731C29.2999 16.3551 29.3269 16.4376 29.3559 16.52C29.5437 17.0521 29.6845 17.5897 29.7774 18.1287C29.8182 18.3644 30.0755 18.4928 30.2864 18.3795C31.0658 17.9603 31.7787 17.5515 32.4157 17.1581C34.7898 15.6938 36.1059 14.4519 35.8358 13.748C35.5661 13.0438 33.7585 13.0034 31.016 13.5058C30.1445 13.6656 29.1781 13.8803 28.1368 14.1461C27.9567 14.1921 27.7745 14.2397 27.59 14.2887C26.7137 14.5214 25.7894 14.7881 24.8269 15.0866C23.037 15.6418 21.1167 16.307 19.1343 17.0693C17.2796 17.7825 15.5218 18.522 13.9098 19.2589C13.8901 16.1314 15.7777 13.1747 18.865 11.9878C20.7347 11.2689 22.7111 11.3278 24.4406 12.005C24.6112 12.072 24.8055 12.0256 24.9302 11.8903C25.13 11.6734 25.0687 11.3282 24.8093 11.1873C22.393 9.87885 19.4425 9.59457 16.6768 10.6578Z" fill="white"/>
</svg>
