<svg width="32" height="32" viewBox="0 0 32 32" fill="none" xmlns="http://www.w3.org/2000/svg">
<path d="M7.92 9.02078C8.05248 8.85427 8.19286 8.69406 8.33323 8.53384C8.33952 8.5259 8.35377 8.5243 8.36006 8.51635C8.3727 8.50051 8.39323 8.49096 8.40582 8.47507L8.41846 8.45923C8.51632 8.36878 8.62043 8.27032 8.74048 8.18456C9.16523 7.86211 9.60603 7.61715 10.0708 7.45598C11.5617 6.93256 13.2212 7.25512 14.5226 8.48371C16.3397 10.187 16.177 12.931 14.7264 14.7547C12.8934 17.4736 9.74331 21.2668 14.1049 24.6648C14.8891 25.2758 15.4708 25.7795 17.9411 26.4934C16.3255 26.791 14.8275 26.6984 13.1601 26.2725C11.9806 25.6068 10.1264 24.1814 9.49547 22.2562C8.54198 19.3369 11.1742 14.9726 12.4463 13.2918C14.1929 10.9655 11.3668 8.44728 9.28614 11.2586C8.19856 12.7238 6.29584 16.8697 6.95707 19.945C7.34368 21.689 7.85899 22.9602 9.90219 24.7064C9.52331 24.4829 9.15537 24.2293 8.79846 23.9455C4.0512 19.5234 4.60197 12.6861 7.92 9.02078Z" fill="url(#paint0_linear_523_8870)"/>
<path d="M24.0801 22.9782C23.9477 23.1447 23.8073 23.3049 23.6669 23.4651C23.6606 23.473 23.6464 23.4746 23.6401 23.4826C23.6275 23.4984 23.6069 23.508 23.5943 23.5239L23.5817 23.5397C23.4838 23.6302 23.3797 23.7286 23.2597 23.8144C22.8349 24.1368 22.3941 24.3818 21.9293 24.543C20.4385 25.0664 18.779 24.7438 17.4776 23.5152C15.6605 21.8119 15.8232 19.068 17.2737 17.2442C19.1068 14.5254 22.2568 10.7321 17.8953 7.33417C17.1111 6.72318 16.5293 6.21945 14.0591 5.50558C15.6747 5.20796 17.1727 5.30054 18.84 5.72643C20.0195 6.39214 21.8738 7.81753 22.5047 9.7427C23.4582 12.6621 20.826 17.0263 19.5539 18.7072C17.8073 21.0334 20.6334 23.5517 22.714 20.7403C23.8016 19.2752 25.7043 15.1292 25.0431 12.0539C24.6565 10.31 24.1412 9.03875 22.098 7.29251C22.4768 7.51609 22.8448 7.76969 23.2017 8.05342C27.9489 12.4755 27.3982 19.3129 24.0801 22.9782Z" fill="url(#paint1_linear_523_8870)"/>
<defs>
<linearGradient id="paint0_linear_523_8870" x1="5.3335" y1="16.0002" x2="26.6668" y2="16.0002" gradientUnits="userSpaceOnUse">
<stop stop-color="#0082FA"/>
<stop offset="1" stop-color="#00F2FE"/>
</linearGradient>
<linearGradient id="paint1_linear_523_8870" x1="5.33332" y1="15.9987" x2="26.6667" y2="15.9987" gradientUnits="userSpaceOnUse">
<stop stop-color="#0082FA"/>
<stop offset="1" stop-color="#00F2FE"/>
</linearGradient>
</defs>
</svg>
