<svg width="14" height="15" viewBox="0 0 14 15" fill="none" xmlns="http://www.w3.org/2000/svg">
<g clip-path="url(#clip0_466_28920)">
<path d="M7 14.5C10.866 14.5 14 11.366 14 7.5C14 3.63401 10.866 0.5 7 0.5C3.13401 0.5 0 3.63401 0 7.5C0 11.366 3.13401 14.5 7 14.5Z" fill="#0000FF"/>
<path d="M9.97529 9.3375H8.22529L6.43154 6.93125V9.3375H4.98779V4.21875H6.43154V6.49375L8.13779 4.21875H9.66904L7.91904 6.625L9.97529 9.3375Z" fill="white"/>
<path d="M5.64394 11.5242C6.07887 11.5242 6.43145 11.1716 6.43145 10.7367C6.43145 10.3018 6.07887 9.94922 5.64394 9.94922C5.20902 9.94922 4.85645 10.3018 4.85645 10.7367C4.85645 11.1716 5.20902 11.5242 5.64394 11.5242Z" fill="white"/>
</g>
<defs>
<clipPath id="clip0_466_28920">
<rect width="14" height="14" fill="white" transform="translate(0 0.5)"/>
</clipPath>
</defs>
</svg>
