<svg width="27" height="28" viewBox="0 0 27 28" fill="none" xmlns="http://www.w3.org/2000/svg">
<g clip-path="url(#clip0_50_1604)">
<path d="M13.5 27.5C20.9558 27.5 27 21.4558 27 14C27 6.54416 20.9558 0.5 13.5 0.5C6.04416 0.5 0 6.54416 0 14C0 21.4558 6.04416 27.5 13.5 27.5Z" fill="#2E3148"/>
<path d="M13.5001 21.8332C17.8263 21.8332 21.3334 18.3261 21.3334 13.9999C21.3334 9.67361 17.8263 6.1665 13.5001 6.1665C9.17386 6.1665 5.66675 9.67361 5.66675 13.9999C5.66675 18.3261 9.17386 21.8332 13.5001 21.8332Z" fill="#1B1E36"/>
<path d="M13.5278 2.22217C12.0705 2.22217 10.8889 7.50769 10.8889 14.0278C10.8889 20.5478 12.0705 25.8333 13.5278 25.8333C14.985 25.8333 16.1667 20.5478 16.1667 14.0278C16.1667 7.50769 14.985 2.22217 13.5278 2.22217ZM13.71 25.1671C13.5433 25.3894 13.3767 25.2226 13.3767 25.2226C12.7056 24.445 12.37 23.0004 12.37 23.0004C11.1962 19.2227 11.4756 11.1115 11.4756 11.1115C12.0272 4.67215 13.0308 3.15097 13.3723 2.81325C13.4071 2.77878 13.4531 2.75772 13.5019 2.75377C13.5508 2.74982 13.5995 2.76323 13.6395 2.79165C14.135 3.14276 14.5505 4.61113 14.5505 4.61113C15.7778 9.16668 15.6666 13.4444 15.6666 13.4444C15.7778 17.1667 15.0517 21.3333 15.0517 21.3333C14.4928 24.4999 13.71 25.1671 13.71 25.1671Z" fill="#6F7390"/>
<path d="M23.7676 8.15272C23.0421 6.88825 17.8699 8.49378 12.2116 11.7383C6.55342 14.9829 2.56217 18.6383 3.28718 19.9023C4.01218 21.1662 9.18495 19.5612 14.8432 16.3167C20.5014 13.0721 24.4927 9.41664 23.7676 8.15272ZM3.95656 19.7288C3.67878 19.6938 3.74153 19.4655 3.74153 19.4655C4.08227 18.4966 5.16659 17.4866 5.16659 17.4866C7.86044 14.5883 15.0355 10.7944 15.0355 10.7944C20.895 8.06826 22.715 8.18328 23.1767 8.3104C23.2241 8.32363 23.2652 8.3532 23.2929 8.39388C23.3206 8.43456 23.333 8.48373 23.3279 8.53266C23.2724 9.13746 22.2028 10.2283 22.2028 10.2283C18.8643 13.561 15.0983 15.5938 15.0983 15.5938C11.9249 17.5432 7.94943 18.986 7.94943 18.986C4.92446 20.076 3.95667 19.7288 3.95667 19.7288H3.95656Z" fill="#6F7390"/>
<path d="M23.7421 19.9443C24.4732 18.6832 20.492 15.011 14.8537 11.7421C9.21533 8.47312 4.04375 6.84772 3.31324 8.11099C2.58273 9.37427 6.56328 13.0443 12.2049 16.3133C17.8465 19.5822 23.0116 21.2077 23.7421 19.9443ZM3.79773 8.59829C3.68973 8.34222 3.91772 8.28055 3.91772 8.28055C4.92709 8.08993 6.34491 8.52431 6.34491 8.52431C10.2021 9.40267 17.0801 13.711 17.0801 13.711C22.3757 17.4166 23.1878 19.0488 23.3095 19.5121C23.3219 19.5596 23.3171 19.61 23.296 19.6543C23.2748 19.6987 23.2387 19.7341 23.194 19.7544C22.6418 20.0072 21.1628 19.6305 21.1628 19.6305C16.6045 18.4083 12.9589 16.1689 12.9589 16.1689C9.68341 14.4022 6.44448 11.6839 6.44448 11.6839C3.98338 9.61166 3.79848 8.6011 3.79848 8.6011L3.79773 8.59829Z" fill="#6F7390"/>
<path d="M13.5 15.3888C14.267 15.3888 14.8888 14.767 14.8888 14C14.8888 13.2329 14.267 12.6111 13.5 12.6111C12.7329 12.6111 12.1111 13.2329 12.1111 14C12.1111 14.767 12.7329 15.3888 13.5 15.3888Z" fill="#B7B9C8"/>
<path d="M19.1945 9.49991C19.6394 9.49991 20.0001 9.12681 20.0001 8.66658C20.0001 8.20635 19.6394 7.83325 19.1945 7.83325C18.7496 7.83325 18.3889 8.20635 18.3889 8.66658C18.3889 9.12681 18.7496 9.49991 19.1945 9.49991Z" fill="#B7B9C8"/>
<path d="M5.97208 12.3334C6.41698 12.3334 6.77765 11.9603 6.77765 11.5001C6.77765 11.0398 6.41698 10.6667 5.97208 10.6667C5.52717 10.6667 5.1665 11.0398 5.1665 11.5001C5.1665 11.9603 5.52717 12.3334 5.97208 12.3334Z" fill="#B7B9C8"/>
<path d="M11.861 22.5556C12.3059 22.5556 12.6666 22.1825 12.6666 21.7222C12.6666 21.262 12.3059 20.8889 11.861 20.8889C11.4161 20.8889 11.0554 21.262 11.0554 21.7222C11.0554 22.1825 11.4161 22.5556 11.861 22.5556Z" fill="#B7B9C8"/>
<path opacity="0.85" fill-rule="evenodd" clip-rule="evenodd" d="M7.92839 26.2085C3.25441 24.1029 0 19.4026 0 13.9481C0 6.52588 6.0259 0.499969 13.448 0.499969C17.7387 0.499969 21.5629 2.51381 24.0235 5.65015C24.827 6.78287 25.3645 9.15765 23.3178 11.5721C22.1719 12.9236 19.5265 14.5054 15.7723 16.2274C12.8602 17.5445 9.99252 19.1154 8.15889 20.9684C7.47317 21.6615 7.02065 22.4413 6.78679 23.1834C6.44454 24.2696 6.81517 25.6644 7.92839 26.2085Z" fill="#FF984D" fill-opacity="0.7"/>
</g>
<defs>
<clipPath id="clip0_50_1604">
<rect width="27" height="27" fill="white" transform="translate(0 0.5)"/>
</clipPath>
</defs>
</svg>
