<svg width="24" height="24" viewBox="0 0 24 24" fill="none" xmlns="http://www.w3.org/2000/svg">
<g clip-path="url(#clip0_523_10324)">
<path d="M5.93988 6.76461C6.03924 6.63973 6.14452 6.51957 6.2498 6.39941C6.25452 6.39345 6.2652 6.39225 6.26992 6.38629C6.2794 6.37441 6.2948 6.36725 6.30424 6.35533L6.31372 6.34345C6.38712 6.27561 6.4652 6.20177 6.55524 6.13745C6.8738 5.89561 7.2044 5.71189 7.553 5.59101C8.67112 5.19845 9.91576 5.44037 10.8918 6.36181C12.2546 7.63929 12.1326 9.69725 11.0447 11.0651C9.66992 13.1042 7.30736 15.9491 10.5785 18.4976C11.1667 18.9558 11.603 19.3336 13.4557 19.869C12.244 20.0922 11.1205 20.0228 9.86992 19.7034C8.98536 19.2041 7.59464 18.1351 7.12148 16.6912C6.40636 14.5017 8.38052 11.2285 9.3346 9.96785C10.6445 8.22317 8.52496 6.33449 6.96448 8.44301C6.1488 9.54185 4.72176 12.6513 5.21768 14.9578C5.50764 16.2658 5.89412 17.2192 7.42652 18.5288C7.14236 18.3612 6.8664 18.171 6.59872 17.9582C3.03828 14.6416 3.45135 9.51357 5.93988 6.76461Z" fill="url(#paint0_linear_523_10324)"/>
<path d="M18.0607 17.2346C17.9614 17.3595 17.8561 17.4796 17.7508 17.5998C17.7461 17.6058 17.7354 17.607 17.7307 17.6129C17.7212 17.6248 17.7058 17.632 17.6964 17.6439L17.6869 17.6558C17.6135 17.7236 17.5354 17.7974 17.4454 17.8618C17.1268 18.1036 16.7962 18.2873 16.4476 18.4082C15.3295 18.8008 14.0848 18.5588 13.1088 17.6374C11.746 16.3599 11.868 14.302 12.9559 12.9341C14.3307 10.895 16.6932 8.05008 13.4221 5.5016C12.8339 5.04336 12.3976 4.66556 10.5449 4.13016C11.7566 3.90695 12.8801 3.97638 14.1306 4.2958C15.0152 4.79508 16.406 5.86412 16.8791 7.308C17.5942 9.49752 15.6201 12.7707 14.666 14.0314C13.3561 15.776 15.4756 17.6647 17.0361 15.5562C17.8518 14.4574 19.2788 11.3479 18.7829 9.0414C18.493 7.73344 18.1065 6.78004 16.5741 5.47036C16.8582 5.63804 17.1342 5.82824 17.4019 6.04104C20.9623 9.3576 20.5492 14.4856 18.0607 17.2346Z" fill="url(#paint1_linear_523_10324)"/>
<path opacity="0.6" fill-rule="evenodd" clip-rule="evenodd" d="M7.17309 23.0547C2.94438 21.1497 0 16.8972 0 11.9623C0 5.24713 5.45185 -0.204729 12.1669 -0.204729C16.0488 -0.204729 19.5087 1.61726 21.7349 4.45482C22.4618 5.47963 22.9482 7.62818 21.0965 9.81263C20.0597 11.0354 17.6663 12.4665 14.2698 14.0244C11.635 15.2161 9.04058 16.6373 7.38163 18.3137C6.76124 18.9408 6.35183 19.6464 6.14025 20.3177C5.8306 21.3005 6.16592 22.5624 7.17309 23.0547Z" fill="#FF984D"/>
</g>
<defs>
<linearGradient id="paint0_linear_523_10324" x1="4" y1="11.9992" x2="20" y2="11.9992" gradientUnits="userSpaceOnUse">
<stop stop-color="#0082FA"/>
<stop offset="1" stop-color="#00F2FE"/>
</linearGradient>
<linearGradient id="paint1_linear_523_10324" x1="4.0006" y1="12" x2="20.0006" y2="12" gradientUnits="userSpaceOnUse">
<stop stop-color="#0082FA"/>
<stop offset="1" stop-color="#00F2FE"/>
</linearGradient>
<clipPath id="clip0_523_10324">
<rect width="24" height="24" rx="12" fill="white"/>
</clipPath>
</defs>
</svg>
