<svg width="24" height="24" viewBox="0 0 24 24" fill="none" xmlns="http://www.w3.org/2000/svg">
<g clip-path="url(#clip0_523_10336)">
<path d="M12 24C18.6274 24 24 18.6274 24 12C24 5.37258 18.6274 0 12 0C5.37258 0 0 5.37258 0 12C0 18.6274 5.37258 24 12 24Z" fill="url(#paint0_linear_523_10336)"/>
<path fill-rule="evenodd" clip-rule="evenodd" d="M11.9999 23.0617C18.1089 23.0617 23.0614 18.0793 23.0614 11.9332C23.0614 5.78709 18.1089 0.804688 11.9999 0.804688C5.89086 0.804688 0.938477 5.78709 0.938477 11.9332C0.938477 18.0793 5.89086 23.0617 11.9999 23.0617ZM11.9999 22.1231C17.5907 22.1231 22.1228 17.561 22.1228 11.9332C22.1228 6.30543 17.5907 1.74324 11.9999 1.74324C6.4092 1.74324 1.87702 6.30543 1.87702 11.9332C1.87702 17.561 6.4092 22.1231 11.9999 22.1231Z" fill="white"/>
<path d="M10.9764 9.47422V9.48315L10.1362 5.04964L9.43897 4.82617L9.00098 5.41612L10.9764 9.47422Z" fill="white"/>
<path d="M11.4326 7.62476L11.7902 9.34096L12.1745 7.59794L11.7991 7.34766L11.4326 7.62476Z" fill="white"/>
<path d="M14.0879 7.92773L13.6321 7.97244L13.0957 9.67075L14.2757 8.33891L14.0879 7.92773Z" fill="white"/>
<path d="M17.9841 8.28538V7.56136L17.2779 7.33789L13.9707 10.4396L17.9841 8.28538Z" fill="white"/>
<path d="M9.90402 10.1174L8.92078 8.64258L8.47385 8.71408L8.40234 9.161L9.90402 10.1174Z" fill="white"/>
<path d="M16.2325 11.6191L14.4717 11.9677L16.2325 12.3521L16.5007 11.9856L16.2325 11.6191Z" fill="white"/>
<path d="M9.11714 11.9783L4.59424 11.4062L4.15625 11.9962L4.59424 12.5861L9.11714 11.9783Z" fill="white"/>
<path d="M7.44658 12.9592L7.3125 13.3793L7.67898 13.6475L9.24323 12.7715L7.44658 12.9592Z" fill="white"/>
<path d="M7.96416 14.2033L7.94629 14.6503L8.37534 14.8022L9.62673 13.4883L7.96416 14.2033Z" fill="white"/>
<path d="M10.2166 14.0957L8.88477 15.2667L9.00097 15.6958L9.45684 15.7136L10.2166 14.0957Z" fill="white"/>
<path d="M11.799 14.6133L11.4414 16.3473L11.8079 16.6066L12.1744 16.3385L11.799 14.6133Z" fill="white"/>
<path d="M17.993 15.6696L13.9707 13.5332L17.2958 16.617L17.993 16.3936V15.6696Z" fill="white"/>
<path d="M13.56 16.0008L12.6572 14.4902L12.8628 16.2243L13.2919 16.3583L13.56 16.0008Z" fill="white"/>
<path d="M10.9859 14.4902L9.02832 18.5572L9.46631 19.1472L10.1635 18.9237L10.9859 14.4902Z" fill="white"/>
<path opacity="0.6" fill-rule="evenodd" clip-rule="evenodd" d="M7.17309 23.0547C2.94438 21.1497 0 16.8972 0 11.9623C0 5.24713 5.45185 -0.204729 12.1669 -0.204729C16.0488 -0.204729 19.5087 1.61726 21.7349 4.45482C22.4618 5.47964 22.9482 7.62819 21.0965 9.81263C20.0597 11.0354 17.6663 12.4665 14.2698 14.0244C11.635 15.2161 9.04058 16.6373 7.38163 18.3137C6.76124 18.9408 6.35183 19.6464 6.14025 20.3177C5.8306 21.3005 6.16592 22.5624 7.17309 23.0547Z" fill="#FF984D"/>
</g>
<defs>
<linearGradient id="paint0_linear_523_10336" x1="6.30168" y1="22.5251" x2="15.486" y2="-6.60651e-07" gradientUnits="userSpaceOnUse">
<stop stop-color="#3FAD6C"/>
<stop offset="1" stop-color="#6EC2B7"/>
</linearGradient>
<clipPath id="clip0_523_10336">
<rect width="24" height="24" fill="white"/>
</clipPath>
</defs>
</svg>
