<svg xmlns="http://www.w3.org/2000/svg" xmlns:xlink="http://www.w3.org/1999/xlink" width="375" zoomAndPan="magnify" viewBox="0 0 281.25 281.249989" height="375" preserveAspectRatio="xMidYMid meet" version="1.0"><defs><clipPath id="b894fc324c"><path d="M 48.839844 50.785156 L 227.792969 50.785156 L 227.792969 229.738281 L 48.839844 229.738281 Z M 48.839844 50.785156 " clip-rule="nonzero"/></clipPath><clipPath id="657fd8699f"><path d="M 138.316406 50.785156 C 88.898438 50.785156 48.839844 90.84375 48.839844 140.261719 C 48.839844 189.675781 88.898438 229.738281 138.316406 229.738281 C 187.730469 229.738281 227.792969 189.675781 227.792969 140.261719 C 227.792969 90.84375 187.730469 50.785156 138.316406 50.785156 Z M 138.316406 50.785156 " clip-rule="nonzero"/></clipPath><clipPath id="f566f09ed4"><path d="M 0 0 L 280.503906 0 L 280.503906 280.503906 L 0 280.503906 Z M 0 0 " clip-rule="nonzero"/></clipPath><clipPath id="45892a79cb"><path d="M 140.25 0 C 62.792969 0 0 62.792969 0 140.25 C 0 217.710938 62.792969 280.503906 140.25 280.503906 C 217.710938 280.503906 280.503906 217.710938 280.503906 140.25 C 280.503906 62.792969 217.710938 0 140.25 0 Z M 140.25 0 " clip-rule="nonzero"/></clipPath><clipPath id="41a1783493"><path d="M 41.367188 25.554688 L 238.839844 25.554688 L 238.839844 255 L 41.367188 255 Z M 41.367188 25.554688 " clip-rule="nonzero"/></clipPath></defs><g clip-path="url(#b894fc324c)"><g clip-path="url(#657fd8699f)"><path fill="#ffffff" d="M 48.839844 50.785156 L 227.792969 50.785156 L 227.792969 229.738281 L 48.839844 229.738281 Z M 48.839844 50.785156 " fill-opacity="1" fill-rule="nonzero"/></g></g><g clip-path="url(#f566f09ed4)"><g clip-path="url(#45892a79cb)"><path fill="#ff914d" d="M 0 0 L 280.503906 0 L 280.503906 280.503906 L 0 280.503906 Z M 0 0 " fill-opacity="1" fill-rule="nonzero"/></g></g><g clip-path="url(#41a1783493)"><path fill="#ffffff" d="M 140.105469 62.664062 L 102.886719 84.199219 L 140.105469 105.738281 L 177.320312 84.199219 Z M 137.515625 98.261719 L 113.222656 84.199219 L 137.515625 70.140625 Z M 142.695312 70.140625 L 166.984375 84.199219 L 142.695312 98.261719 Z M 140.105469 25.554688 L 41.371094 82.707031 L 41.371094 197.003906 L 140.105469 254.152344 L 238.839844 197.003906 L 238.839844 82.707031 Z M 137.515625 246.660156 L 46.539062 194.011719 L 46.539062 88.699219 L 137.515625 141.351562 Z M 49.128906 84.199219 L 140.105469 31.550781 L 231.082031 84.199219 L 140.105469 136.863281 Z M 233.671875 194.011719 L 142.695312 246.660156 L 142.695312 141.351562 L 233.671875 88.699219 Z M 110.644531 156.90625 L 73.429688 135.367188 L 73.429688 178.457031 L 110.644531 199.996094 Z M 78.597656 144.339844 L 102.886719 158.402344 L 78.597656 172.460938 Z M 105.464844 191.007812 L 81.175781 176.949219 L 105.464844 162.886719 Z M 206.789062 135.367188 L 169.574219 156.90625 L 169.574219 199.996094 L 206.789062 178.457031 Z M 174.742188 191.007812 L 174.742188 162.886719 L 199.03125 176.949219 Z M 201.609375 172.460938 L 177.320312 158.402344 L 201.609375 144.339844 Z M 201.609375 172.460938 " fill-opacity="1" fill-rule="nonzero"/></g></svg>