<?xml version="1.0" encoding="UTF-8" standalone="no"?>
<svg
   width="100"
   height="100"
   viewBox="0 0 100 100"
   fill="none"
   class="h-6 w-6"
   version="1.1"
   id="svg59"
   sodipodi:docname="pica.svg"
   inkscape:version="1.1.2 (0a00cf5339, 2022-02-04)"
   xmlns:inkscape="http://www.inkscape.org/namespaces/inkscape"
   xmlns:sodipodi="http://sodipodi.sourceforge.net/DTD/sodipodi-0.dtd"
   xmlns="http://www.w3.org/2000/svg"
   xmlns:svg="http://www.w3.org/2000/svg">
  <defs
     id="defs63" />
  <sodipodi:namedview
     id="namedview61"
     pagecolor="#ffffff"
     bordercolor="#000000"
     borderopacity="0.25"
     inkscape:pageshadow="2"
     inkscape:pageopacity="0.0"
     inkscape:pagecheckerboard="0"
     showgrid="false"
     inkscape:zoom="6.251321"
     inkscape:cx="33.35295"
     inkscape:cy="54.948386"
     inkscape:window-width="1685"
     inkscape:window-height="1376"
     inkscape:window-x="20"
     inkscape:window-y="20"
     inkscape:window-maximized="0"
     inkscape:current-layer="svg59" />
  <rect
     y="0.5"
     width="100"
     height="100"
     rx="50"
     fill="#120901"
     id="rect53"
     style="opacity:1;fill:#ff914d;fill-opacity:1;stroke-width:4.16667"
     x="0" />
  <path
     d="m 79.3625,48.891667 c -0.841667,0 -1.683333,0.104166 -2.416667,0.525 -0.95,0.633333 -1.6875,2.104166 -1.6875,3.475 0,1.158333 1.054167,2.629166 2.208334,3.2625 3.266666,1.683333 6.7375,-2.104167 5.054166,-5.2625 -0.525,-1.158334 -1.891666,-1.895834 -3.158333,-2 z"
     fill="#ff8500"
     id="path55"
     style="stroke-width:0.5;stroke:none;stroke-miterlimit:4;stroke-dasharray:none;fill:#ffffff" />
  <path
     d="m 53,26.366667 c 1.158333,0.208333 2.841667,4.208333 3.158333,7.579166 0.104167,0.733334 0,2.3125 0,3.470834 -0.108333,1.791666 -0.316666,2.316666 -0.95,3.158333 -1.366666,2 -3.891666,3.2625 -7.158333,3.475 -0.945833,0.104167 -2.525,0.208333 -3.366667,0.208333 -1.366666,-0.104166 -1.475,-0.104166 -1.2625,-0.629166 0.104167,-0.208334 0.416667,-0.95 0.629167,-1.583334 1.370833,-4.208333 4.425,-10.941666 6,-13.05 1.054167,-1.579166 2.316667,-2.7375 2.95,-2.629166 z M 51.945833,17.208333 A 6.625,6.625 0 0 0 49.841667,17.629167 11.245833,11.245833 0 0 0 46.05,19.733333 c -1.683333,1.2625 -1.891667,1.370834 -2,0.841667 -0.104167,-0.841667 -1.470833,-2 -2.733333,-2.104167 C 40.05,18.2625 38.475,18.891667 37.841667,19.8375 c -0.316667,0.425 -1.158334,1.791667 -2,3.158333 -1.475,2.529167 -2,4.316667 -1.475,5.370834 0.316666,0.629166 0.208333,1.366666 -0.7375,5.891666 -1.683334,8.208334 -4.416667,25.158334 -4.416667,28.420834 -0.108333,7.370833 0,14.316666 0.104167,15.683333 0.316666,2.104167 1.05,3.583333 2.416666,4.525 1.375,0.95 2.108334,1.158333 3.583334,0.7375 1.470833,-0.3125 2.208333,-0.841667 3.05,-2 0.95,-1.366667 1.158333,-2.841667 1.158333,-9.2625 -0.104167,-7.791667 0.95,-20.104167 1.583333,-20.841667 0.208334,-0.104166 1.575,-0.208333 3.154167,0 5.895833,0.529167 10.7375,-0.525 14.416667,-3.2625 4,-2.945833 5.6875,-6.3125 6,-12 C 65,28.7875 62.579167,22.154167 58.2625,18.7875 56.891667,17.8375 56.470833,17.733333 54.366667,17.416667 53.316667,17.208333 52.575,17.104167 51.95,17.208333 Z"
     fill="#ffffff"
     id="path57"
     style="stroke-width:4.16667" />
</svg>
