<svg width="44" height="40" viewBox="0 0 44 40" fill="none" xmlns="http://www.w3.org/2000/svg">
<path fill-rule="evenodd" clip-rule="evenodd" d="M35.4977 21.8945C37.4694 22.8123 38.8422 24.8613 38.8422 27.2389C38.8422 30.4743 36.3003 33.101 33.1693 33.101C31.3593 33.101 29.746 32.2232 28.7081 30.8559C28.3693 30.3621 28.1425 29.3272 29.0058 28.2746C29.489 27.6855 30.6052 26.9959 32.1888 26.2453C33.4172 25.6711 34.6269 24.9865 35.4005 24.1788C35.6898 23.8766 35.8807 23.5368 35.9793 23.2132C36.1236 22.7396 35.9673 22.1316 35.4977 21.8945Z" fill="#848788"/>
<path fill-rule="evenodd" clip-rule="evenodd" d="M35.8716 23.4935C37.5394 24.5863 37.6756 26.2639 37.7381 27.249C37.8045 28.2944 37.0911 31.3476 33.9383 31.8288C30.8511 32.3 29.4273 29.9767 28.9478 28.3475C28.9665 28.3233 28.9859 28.2989 29.0057 28.2746C29.4889 27.6855 30.6051 26.9959 32.1887 26.2453C33.4171 25.6711 34.6268 24.9865 35.4004 24.1788C35.607 23.963 35.7633 23.7281 35.8716 23.4935Z" fill="url(#paint0_linear_1032_15779)"/>
<path fill-rule="evenodd" clip-rule="evenodd" d="M33.9945 25.2814C34.0605 25.3905 34.1229 25.4878 34.1883 25.562C35.4849 27.0351 36.2026 25.7312 37.0081 26.5521C37.4185 26.9703 37.6403 27.2918 37.7177 27.7751C37.5655 29.0767 36.6626 31.4129 33.9383 31.8288C30.8511 32.3 29.4273 29.9767 28.9478 28.3475C28.9665 28.3233 28.9859 28.2989 29.0057 28.2746C29.4889 27.6855 30.6051 26.9959 32.1887 26.2453C32.8138 25.9532 33.434 25.6324 33.9945 25.2814Z" fill="url(#paint1_linear_1032_15779)"/>
<path fill-rule="evenodd" clip-rule="evenodd" d="M33.5212 25.5632C34.1146 25.9107 34.7456 26.4677 35.3486 27.5642C35.8721 28.5158 36.5102 29.0855 37.2377 29.392C36.7125 30.4744 35.7111 31.5581 33.9383 31.8288C30.8511 32.3 29.4273 29.9767 28.9478 28.3475C28.9665 28.3233 28.9859 28.2989 29.0057 28.2746C29.4889 27.6855 30.6051 26.9959 32.1887 26.2453C32.6424 26.0334 33.0935 25.8061 33.5212 25.5632Z" fill="url(#paint2_linear_1032_15779)"/>
<path fill-rule="evenodd" clip-rule="evenodd" d="M29.6907 27.6557C30.2181 28.0618 30.2928 28.4851 30.5034 29.4725C30.734 30.553 32.6284 32.4344 35.2852 31.4121C34.8953 31.6055 34.4487 31.7508 33.9383 31.8288C30.8511 32.3 29.4273 29.9767 28.9478 28.3475C28.9665 28.3233 28.9859 28.2989 29.0057 28.2746C29.1662 28.0789 29.3966 27.8721 29.6907 27.6557Z" fill="url(#paint3_linear_1032_15779)"/>
<path fill-rule="evenodd" clip-rule="evenodd" d="M33.2632 26.0401C33.7785 25.7235 33.9597 25.9955 34.0486 26.0993C34.1374 26.2031 33.9373 26.8107 33.5224 27.0183C33.1073 27.2258 32.7739 27.1442 32.6553 27.0183C32.5367 26.8924 32.8406 26.2994 33.2632 26.0401Z" fill="#EDECEC"/>
<path fill-rule="evenodd" clip-rule="evenodd" d="M34.5007 26.2179C34.7519 26.015 35.19 26.5515 35.2567 27.0183C35.3234 27.4851 35.1159 27.6927 34.9454 27.7372C34.7751 27.7817 34.4793 27.3532 34.4046 26.8923C34.3525 26.5736 34.3082 26.3735 34.5007 26.2179Z" fill="url(#paint4_linear_1032_15779)"/>
<path fill-rule="evenodd" clip-rule="evenodd" d="M32.0978 26.2898L32.0972 26.2888C32.1394 25.0927 32.4722 23.8266 32.9591 22.9105C33.4387 22.0083 34.609 21.543 35.4062 21.8543L35.4981 21.8945C35.9677 22.1316 36.124 22.7396 35.9798 23.2132C35.8811 23.5368 35.6902 23.8766 35.4009 24.1788C34.6274 24.9865 33.4176 25.6711 32.1892 26.2452L32.0978 26.2898Z" fill="url(#paint5_linear_1032_15779)"/>
<path fill-rule="evenodd" clip-rule="evenodd" d="M14.5966 32.7074C9.50079 30.4118 5.95264 25.2872 5.95264 19.3404C5.95264 11.2483 12.5224 4.67845 20.6144 4.67845C25.2924 4.67845 29.4618 6.87405 32.1444 10.2935C33.0205 11.5284 33.6065 14.1176 31.3751 16.7499C30.1258 18.2235 27.2415 19.948 23.1486 21.8254C19.9735 23.2614 16.8471 24.974 14.8479 26.9943C14.1003 27.75 13.607 28.6002 13.352 29.4092C12.9789 30.5935 13.3829 32.1142 14.5966 32.7074Z" fill="url(#paint6_linear_1032_15779)"/>
<path fill-rule="evenodd" clip-rule="evenodd" d="M13.5635 28.8525C12.0175 27.8042 10.8559 26.2096 9.59879 23.2037C7.79789 18.897 9.09648 7.84149 20.2088 6.64259C25.267 6.09703 30.6537 10.5 31.9746 15.9446C31.8026 16.2117 31.6036 16.4806 31.3755 16.75C30.1262 18.2235 27.2419 19.948 23.1489 21.8254C19.9739 23.2614 16.8474 24.9741 14.8483 26.9943C14.2705 27.5781 13.8447 28.2184 13.5635 28.8525Z" fill="url(#paint7_linear_1032_15779)"/>
<path fill-rule="evenodd" clip-rule="evenodd" d="M9.01904 20.8575C9.55962 18.4518 10.8735 16.1309 13.7485 14.8645C14.4492 14.5558 18.0042 13.6302 20.7021 14.1836C23.3215 14.7205 23.3086 16.513 25.7562 16.5202C27.5268 16.5253 28.7415 16.4349 29.3429 16.7626C29.7282 16.9724 30.1302 17.2697 30.5095 17.5989C29.0092 18.8714 26.479 20.2977 23.1486 21.8254C19.9736 23.2614 16.8471 24.9741 14.848 26.9943C14.2702 27.5781 13.8444 28.2184 13.5632 28.8525C12.0172 27.8042 10.8556 26.2096 9.59848 23.2036C9.32753 22.5554 9.12666 21.7545 9.01904 20.8575Z" fill="url(#paint8_linear_1032_15779)"/>
<path fill-rule="evenodd" clip-rule="evenodd" d="M21.6504 14.4699C23.3652 15.1815 23.647 16.5139 25.7566 16.5202C27.5271 16.5253 28.7418 16.4348 29.3433 16.7625C29.7286 16.9723 30.1306 17.2697 30.5099 17.5988C29.0096 18.8713 26.4794 20.2976 23.149 21.8254C19.974 23.2614 16.8475 24.974 14.8483 26.9943C14.6677 27.1769 14.5019 27.3649 14.3507 27.5564C13.0378 25.6303 11.6552 22.2283 13.4836 19.1301C15.4162 15.8557 18.2359 14.5441 21.6504 14.4699Z" fill="url(#paint9_linear_1032_15779)"/>
<path fill-rule="evenodd" clip-rule="evenodd" d="M23.3851 21.714L23.3865 21.7165C23.2772 24.7086 22.4173 27.8746 21.1588 30.1661C19.9195 32.4229 16.8946 33.5865 14.8348 32.8081L14.5968 32.7074C13.3831 32.1142 12.979 30.5934 13.3522 29.4092C13.6071 28.6002 14.1005 27.7499 14.8481 26.9943C16.8472 24.974 19.9737 23.2614 23.1487 21.8254L23.3851 21.714Z" fill="url(#paint10_linear_1032_15779)"/>
<path fill-rule="evenodd" clip-rule="evenodd" d="M18.7217 18.5941C18.1433 17.7263 19.035 16.4792 20.0063 16.0562C20.9777 15.6332 21.902 15.6018 22.3563 16.0562C22.8107 16.5105 22.607 17.8733 21.2596 18.5941C19.9122 19.3147 19.1603 19.252 18.7217 18.5941Z" fill="#EDECEC"/>
<path fill-rule="evenodd" clip-rule="evenodd" d="M21.8027 14.5365C23.3836 15.2613 23.7107 16.5143 25.7561 16.5203C27.5267 16.5254 28.7414 16.435 29.3428 16.7626C29.7282 16.9725 30.1302 17.2698 30.5095 17.599C29.4744 18.477 27.9487 19.4282 26.0085 20.4354C24.6649 17.9205 23.1675 16.7185 21.8027 14.5365Z" fill="url(#paint11_linear_1032_15779)"/>
<path fill-rule="evenodd" clip-rule="evenodd" d="M23.5934 16.5261C24.1569 16.3211 24.925 16.8551 25.3166 17.7951C25.7084 18.735 25.7975 19.8927 24.6118 20.2232C23.656 20.4896 23.3427 18.9542 23.2487 18.2807C23.1547 17.6069 23.0764 16.714 23.5934 16.5261Z" fill="url(#paint12_linear_1032_15779)"/>
<defs>
<linearGradient id="paint0_linear_1032_15779" x1="37.901" y1="25.6232" x2="35.1433" y2="27.634" gradientUnits="userSpaceOnUse">
<stop stop-color="#BEC0BD"/>
<stop offset="1" stop-color="#ABADAD"/>
</linearGradient>
<linearGradient id="paint1_linear_1032_15779" x1="33.9574" y1="28.6445" x2="37.6343" y2="26.4614" gradientUnits="userSpaceOnUse">
<stop stop-color="#5C5E61"/>
<stop offset="1" stop-color="#5C5E61"/>
</linearGradient>
<linearGradient id="paint2_linear_1032_15779" x1="30.6575" y1="30.0566" x2="35.8855" y2="27.8734" gradientUnits="userSpaceOnUse">
<stop stop-color="#060808"/>
<stop offset="0.00510204" stop-color="#060808"/>
<stop offset="1" stop-color="#3C3D3F"/>
</linearGradient>
<linearGradient id="paint3_linear_1032_15779" x1="28.5231" y1="28.9416" x2="34.4756" y2="30.8779" gradientUnits="userSpaceOnUse">
<stop stop-color="#595C5E"/>
<stop offset="1" stop-color="#1F2021"/>
</linearGradient>
<linearGradient id="paint4_linear_1032_15779" x1="34.5347" y1="26.1773" x2="35.1037" y2="27.6895" gradientUnits="userSpaceOnUse">
<stop stop-color="#ECEBEA"/>
<stop offset="1" stop-color="#D4D4D3"/>
</linearGradient>
<linearGradient id="paint5_linear_1032_15779" x1="32.7006" y1="22.738" x2="34.6269" y2="25.0199" gradientUnits="userSpaceOnUse">
<stop stop-color="#B9BBB9"/>
<stop offset="0.994898" stop-color="#7D8182"/>
<stop offset="1" stop-color="#7D8182"/>
</linearGradient>
<linearGradient id="paint6_linear_1032_15779" x1="5.94325" y1="24.2603" x2="32.1289" y2="9.24519" gradientUnits="userSpaceOnUse">
<stop stop-color="#AFB1AF"/>
<stop offset="0.994898" stop-color="#898C8D"/>
<stop offset="1" stop-color="#898C8D"/>
</linearGradient>
<linearGradient id="paint7_linear_1032_15779" x1="7.96225" y1="19.682" x2="31.8746" y2="14.3591" gradientUnits="userSpaceOnUse">
<stop stop-color="#BEC0BD"/>
<stop offset="1" stop-color="#ABADAD"/>
</linearGradient>
<linearGradient id="paint8_linear_1032_15779" x1="8.97828" y1="21.4318" x2="19.0049" y2="21.4318" gradientUnits="userSpaceOnUse">
<stop stop-color="#818485"/>
<stop offset="1" stop-color="#28282A"/>
</linearGradient>
<linearGradient id="paint9_linear_1032_15779" x1="12.0155" y1="22.8475" x2="30.3879" y2="16.2256" gradientUnits="userSpaceOnUse">
<stop stop-color="#060808"/>
<stop offset="0.00510204" stop-color="#060808"/>
<stop offset="1" stop-color="#3C3D3F"/>
</linearGradient>
<linearGradient id="paint10_linear_1032_15779" x1="21.6562" y1="30.4559" x2="17.0101" y2="25.0471" gradientUnits="userSpaceOnUse">
<stop stop-color="#B9BBB9"/>
<stop offset="0.994898" stop-color="#7D8182"/>
<stop offset="1" stop-color="#7D8182"/>
</linearGradient>
<linearGradient id="paint11_linear_1032_15779" x1="30.6922" y1="16.9719" x2="22.8607" y2="17.5652" gradientUnits="userSpaceOnUse">
<stop stop-color="#818485"/>
<stop offset="1" stop-color="#28282A"/>
</linearGradient>
<linearGradient id="paint12_linear_1032_15779" x1="23.5223" y1="16.2667" x2="25.0398" y2="20.2122" gradientUnits="userSpaceOnUse">
<stop stop-color="#ECEBEA"/>
<stop offset="1" stop-color="#D4D4D3"/>
</linearGradient>
</defs>
</svg>
