<svg width="10" height="11" viewBox="0 0 10 11" fill="none" xmlns="http://www.w3.org/2000/svg">
<path d="M1.46509 2.44635C1.52305 2.3735 1.58447 2.30341 1.64588 2.23331C1.64863 2.22984 1.65486 2.22914 1.65762 2.22566C1.66315 2.21873 1.67213 2.21455 1.67764 2.2076L1.68317 2.20067C1.72598 2.1611 1.77153 2.11802 1.82405 2.0805C2.00988 1.93943 2.20273 1.83226 2.40608 1.76175C3.05832 1.53275 3.78436 1.67387 4.35371 2.21138C5.14871 2.95658 5.07751 4.15705 4.44289 4.95496C3.64095 6.14445 2.26279 7.80398 4.17097 9.2906C4.51406 9.5579 4.76858 9.77829 5.84931 10.0906C5.1425 10.2208 4.48711 10.1803 3.75762 9.99398C3.24162 9.70273 2.43037 9.07912 2.15436 8.23686C1.73721 6.95964 2.8888 5.05028 3.44535 4.3149C4.20947 3.29717 2.97306 2.19544 2.06278 3.42541C1.58696 4.0664 0.754524 5.88027 1.04381 7.22571C1.21295 7.98869 1.4384 8.54484 2.3323 9.30882C2.16654 9.21101 2.00556 9.10006 1.84942 8.97592C-0.227507 7.04126 0.0134519 4.04991 1.46509 2.44635Z" fill="url(#paint0_linear_825_8535)"/>
<path d="M8.5351 8.55222C8.47714 8.62506 8.41572 8.69516 8.35431 8.76525C8.35156 8.76873 8.34533 8.76943 8.34257 8.7729C8.33704 8.77983 8.32806 8.78401 8.32255 8.79096L8.31702 8.79789C8.27421 8.83747 8.22866 8.88054 8.17614 8.91806C7.99031 9.05913 7.79746 9.1663 7.59411 9.23682C6.94187 9.46581 6.21583 9.32469 5.64648 8.78718C4.85149 8.04199 4.92268 6.84151 5.5573 6.0436C6.35924 4.85412 7.7374 3.19458 5.82922 1.70797C5.48613 1.44066 5.23161 1.22028 4.15088 0.907959C4.85769 0.77775 5.51308 0.818254 6.24255 1.00458C6.75857 1.29583 7.56982 1.91944 7.84583 2.7617C8.26298 4.03892 7.11139 5.94829 6.55484 6.68366C5.79072 7.70139 7.02713 8.80312 7.93741 7.57315C8.41323 6.93216 9.24567 5.1183 8.95638 3.77285C8.78724 3.00987 8.56179 2.45372 7.66789 1.68974C7.83365 1.78756 7.99463 1.89851 8.15077 2.02264C10.2277 3.9573 9.98673 6.94866 8.5351 8.55222Z" fill="url(#paint1_linear_825_8535)"/>
<defs>
<linearGradient id="paint0_linear_825_8535" x1="0.333497" y1="5.49986" x2="9.66683" y2="5.49986" gradientUnits="userSpaceOnUse">
<stop stop-color="#0082FA"/>
<stop offset="1" stop-color="#00F2FE"/>
</linearGradient>
<linearGradient id="paint1_linear_825_8535" x1="0.333359" y1="5.4987" x2="9.66669" y2="5.4987" gradientUnits="userSpaceOnUse">
<stop stop-color="#0082FA"/>
<stop offset="1" stop-color="#00F2FE"/>
</linearGradient>
</defs>
</svg>
