<svg width="27" height="28" viewBox="0 0 27 28" fill="none" xmlns="http://www.w3.org/2000/svg">
<g clip-path="url(#clip0_8_1787)">
<path d="M13 27C20.1797 27 26 21.1797 26 14C26 6.8203 20.1797 1 13 1C5.8203 1 0 6.8203 0 14C0 21.1797 5.8203 27 13 27Z" fill="#2E3148"/>
<path d="M12.9994 21.5431C17.1654 21.5431 20.5426 18.1659 20.5426 13.9999C20.5426 9.83385 17.1654 6.45663 12.9994 6.45663C8.83339 6.45663 5.45618 9.83385 5.45618 13.9999C5.45618 18.1659 8.83339 21.5431 12.9994 21.5431Z" fill="#1B1E36"/>
<path d="M13.0265 2.65839C11.6232 2.65839 10.4854 7.74815 10.4854 14.0267C10.4854 20.3053 11.6232 25.3951 13.0265 25.3951C14.4298 25.3951 15.5676 20.3053 15.5676 14.0267C15.5676 7.74815 14.4298 2.65839 13.0265 2.65839ZM13.2019 24.7535C13.0415 24.9675 12.881 24.807 12.881 24.807C12.2347 24.0582 11.9116 22.6671 11.9116 22.6671C10.7812 19.0292 11.0503 11.2185 11.0503 11.2185C11.5815 5.01763 12.5479 3.55279 12.8767 3.22758C12.9103 3.19439 12.9545 3.1741 13.0016 3.1703C13.0487 3.1665 13.0955 3.17941 13.134 3.20678C13.6112 3.54488 14.0114 4.95887 14.0114 4.95887C15.1931 9.34569 15.0861 13.465 15.0861 13.465C15.1931 17.0494 14.4939 21.0617 14.4939 21.0617C13.9557 24.111 13.2019 24.7535 13.2019 24.7535Z" fill="#6F7390"/>
<path d="M22.8873 8.36928C22.1886 7.15165 17.208 8.69771 11.7593 11.8221C6.31064 14.9464 2.46722 18.4665 3.16537 19.6836C3.86353 20.9008 8.84471 19.3552 14.2934 16.2308C19.742 13.1065 23.5855 9.58639 22.8873 8.36928ZM3.80997 19.5166C3.54248 19.4829 3.6029 19.2631 3.6029 19.2631C3.93102 18.3301 4.97518 17.3575 4.97518 17.3575C7.56925 14.5665 14.4786 10.9131 14.4786 10.9131C20.121 8.28795 21.8736 8.39871 22.3182 8.52112C22.3639 8.53385 22.4035 8.56233 22.4302 8.60151C22.4568 8.64068 22.4687 8.68802 22.4638 8.73515C22.4104 9.31755 21.3804 10.3679 21.3804 10.3679C18.1656 13.5773 14.539 15.5348 14.539 15.5348C11.4832 17.412 7.65495 18.8013 7.65495 18.8013C4.74201 19.851 3.81007 19.5166 3.81007 19.5166H3.80997Z" fill="#6F7390"/>
<path d="M22.8635 19.7242C23.5676 18.5098 19.7338 14.9736 14.3043 11.8257C8.87476 8.67782 3.89472 7.11262 3.19127 8.32911C2.48781 9.54559 6.32094 13.0797 11.7536 16.2276C17.1862 19.3755 22.16 20.9408 22.8635 19.7242ZM3.65781 8.79835C3.55381 8.55177 3.77335 8.49239 3.77335 8.49239C4.74534 8.30883 6.11065 8.72711 6.11065 8.72711C9.82501 9.57295 16.4482 13.7217 16.4482 13.7217C21.5477 17.2901 22.3298 18.8618 22.447 19.308C22.4589 19.3537 22.4543 19.4022 22.4339 19.4449C22.4135 19.4876 22.3788 19.5217 22.3357 19.5412C21.8039 19.7847 20.3798 19.422 20.3798 19.422C15.9902 18.245 12.4797 16.0885 12.4797 16.0885C9.3255 14.3873 6.20654 11.7696 6.20654 11.7696C3.83658 9.77419 3.65854 8.80106 3.65854 8.80106L3.65781 8.79835Z" fill="#6F7390"/>
<path d="M13.0002 15.3376C13.7388 15.3376 14.3376 14.7389 14.3376 14.0002C14.3376 13.2616 13.7388 12.6628 13.0002 12.6628C12.2615 12.6628 11.6627 13.2616 11.6627 14.0002C11.6627 14.7389 12.2615 15.3376 13.0002 15.3376Z" fill="#B7B9C8"/>
<path d="M18.4834 9.66682C18.9118 9.66682 19.2591 9.30754 19.2591 8.86435C19.2591 8.42116 18.9118 8.06189 18.4834 8.06189C18.0549 8.06189 17.7076 8.42116 17.7076 8.86435C17.7076 9.30754 18.0549 9.66682 18.4834 9.66682Z" fill="#B7B9C8"/>
<path d="M5.75132 12.3949C6.17975 12.3949 6.52706 12.0356 6.52706 11.5924C6.52706 11.1492 6.17975 10.79 5.75132 10.79C5.32289 10.79 4.97559 11.1492 4.97559 11.5924C4.97559 12.0356 5.32289 12.3949 5.75132 12.3949Z" fill="#B7B9C8"/>
<path d="M11.422 22.2385C11.8504 22.2385 12.1977 21.8792 12.1977 21.436C12.1977 20.9928 11.8504 20.6335 11.422 20.6335C10.9935 20.6335 10.6462 20.9928 10.6462 21.436C10.6462 21.8792 10.9935 22.2385 11.422 22.2385Z" fill="#B7B9C8"/>
</g>
<defs>
<clipPath id="clip0_8_1787">
<rect width="26" height="26" fill="white" transform="translate(0 1)"/>
</clipPath>
</defs>
</svg>
