<svg width="30" height="30" fill="none" xmlns="http://www.w3.org/2000/svg"><path d="M13.75 18.125c0 1.725 2.799 3.125 6.25 3.125s6.25-1.4 6.25-3.125m-22.5-6.25C3.75 13.6 6.549 15 10 15c1.408 0 2.706-.232 3.75-.625m-10 1.875c0 1.725 2.799 3.125 6.25 3.125 1.408 0 2.705-.233 3.75-.625m6.25-2.5c-3.451 0-6.25-1.4-6.25-3.125S16.549 10 20 10s6.25 1.4 6.25 3.125S23.451 16.25 20 16.25z" stroke="#fff" stroke-width="1.5" stroke-linecap="round" stroke-linejoin="round"/><path d="M3.75 6.875v13.75c0 1.725 2.799 3.125 6.25 3.125 1.408 0 2.705-.233 3.75-.625m0 0v-10m0 10c0 1.725 2.799 3.125 6.25 3.125s6.25-1.4 6.25-3.125v-10m-10-2.5v-3.75" stroke="#fff" stroke-width="1.5" stroke-linecap="round" stroke-linejoin="round"/><path d="M10 10c-3.451 0-6.25-1.4-6.25-3.125S6.549 3.75 10 3.75s6.25 1.4 6.25 3.125S13.451 10 10 10z" stroke="#fff" stroke-width="1.5" stroke-linecap="round" stroke-linejoin="round"/></svg>