<svg width="30" height="30" fill="none" xmlns="http://www.w3.org/2000/svg"><g clip-path="url(#prefix__clip0_8_1961)" fill="#fff"><path d="M1.066 26.598v-1.596c0-.384.093-.515.45-.67a.175.175 0 00.08-.116c.008-.08.01-.16.004-.239 0-3.404.001-6.809.003-10.213 0-.13-.015-.204-.162-.251-.254-.082-.373-.287-.374-.552-.002-.485 0-.97 0-1.454v-.23h-.41c-.423-.003-.65-.227-.65-.646 0-.68.008-1.362-.005-2.042-.007-.327.12-.541.405-.697 1.55-.845 3.098-1.695 4.643-2.55 3.16-1.737 6.318-3.476 9.475-5.216.287-.159.534-.171.826-.01C20.038 2.7 24.729 5.28 29.423 7.854c.338.184.486.42.473.806-.022.656-.005 1.313-.007 1.97 0 .42-.227.644-.648.646h-.402c-.004.082-.01.148-.01.212v1.435c-.002.327-.126.495-.422.62-.05.02-.092.094-.106.151-.018.074-.005.158-.005.238l-.003 10.14c0 .153.017.247.191.307.244.083.348.294.347.552V26.6h.41c.42.004.65.23.651.648.002.705.002 1.41 0 2.116 0 .399-.229.628-.626.637H.742c-.05 0-.099.002-.148 0-.364-.023-.585-.255-.586-.62-.002-.718-.002-1.436 0-2.154 0-.386.23-.617.617-.626.137-.005.277-.002.44-.002zm27.667-16.477c0-.389-.008-.755.003-1.122.005-.15-.048-.227-.178-.298A8776.72 8776.72 0 0115.18 1.34c-.173-.094-.295-.096-.465-.001A3390.927 3390.927 0 016.98 5.6a7582.336 7582.336 0 01-5.659 3.11c-.12.065-.166.138-.162.271.008.276 0 .552.003.828.004.362-.04.313.314.313h26.686l.57-.001zm-.014 17.648H1.181v1.06h27.538v-1.06zM2.23 12.389h25.428V11.29H2.23v1.099zm25.436 13.1H2.218v1.09h25.445v-1.09zm-16.763-1.185h2.292V13.567h-2.292v10.737zm-3.511.003c.004-.064.01-.118.01-.172 0-3.465.002-6.931.004-10.398 0-.147-.043-.186-.187-.184-.644.008-1.289.004-1.932.004-.06 0-.12.006-.19.01v10.74h2.295zM16.7 13.566v10.739h2.292v-10.74H16.7zm5.803 0v10.74h2.306V24.1v-3.46c0-2.294.001-4.59.003-6.884 0-.163-.043-.207-.206-.205-.638.01-1.276.004-1.914.005-.058.001-.118.007-.189.01zm-6.982 10.737V13.574H14.37v10.73h1.15zm-11.61.002V13.573H2.774v10.732h1.137zm17.412 0V13.573h-1.141v10.732h1.141zm5.802-10.745c-.318 0-.623.01-.927-.004-.184-.01-.237.04-.237.231.007 3.354.009 6.709.005 10.063 0 .465 0 .465.472.465h.687V13.56zM9.73 24.305v-.225-10.268a.72.72 0 00-.005-.165c-.008-.033-.047-.082-.073-.082-.36-.005-.718-.003-1.079-.003v10.743h1.157z"/><path d="M11.797 5.996c.034-1.786 1.45-3.16 3.223-3.126a3.144 3.144 0 012.112 5.409 3.15 3.15 0 01-2.26.884c-1.71-.037-3.108-1.477-3.075-3.167zm3.145 2.006a1.985 1.985 0 001.994-1.984 1.994 1.994 0 00-1.988-1.996 1.992 1.992 0 00-1.413 3.396 1.989 1.989 0 001.407.584z"/></g><defs><clipPath id="prefix__clip0_8_1961"><path fill="#fff" d="M0 0h29.896v30H0z"/></clipPath></defs></svg>