
<svg width="29" height="27" fill="none" xmlns="http://www.w3.org/2000/svg"><g clip-path="url(#prefix__clip0_8_1942)" fill="#0E0E0E"><path d="M27.15 0H1.848c-.49 0-.96.196-1.306.544A1.86 1.86 0 000 1.854v20.82c0 .491.195.963.542 1.31.346.349.816.544 1.306.545h.982l.988 2.139a.573.573 0 00.518.332h4.678a.57.57 0 00.518-.332l.99-2.139h8.384l.988 2.139a.572.572 0 00.518.332h4.678a.57.57 0 00.518-.332l.989-2.139h.553c.49 0 .96-.196 1.307-.544.347-.348.542-.82.543-1.312V1.854a1.86 1.86 0 00-.543-1.31A1.847 1.847 0 0027.15 0zM8.65 25.854H4.7l-.612-1.325h5.173l-.613 1.325zm16.075 0h-3.947l-.612-1.325h5.173l-.614 1.325zm3.133-3.18a.712.712 0 01-.707.709H1.848a.706.706 0 01-.706-.71V1.854a.71.71 0 01.706-.708H27.15a.706.706 0 01.708.708v20.82z"/><path d="M9.637 7.343a4.63 4.63 0 00-2.819.946 4.725 4.725 0 00-1.662 2.396 4.67 4.67 0 00-.198 1.353c0 2.579 2.09 4.684 4.663 4.694h.034c2.57-.01 4.662-2.115 4.662-4.694 0-2.59-2.1-4.695-4.68-4.695zm.015 8.242h-.03a3.548 3.548 0 01.015-7.095 3.548 3.548 0 01.015 7.095z"/><path d="M9.637 9.961a2.08 2.08 0 00-2.069 2.077c0 1.14.925 2.07 2.063 2.075h.015a2.076 2.076 0 00-.01-4.152zm.005 3.005h-.01a.926.926 0 01-.921-.929.93.93 0 01.765-.918.924.924 0 011.085.833.933.933 0 01-.92 1.014h.001z"/><path d="M26.233 2.19H2.768a.57.57 0 00-.571.573v19.003a.574.574 0 00.57.573h9.442a.569.569 0 00.582-.573.577.577 0 00-.36-.533.57.57 0 00-.222-.04h-8.87V3.336H25.66v17.857h-8.893a.57.57 0 00-.57.573.574.574 0 00.57.573h9.464a.57.57 0 00.57-.573V2.763a.574.574 0 00-.57-.573z"/><path d="M16.408 9.313h2.04a.57.57 0 00.572-.573V6.692a.575.575 0 00-.571-.573h-2.041a.57.57 0 00-.572.573v2.047a.576.576 0 00.572.574zm.57-2.047h.9v.9h-.9v-.9zM20.397 9.313h2.043a.57.57 0 00.571-.573V6.692a.574.574 0 00-.571-.573h-2.043a.57.57 0 00-.57.573v2.047a.574.574 0 00.57.574zm.572-2.047h.9v.9h-.901v-.9zM15.836 13.083a.575.575 0 00.572.574h2.04a.57.57 0 00.572-.574v-2.047a.574.574 0 00-.571-.573h-2.041a.57.57 0 00-.572.573v2.047zm1.143-1.473h.899v.901h-.9v-.9zM19.826 13.083a.574.574 0 00.571.574h2.043a.57.57 0 00.571-.574v-2.047a.575.575 0 00-.571-.573h-2.043a.57.57 0 00-.571.573v2.047zm1.143-1.473h.9v.901h-.901v-.9zM18.448 18.212a.57.57 0 00.572-.573v-2.046a.575.575 0 00-.572-.574h-2.04a.57.57 0 00-.572.574v2.047a.575.575 0 00.572.573h2.04zm-1.47-2.047h.9v.9h-.9v-.9zM19.826 17.639a.575.575 0 00.571.573h2.043a.57.57 0 00.571-.573v-2.046a.575.575 0 00-.571-.574h-2.043a.57.57 0 00-.571.574v2.046zm1.143-1.473h.9v.9h-.901v-.9zM14.5 21.193h-.01a.57.57 0 00-.572.573.574.574 0 00.572.573h.01a.57.57 0 00.57-.573.574.574 0 00-.57-.573z"/></g><defs><clipPath id="prefix__clip0_8_1942"><path fill="#fff" d="M0 0h29v27H0z"/></clipPath></defs></svg>