<svg width="41" height="41" viewBox="0 0 41 41" fill="none" xmlns="http://www.w3.org/2000/svg">
<path d="M40.7036 0.000244141H0.406738V40.2971H40.7036V0.000244141Z" fill="#1B1716"/>
<path fill-rule="evenodd" clip-rule="evenodd" d="M20.5548 7.56402C13.6055 7.56402 7.97039 13.1967 7.97039 20.1484C7.97039 27.1 13.6055 32.7327 20.5548 32.7327C27.504 32.7327 33.139 27.1 33.139 20.1484C33.139 13.1992 27.504 7.56402 20.5548 7.56402ZM6.69434 20.1484C6.69434 12.4919 12.9009 6.28796 20.5548 6.28796C28.2087 6.28796 34.4153 12.4945 34.4153 20.1484C34.4153 27.805 28.2086 34.0089 20.5548 34.0089C12.9009 34.0089 6.69434 27.805 6.69434 20.1484Z" fill="#FFEBD2"/>
<path fill-rule="evenodd" clip-rule="evenodd" d="M26.0264 16.846L22.53 16.7006L24.906 14.1281L23.949 13.1736L21.3739 15.5419L21.2335 12.0455H19.8835L19.738 15.5419L17.1655 13.1659L16.211 14.1229L18.5819 16.698L15.083 16.8358V18.1884L18.5794 18.3339L16.2034 20.9064L17.1604 21.8609L19.6946 19.5283L19.8069 25.1939L17.7831 25.342V26.6001L19.8376 26.7558L19.8758 28.7235H21.2259L21.2667 26.7584L23.3416 26.6001V25.342L21.2974 25.1939L21.4122 19.5308L23.9439 21.866L24.8984 20.9115L22.53 18.3364L26.0264 18.1961V16.846Z" fill="#FFEBD2"/>
</svg>
