<svg width="33" height="36" viewBox="0 0 33 36" fill="none" xmlns="http://www.w3.org/2000/svg">
<path d="M31.8178 7.57522C31.4679 6.22812 30.3436 4.88101 28.3197 3.38142C26.6955 2.1868 24.9714 1.50055 23.5972 1.50055C23.3223 1.50055 23.0724 1.52597 22.8225 1.5768C22.1979 1.70388 21.6481 2.16139 21.2984 2.84765C20.8736 3.66099 20.7736 4.75393 21.0485 5.41476C21.1484 5.6181 21.2734 5.87227 21.4233 6.10102C20.099 6.91437 19.3493 7.14312 19.2494 7.16853C22.6977 8.33772 25.5711 10.7777 27.3701 13.9549L27.3952 13.6499C27.4701 12.8111 27.72 11.8453 28.0698 10.854C28.4195 10.9557 28.7694 11.0065 29.1192 11.0065C30.0438 11.0065 30.8433 10.6253 31.3431 9.939C31.8428 9.25274 32.0426 8.33772 31.8178 7.57522Z" fill="#5E12A0"/>
<path d="M28.2196 10.1174C30.4933 10.7528 31.4179 8.97359 31.1179 7.779C30.7931 6.58439 29.7437 5.36438 27.8946 3.99186C26.0457 2.61935 24.1717 2.06017 22.9723 2.31433C21.773 2.5685 21.4231 4.42394 21.7229 5.13561C21.8479 5.4152 22.1227 5.82187 22.4975 6.27938C22.0228 6.60982 21.573 6.86398 21.1983 7.09272C23.497 8.13482 25.496 9.76152 26.9951 11.7949C27.17 11.1086 27.4199 10.4986 27.6449 9.96485C27.8197 9.99026 28.0196 10.0411 28.2196 10.1174Z" fill="url(#paint0_radial_50_2182)"/>
<path d="M15.2013 35.0255C22.9153 35.0255 29.1688 28.6644 29.1688 20.8175C29.1688 12.9706 22.9153 6.60938 15.2013 6.60938C7.48719 6.60938 1.23367 12.9706 1.23367 20.8175C1.23367 28.6644 7.48719 35.0255 15.2013 35.0255Z" fill="url(#paint1_radial_50_2182)"/>
<path opacity="0.6" d="M29.9687 6.60904C28.0697 4.5757 26.4705 4.04193 24.5466 3.60985C23.0474 3.25401 23.4471 2.38983 25.2712 2.56775C24.3967 2.26275 23.5721 2.18649 22.9724 2.31357C21.773 2.56775 21.4233 4.42319 21.7231 5.13486C21.8479 5.41445 22.1228 5.82112 22.4977 6.27863C21.823 6.73614 21.2483 7.06656 20.7735 7.32073C20.9985 7.4224 21.2732 7.54948 21.598 7.7274C22.4476 8.18491 23.3722 8.94741 23.3722 8.94741C21.9729 7.7274 22.2727 7.16822 24.1967 5.79571C24.7965 5.36362 25.8958 5.41445 26.9203 5.94822C27.9448 6.48196 29.1441 7.82907 29.1441 7.82907L27.9947 10.0658C28.0697 10.0912 28.1446 10.1166 28.2196 10.142C28.9442 10.3454 29.5188 10.2945 29.9687 10.1166C30.4935 9.78618 31.8677 8.66784 29.9687 6.60904Z" fill="#A98698"/>
<path d="M24.5214 4.83014C25.0212 5.03348 25.6708 5.38932 26.4705 5.92309C27.4199 6.5585 28.2445 7.27019 28.7692 7.82935C27.8946 8.99853 27.3199 10.5998 26.9702 11.7182C27.1452 11.9723 27.345 12.2265 27.5199 12.4807C27.6948 11.8453 27.9946 10.9048 28.3944 9.96438C28.4943 9.98979 28.6194 9.98979 28.7442 9.98979C29.044 9.98979 29.3938 9.93897 29.6688 9.7102C29.8686 9.55771 30.0936 9.27812 30.0685 8.76979C30.0685 8.28686 29.6938 7.67686 28.9191 6.93976C28.3695 6.40601 27.6199 5.82142 26.8702 5.28765C24.7214 3.83888 23.2221 3.43221 22.5475 4.11847C22.0978 4.57598 22.1477 5.13516 22.2976 5.54183C21.4981 6.07558 20.8234 6.45684 20.3737 6.71101C20.6735 6.81268 20.9484 6.93976 21.2482 7.06684C22.0477 6.63476 23.1971 5.89766 24.5214 4.83014ZM29.244 8.46479C29.3189 8.59187 29.3439 8.71894 29.3439 8.7952C29.3439 9.02396 29.269 9.1002 29.2189 9.15104C29.1191 9.2273 28.9191 9.27812 28.7442 9.27812C28.8941 8.97312 29.069 8.71895 29.244 8.46479ZM23.0722 4.67765C23.1472 4.6014 23.3472 4.55055 23.672 4.6014C23.4221 4.80473 23.1722 4.98265 22.9224 5.16057C22.8973 4.98265 22.9224 4.80473 23.0722 4.67765Z" fill="#5E12A0"/>
<path d="M15.2015 5.77045C7.0308 5.77045 0.409302 12.5059 0.409302 20.8173C0.409302 29.1286 7.0308 35.8642 15.2015 35.8642C23.3722 35.8642 29.9936 29.1286 29.9936 20.8173C29.9936 12.5059 23.3472 5.77045 15.2015 5.77045ZM15.2015 35.0254C7.48057 35.0254 1.23387 28.6712 1.23387 20.8173C1.23387 12.9635 7.48057 6.6092 15.2015 6.6092C22.9224 6.6092 29.1692 12.9635 29.1692 20.8173C29.1692 28.6712 22.8975 35.0254 15.2015 35.0254Z" fill="#5E12A0"/>
<path opacity="0.6" d="M15.2013 35.0255C22.9153 35.0255 29.1688 28.6644 29.1688 20.8175C29.1688 12.9706 22.9153 6.60938 15.2013 6.60938C7.48719 6.60938 1.23367 12.9706 1.23367 20.8175C1.23367 28.6644 7.48719 35.0255 15.2013 35.0255Z" fill="url(#paint2_linear_50_2182)"/>
<path opacity="0.6" d="M15.1014 33.2975C7.48048 32.0521 2.30821 24.7574 3.55754 17.0053C4.10726 13.5739 5.80637 10.651 8.2051 8.54138C4.70694 10.6002 2.10832 14.184 1.40869 18.5557C0.184335 26.3078 5.3566 33.6026 12.9526 34.848C17.2003 35.5597 21.2981 34.2126 24.3216 31.5692C21.648 33.145 18.3998 33.8313 15.1014 33.2975Z" fill="#A98698"/>
<path opacity="0.6" d="M17.4253 6.81261C13.9021 6.22802 10.4789 7.04136 7.68039 8.84598C7.63041 8.8968 7.58044 8.94764 7.58044 8.94764C8.65488 8.2868 10.229 7.70221 10.229 7.70221C6.18119 10.0914 4.93185 12.811 4.93185 12.811C6.50602 9.71014 11.1286 7.52429 14.7517 7.37178C18.3747 7.21928 20.7484 8.31221 23.6469 10.676C26.5454 13.0652 28.2945 17.9452 28.1196 21.8086C27.9697 25.6721 25.9707 28.7984 25.9707 28.7984C27.3449 26.9936 28.1695 25.6721 28.6943 24.3249C28.7943 23.9182 28.8942 23.5116 28.9442 23.0794C30.1935 15.3527 25.0462 8.05803 17.4253 6.81261Z" fill="url(#paint3_linear_50_2182)"/>
<path d="M28.4691 20.6895C28.4691 28.1366 22.5223 34.1859 15.2012 34.1859C7.88008 34.1859 1.90823 28.1366 1.90823 20.6895H28.4691Z" fill="url(#paint4_linear_50_2182)"/>
<g opacity="0.6">
<path opacity="0.6" d="M27.4197 20.6895C27.4197 27.9587 21.7728 33.9063 14.6765 34.1859C14.8515 34.1859 15.0264 34.1859 15.2013 34.1859C22.5224 34.1859 28.4693 28.1366 28.4693 20.6895H27.4197Z" fill="url(#paint5_linear_50_2182)"/>
</g>
<g opacity="0.7">
<path opacity="0.7" d="M3.78225 20.6895H1.90823C1.90823 28.1366 7.85509 34.1859 15.1762 34.1859C15.501 34.1859 15.8009 34.1859 16.1007 34.1604C9.22936 33.6521 3.78225 27.8062 3.78225 20.6895Z" fill="url(#paint6_linear_50_2182)"/>
</g>
<path d="M28.4443 20.8171C28.4443 19.2667 25.7956 18.377 22.2724 18.0721C19.7237 17.8687 17.1502 18.1229 14.2017 19.0379C11.6531 19.8005 9.35429 19.6733 7.68018 19.4699C3.95714 19.0379 1.90823 18.987 1.90823 20.8171C1.90823 23.4605 7.20542 26.7647 15.1512 25.6209C19.1741 25.0363 21.248 23.8418 23.6217 23.0284C26.1954 22.1642 28.4443 22.1896 28.4443 20.8171Z" fill="url(#paint7_linear_50_2182)"/>
<path d="M19.5491 14.4124C20.7911 14.4124 21.7978 13.3882 21.7978 12.1249C21.7978 10.8615 20.7911 9.83734 19.5491 9.83734C18.3071 9.83734 17.3003 10.8615 17.3003 12.1249C17.3003 13.3882 18.3071 14.4124 19.5491 14.4124Z" fill="white"/>
<path d="M23.2221 16.1157C23.7466 16.1157 24.1717 15.6832 24.1717 15.1498C24.1717 14.6164 23.7466 14.184 23.2221 14.184C22.6978 14.184 22.2727 14.6164 22.2727 15.1498C22.2727 15.6832 22.6978 16.1157 23.2221 16.1157Z" fill="white"/>
<g opacity="0.6">
<path opacity="0.6" d="M26.6207 10.2956C26.5957 10.2956 26.5708 10.2956 26.5708 10.2956C26.4207 10.2702 26.3209 10.1177 26.3458 9.9398C26.5708 8.77062 27.5202 7.65228 27.5703 7.60144C27.6701 7.47436 27.8701 7.47436 27.97 7.57602C28.0949 7.67769 28.0949 7.88103 27.9949 7.98269C27.97 8.00811 27.0954 9.05021 26.8956 10.0669C26.8706 10.2194 26.7457 10.2956 26.6207 10.2956Z" fill="url(#paint8_linear_50_2182)"/>
</g>
<path opacity="0.2" d="M14.2811 31.4164C14.6675 31.4164 14.9808 31.0978 14.9808 30.7047C14.9808 30.3116 14.6675 29.993 14.2811 29.993C13.8947 29.993 13.5815 30.3116 13.5815 30.7047C13.5815 31.0978 13.8947 31.4164 14.2811 31.4164Z" fill="white"/>
<g opacity="0.4">
<path opacity="0.6" d="M13.8772 31.1688C13.6023 30.8891 13.6023 30.4318 13.8772 30.1521C13.9272 30.1012 13.9771 30.0759 14.0271 30.025C13.9272 30.0505 13.8522 30.1012 13.7772 30.1775C13.5024 30.4571 13.5024 30.9147 13.7772 31.1941C14.0021 31.4229 14.3519 31.4738 14.6268 31.3213C14.3769 31.4229 14.0771 31.3722 13.8772 31.1688Z" fill="url(#paint9_linear_50_2182)"/>
</g>
<path opacity="0.3" d="M14.5268 30.501C14.6096 30.501 14.6768 30.4328 14.6768 30.3485C14.6768 30.2642 14.6096 30.196 14.5268 30.196C14.444 30.196 14.3769 30.2642 14.3769 30.3485C14.3769 30.4328 14.444 30.501 14.5268 30.501Z" fill="white"/>
<path opacity="0.2" d="M17.9293 31.0601C18.3158 31.0601 18.629 30.7414 18.629 30.3483C18.629 29.9553 18.3158 29.6367 17.9293 29.6367C17.543 29.6367 17.2298 29.9553 17.2298 30.3483C17.2298 30.7414 17.543 31.0601 17.9293 31.0601Z" fill="white"/>
<g opacity="0.4">
<path opacity="0.6" d="M17.5255 30.8109C17.2506 30.5313 17.2506 30.0738 17.5255 29.7941C17.5754 29.7434 17.6254 29.7178 17.6754 29.6671C17.5754 29.6925 17.5004 29.7434 17.4255 29.8196C17.1507 30.0991 17.1507 30.5566 17.4255 30.8363C17.6505 31.0651 18.0002 31.1158 18.2751 30.9633C18.0252 31.0651 17.7254 31.0142 17.5255 30.8109Z" fill="url(#paint10_linear_50_2182)"/>
</g>
<path opacity="0.3" d="M18.1751 30.1446C18.2579 30.1446 18.325 30.0763 18.325 29.9921C18.325 29.908 18.2579 29.8397 18.1751 29.8397C18.0923 29.8397 18.0252 29.908 18.0252 29.9921C18.0252 30.0763 18.0923 30.1446 18.1751 30.1446Z" fill="white"/>
<path opacity="0.2" d="M16.1257 32.7128C16.4155 32.7128 16.6505 32.4739 16.6505 32.1792C16.6505 31.8844 16.4155 31.6454 16.1257 31.6454C15.8359 31.6454 15.601 31.8844 15.601 32.1792C15.601 32.4739 15.8359 32.7128 16.1257 32.7128Z" fill="white"/>
<g opacity="0.4">
<path opacity="0.6" d="M15.8259 32.5145C15.626 32.3111 15.626 31.9554 15.8259 31.752C15.8508 31.7266 15.9008 31.7012 15.9258 31.6757C15.8508 31.7012 15.8009 31.752 15.7509 31.8029C15.551 32.0061 15.551 32.362 15.7509 32.5654C15.9258 32.7433 16.1757 32.7686 16.4006 32.6417C16.2007 32.7179 15.9758 32.667 15.8259 32.5145Z" fill="url(#paint11_linear_50_2182)"/>
</g>
<path opacity="0.3" d="M16.3006 32.0006C16.3558 32.0006 16.4004 31.9551 16.4004 31.899C16.4004 31.8428 16.3558 31.7972 16.3006 31.7972C16.2454 31.7972 16.2006 31.8428 16.2006 31.899C16.2006 31.9551 16.2454 32.0006 16.3006 32.0006Z" fill="white"/>
<path opacity="0.2" d="M19.349 32.3309C19.6388 32.3309 19.8738 32.092 19.8738 31.7973C19.8738 31.5025 19.6388 31.2635 19.349 31.2635C19.0594 31.2635 18.8244 31.5025 18.8244 31.7973C18.8244 32.092 19.0594 32.3309 19.349 32.3309Z" fill="white"/>
<g opacity="0.4">
<path opacity="0.6" d="M19.0492 32.1326C18.8494 31.9292 18.8494 31.5735 19.0492 31.3701C19.0743 31.3447 19.1242 31.3194 19.1492 31.2938C19.0743 31.3194 19.0242 31.3701 18.9743 31.421C18.7743 31.6242 18.7743 31.9801 18.9743 32.1835C19.1492 32.3614 19.3991 32.3867 19.6239 32.2598C19.4241 32.336 19.1991 32.2851 19.0492 32.1326Z" fill="url(#paint12_linear_50_2182)"/>
</g>
<path opacity="0.3" d="M19.5239 31.6203C19.5792 31.6203 19.6239 31.5748 19.6239 31.5185C19.6239 31.4624 19.5792 31.4169 19.5239 31.4169C19.4688 31.4169 19.424 31.4624 19.424 31.5185C19.424 31.5748 19.4688 31.6203 19.5239 31.6203Z" fill="white"/>
<path opacity="0.2" d="M11.3034 31.1618C11.9382 31.1618 12.4527 30.6383 12.4527 29.9926C12.4527 29.3469 11.9382 28.8234 11.3034 28.8234C10.6686 28.8234 10.154 29.3469 10.154 29.9926C10.154 30.6383 10.6686 31.1618 11.3034 31.1618Z" fill="white"/>
<g opacity="0.4">
<path opacity="0.6" d="M10.6544 30.7301C10.2046 30.2725 10.2046 29.5354 10.6544 29.078C10.7294 29.0017 10.8043 28.9509 10.9043 28.9C10.7543 28.9509 10.6294 29.0525 10.5045 29.1543C10.0547 29.6116 10.0547 30.3488 10.5045 30.8063C10.8793 31.1876 11.454 31.2639 11.9037 30.9842C11.479 31.1621 10.9792 31.0858 10.6544 30.7301Z" fill="url(#paint13_linear_50_2182)"/>
</g>
<path opacity="0.3" d="M11.7034 29.6369C11.8414 29.6369 11.9533 29.5231 11.9533 29.3827C11.9533 29.2423 11.8414 29.1286 11.7034 29.1286C11.5654 29.1286 11.4536 29.2423 11.4536 29.3827C11.4536 29.5231 11.5654 29.6369 11.7034 29.6369Z" fill="white"/>
<path opacity="0.2" d="M21.5769 28.2901C22.2118 28.2901 22.7263 27.7666 22.7263 27.1209C22.7263 26.4752 22.2118 25.9517 21.5769 25.9517C20.9422 25.9517 20.4276 26.4752 20.4276 27.1209C20.4276 27.7666 20.9422 28.2901 21.5769 28.2901Z" fill="white"/>
<g opacity="0.4">
<path opacity="0.6" d="M20.8985 27.8584C20.4487 27.4009 20.4487 26.6639 20.8985 26.2064C20.9734 26.1301 21.0484 26.0792 21.1484 26.0283C20.9983 26.0792 20.8735 26.1808 20.7486 26.2826C20.2988 26.7401 20.2988 27.4772 20.7486 27.9347C21.1233 28.316 21.698 28.3922 22.1479 28.1126C21.7231 28.2906 21.2482 28.2143 20.8985 27.8584Z" fill="url(#paint14_linear_50_2182)"/>
</g>
<path opacity="0.3" d="M21.9728 26.7654C22.1109 26.7654 22.2226 26.6515 22.2226 26.5111C22.2226 26.3707 22.1109 26.257 21.9728 26.257C21.8348 26.257 21.7229 26.3707 21.7229 26.5111C21.7229 26.6515 21.8348 26.7654 21.9728 26.7654Z" fill="white"/>
<defs>
<radialGradient id="paint0_radial_50_2182" cx="0" cy="0" r="1" gradientUnits="userSpaceOnUse" gradientTransform="translate(30.6622 6.1777) scale(11.1677 11.36)">
<stop stop-color="#FFEAFF" stop-opacity="0.6"/>
<stop offset="0.6807" stop-color="#A087C9"/>
<stop offset="1" stop-color="#10002F"/>
</radialGradient>
<radialGradient id="paint1_radial_50_2182" cx="0" cy="0" r="1" gradientUnits="userSpaceOnUse" gradientTransform="translate(27.7388 18.2942) scale(31.2766 33.8369)">
<stop stop-color="#FFEAFF" stop-opacity="0.6"/>
<stop offset="0.6807" stop-color="#A087C9"/>
<stop offset="1" stop-color="#10002F"/>
</radialGradient>
<linearGradient id="paint2_linear_50_2182" x1="12.9608" y1="34.8241" x2="17.5795" y2="6.81228" gradientUnits="userSpaceOnUse">
<stop stop-color="#81FFFF"/>
<stop offset="0.6202" stop-color="white" stop-opacity="0"/>
</linearGradient>
<linearGradient id="paint3_linear_50_2182" x1="25.045" y1="11.1682" x2="13.3151" y2="21.7486" gradientUnits="userSpaceOnUse">
<stop offset="0.2888" stop-color="white"/>
<stop offset="0.7796" stop-color="white" stop-opacity="0"/>
</linearGradient>
<linearGradient id="paint4_linear_50_2182" x1="1.91948" y1="27.4297" x2="28.4628" y2="27.4297" gradientUnits="userSpaceOnUse">
<stop stop-color="#0002E9"/>
<stop offset="0.9952" stop-color="#FF00C7"/>
</linearGradient>
<linearGradient id="paint5_linear_50_2182" x1="29.7193" y1="21.8737" x2="15.0394" y2="35.5122" gradientUnits="userSpaceOnUse">
<stop offset="0.2888" stop-color="white"/>
<stop offset="0.7796" stop-color="white" stop-opacity="0"/>
</linearGradient>
<linearGradient id="paint6_linear_50_2182" x1="1.91948" y1="27.4297" x2="16.12" y2="27.4297" gradientUnits="userSpaceOnUse">
<stop stop-color="#000292"/>
<stop offset="0.9952" stop-color="#7D00C7"/>
</linearGradient>
<linearGradient id="paint7_linear_50_2182" x1="1.9373" y1="21.9384" x2="28.4449" y2="21.9384" gradientUnits="userSpaceOnUse">
<stop stop-color="#000292"/>
<stop offset="0.9952" stop-color="#BE00C7"/>
</linearGradient>
<linearGradient id="paint8_linear_50_2182" x1="28.0106" y1="7.47766" x2="26.0578" y2="10.5971" gradientUnits="userSpaceOnUse">
<stop offset="0.2888" stop-color="white"/>
<stop offset="0.7796" stop-color="white" stop-opacity="0"/>
</linearGradient>
<linearGradient id="paint9_linear_50_2182" x1="13.5704" y1="30.733" x2="14.6276" y2="30.733" gradientUnits="userSpaceOnUse">
<stop offset="0.2888" stop-color="white"/>
<stop offset="0.7796" stop-color="white" stop-opacity="0"/>
</linearGradient>
<linearGradient id="paint10_linear_50_2182" x1="17.2162" y1="30.3703" x2="18.2733" y2="30.3703" gradientUnits="userSpaceOnUse">
<stop offset="0.2888" stop-color="white"/>
<stop offset="0.7796" stop-color="white" stop-opacity="0"/>
</linearGradient>
<linearGradient id="paint11_linear_50_2182" x1="15.5869" y1="32.1892" x2="16.3806" y2="32.1892" gradientUnits="userSpaceOnUse">
<stop offset="0.2888" stop-color="white"/>
<stop offset="0.7796" stop-color="white" stop-opacity="0"/>
</linearGradient>
<linearGradient id="paint12_linear_50_2182" x1="18.8103" y1="31.8073" x2="19.604" y2="31.8073" gradientUnits="userSpaceOnUse">
<stop offset="0.2888" stop-color="white"/>
<stop offset="0.7796" stop-color="white" stop-opacity="0"/>
</linearGradient>
<linearGradient id="paint13_linear_50_2182" x1="10.1557" y1="30.0228" x2="11.8821" y2="30.0228" gradientUnits="userSpaceOnUse">
<stop offset="0.2888" stop-color="white"/>
<stop offset="0.7796" stop-color="white" stop-opacity="0"/>
</linearGradient>
<linearGradient id="paint14_linear_50_2182" x1="20.4094" y1="27.1502" x2="22.1357" y2="27.1502" gradientUnits="userSpaceOnUse">
<stop offset="0.2888" stop-color="white"/>
<stop offset="0.7796" stop-color="white" stop-opacity="0"/>
</linearGradient>
</defs>
</svg>
