<svg width="24" height="24" viewBox="0 0 24 24" fill="none" xmlns="http://www.w3.org/2000/svg">
<g clip-path="url(#clip0_523_10250)">
<path d="M20.3689 6.93899C20.1873 6.24004 19.604 5.54108 18.5539 4.76301C17.7111 4.14318 16.8166 3.78711 16.1035 3.78711C15.9609 3.78711 15.8313 3.8003 15.7016 3.82667C15.3775 3.89261 15.0923 4.12999 14.9108 4.48606C14.6904 4.90807 14.6385 5.47515 14.7812 5.81802C14.833 5.92352 14.8978 6.0554 14.9756 6.17409C14.2885 6.59611 13.8995 6.71479 13.8477 6.72798C15.6368 7.33461 17.1277 8.60064 18.0612 10.2491L18.0742 10.0909C18.113 9.65566 18.2427 9.15453 18.4242 8.6402C18.6057 8.69296 18.7872 8.71934 18.9687 8.71934C19.4484 8.71934 19.8633 8.52152 20.1226 8.16545C20.3818 7.80938 20.4855 7.33461 20.3689 6.93899Z" fill="#5E12A0"/>
<path d="M18.5024 8.25925C19.6822 8.58894 20.1619 7.66579 20.0062 7.04597C19.8377 6.42614 19.2932 5.79313 18.3338 5.08099C17.3745 4.36885 16.4022 4.07872 15.7798 4.21059C15.1576 4.34248 14.976 5.30518 15.1316 5.67444C15.1964 5.8195 15.339 6.03051 15.5335 6.26789C15.2872 6.43933 15.0538 6.57121 14.8594 6.68989C16.0521 7.23059 17.0893 8.07461 17.8671 9.12964C17.9579 8.77357 18.0875 8.45705 18.2042 8.18012C18.2949 8.1933 18.3987 8.21968 18.5024 8.25925Z" fill="url(#paint0_radial_523_10250)"/>
<path d="M11.7472 21.1814C15.7497 21.1814 18.9943 17.8809 18.9943 13.8095C18.9943 9.73804 15.7497 6.4375 11.7472 6.4375C7.74468 6.4375 4.5 9.73804 4.5 13.8095C4.5 17.8809 7.74468 21.1814 11.7472 21.1814Z" fill="url(#paint1_radial_523_10250)"/>
<path opacity="0.6" d="M19.4097 6.43893C18.4244 5.38392 17.5946 5.10697 16.5964 4.88278C15.8185 4.69815 16.0259 4.24977 16.9723 4.34208C16.5186 4.18383 16.0908 4.14427 15.7796 4.2102C15.1573 4.34208 14.9758 5.30479 15.1314 5.67405C15.1962 5.81911 15.3388 6.03011 15.5333 6.2675C15.1832 6.50488 14.8851 6.67632 14.6387 6.8082C14.7554 6.86095 14.898 6.92688 15.0665 7.0192C15.5073 7.25658 15.987 7.65221 15.987 7.65221C15.261 7.0192 15.4166 6.72907 16.4149 6.01693C16.726 5.79274 17.2964 5.81911 17.828 6.09606C18.3596 6.373 18.9818 7.07195 18.9818 7.07195L18.3855 8.23247C18.4244 8.24566 18.4632 8.25884 18.5021 8.27204C18.8781 8.37754 19.1763 8.35116 19.4097 8.25885C19.682 8.08741 20.395 7.50715 19.4097 6.43893Z" fill="#A98698"/>
<path d="M16.5837 5.51433C16.843 5.61983 17.1801 5.80446 17.595 6.08141C18.0876 6.4111 18.5154 6.78036 18.7877 7.07048C18.3339 7.67712 18.0357 8.50796 17.8543 9.08821C17.945 9.22009 18.0487 9.35197 18.1395 9.48385C18.2302 9.15416 18.3858 8.66621 18.5932 8.17826C18.6451 8.19144 18.7099 8.19144 18.7747 8.19144C18.9303 8.19144 19.1118 8.16507 19.2544 8.04638C19.3581 7.96725 19.4748 7.82219 19.4618 7.55843C19.4618 7.30787 19.2674 6.99136 18.8655 6.60891C18.5803 6.33198 18.1913 6.02866 17.8024 5.75171C16.6874 5.00001 15.9096 4.789 15.5595 5.14507C15.3262 5.38245 15.3521 5.67259 15.4299 5.88359C15.015 6.16053 14.665 6.35835 14.4316 6.49023C14.5872 6.54298 14.7298 6.60891 14.8854 6.67485C15.3002 6.45066 15.8966 6.06821 16.5837 5.51433ZM19.034 7.40018C19.0729 7.46612 19.0859 7.53206 19.0859 7.57162C19.0859 7.69032 19.047 7.72987 19.021 7.75625C18.9692 7.79582 18.8655 7.82219 18.7747 7.82219C18.8525 7.66394 18.9433 7.53206 19.034 7.40018ZM15.8318 5.4352C15.8707 5.39564 15.9744 5.36926 16.143 5.39564C16.0133 5.50114 15.8837 5.59346 15.754 5.68577C15.741 5.59346 15.754 5.50114 15.8318 5.4352Z" fill="#5E12A0"/>
<path d="M11.7473 6.00195C7.50787 6.00195 4.07227 9.49671 4.07227 13.8091C4.07227 18.1215 7.50787 21.6163 11.7473 21.6163C15.9867 21.6163 19.4222 18.1215 19.4222 13.8091C19.4222 9.49671 15.9737 6.00195 11.7473 6.00195ZM11.7473 21.1811C7.74123 21.1811 4.5001 17.8842 4.5001 13.8091C4.5001 9.73409 7.74123 6.43714 11.7473 6.43714C15.7533 6.43714 18.9945 9.73409 18.9945 13.8091C18.9945 17.8842 15.7404 21.1811 11.7473 21.1811Z" fill="#5E12A0"/>
<path opacity="0.6" d="M11.7472 21.1814C15.7497 21.1814 18.9943 17.8809 18.9943 13.8095C18.9943 9.73804 15.7497 6.4375 11.7472 6.4375C7.74468 6.4375 4.5 9.73804 4.5 13.8095C4.5 17.8809 7.74468 21.1814 11.7472 21.1814Z" fill="url(#paint2_linear_523_10250)"/>
<path opacity="0.6" d="M11.6957 20.2863C7.74152 19.6401 5.05786 15.8552 5.70608 11.8329C5.99131 10.0526 6.8729 8.53599 8.11749 7.44141C6.30245 8.50961 4.95414 10.3691 4.59113 12.6374C3.95587 16.6596 6.63953 20.4446 10.5808 21.0908C12.7847 21.46 14.9109 20.7611 16.4796 19.3895C15.0924 20.2072 13.4071 20.5633 11.6957 20.2863Z" fill="#A98698"/>
<path opacity="0.6" d="M12.9022 6.54442C11.0742 6.2411 9.29805 6.66311 7.84602 7.59944C7.82009 7.62581 7.79416 7.65219 7.79416 7.65219C8.35163 7.30931 9.1684 7.00599 9.1684 7.00599C7.06814 8.24564 6.41992 9.65673 6.41992 9.65673C7.23669 8.04782 9.63512 6.91368 11.515 6.83454C13.3948 6.75542 14.6264 7.3225 16.1303 8.54895C17.6342 9.78861 18.5418 12.3206 18.451 14.3252C18.3732 16.3298 17.3361 17.9519 17.3361 17.9519C18.0491 17.0155 18.4769 16.3298 18.7492 15.6308C18.8011 15.4198 18.853 15.2088 18.8788 14.9846C19.5271 10.9755 16.8564 7.19061 12.9022 6.54442Z" fill="url(#paint3_linear_523_10250)"/>
<path d="M18.6319 13.7441C18.6319 17.6081 15.5463 20.7468 11.7477 20.7468C7.94911 20.7468 4.85059 17.6081 4.85059 13.7441H18.6319Z" fill="url(#paint4_linear_523_10250)"/>
<g opacity="0.6">
<path opacity="0.6" d="M18.0875 13.7461C18.0875 17.5178 15.1575 20.6037 11.4756 20.7488C11.5663 20.7488 11.6571 20.7488 11.7478 20.7488C15.5465 20.7488 18.632 17.6101 18.632 13.7461H18.0875Z" fill="url(#paint5_linear_523_10250)"/>
</g>
<g opacity="0.7">
<path opacity="0.7" d="M5.82293 13.7461H4.85059C4.85059 17.6101 7.93615 20.7488 11.7348 20.7488C11.9033 20.7488 12.0589 20.7488 12.2144 20.7355C8.6492 20.4718 5.82293 17.4386 5.82293 13.7461Z" fill="url(#paint6_linear_523_10250)"/>
</g>
<path d="M18.619 13.8099C18.619 13.0055 17.2447 12.5438 15.4167 12.3857C14.0943 12.2801 12.759 12.412 11.2291 12.8868C9.90676 13.2824 8.71402 13.2165 7.8454 13.1109C5.91367 12.8868 4.85059 12.8604 4.85059 13.8099C4.85059 15.1815 7.59906 16.8958 11.7218 16.3024C13.8091 15.9991 14.8852 15.3793 16.1168 14.9572C17.4521 14.5089 18.619 14.522 18.619 13.8099Z" fill="url(#paint7_linear_523_10250)"/>
<path d="M14.0037 10.4871C14.6482 10.4871 15.1705 9.95568 15.1705 9.30018C15.1705 8.64468 14.6482 8.11328 14.0037 8.11328C13.3593 8.11328 12.8369 8.64468 12.8369 9.30018C12.8369 9.95568 13.3593 10.4871 14.0037 10.4871Z" fill="white"/>
<path d="M15.9086 11.3714C16.1807 11.3714 16.4013 11.147 16.4013 10.8703C16.4013 10.5935 16.1807 10.3691 15.9086 10.3691C15.6366 10.3691 15.416 10.5935 15.416 10.8703C15.416 11.147 15.6366 11.3714 15.9086 11.3714Z" fill="white"/>
<g opacity="0.6">
<path opacity="0.6" d="M17.6729 8.35149C17.6599 8.35149 17.647 8.35149 17.647 8.35149C17.5692 8.3383 17.5174 8.25917 17.5303 8.16686C17.647 7.56022 18.1396 6.97996 18.1656 6.95358C18.2174 6.88765 18.3212 6.88765 18.373 6.9404C18.4378 6.99315 18.4378 7.09865 18.386 7.1514C18.373 7.16458 17.9192 7.70529 17.8156 8.2328C17.8026 8.31192 17.7378 8.35149 17.6729 8.35149Z" fill="url(#paint8_linear_523_10250)"/>
</g>
<path opacity="0.2" d="M11.2702 19.3088C11.4707 19.3088 11.6332 19.1435 11.6332 18.9396C11.6332 18.7356 11.4707 18.5703 11.2702 18.5703C11.0698 18.5703 10.9072 18.7356 10.9072 18.9396C10.9072 19.1435 11.0698 19.3088 11.2702 19.3088Z" fill="white"/>
<g opacity="0.4">
<path opacity="0.6" d="M11.0602 19.1814C10.9176 19.0363 10.9176 18.799 11.0602 18.6539C11.0861 18.6275 11.112 18.6143 11.138 18.5879C11.0861 18.6011 11.0472 18.6275 11.0083 18.667C10.8657 18.8121 10.8657 19.0495 11.0083 19.1945C11.125 19.3132 11.3065 19.3396 11.4491 19.2605C11.3195 19.3132 11.1639 19.2869 11.0602 19.1814Z" fill="url(#paint9_linear_523_10250)"/>
</g>
<path opacity="0.3" d="M11.3981 18.834C11.4411 18.834 11.4759 18.7986 11.4759 18.7549C11.4759 18.7112 11.4411 18.6758 11.3981 18.6758C11.3551 18.6758 11.3203 18.7112 11.3203 18.7549C11.3203 18.7986 11.3551 18.834 11.3981 18.834Z" fill="white"/>
<path opacity="0.2" d="M13.1628 19.1253C13.3633 19.1253 13.5258 18.9599 13.5258 18.756C13.5258 18.552 13.3633 18.3867 13.1628 18.3867C12.9623 18.3867 12.7998 18.552 12.7998 18.756C12.7998 18.9599 12.9623 19.1253 13.1628 19.1253Z" fill="white"/>
<g opacity="0.4">
<path opacity="0.6" d="M12.9537 18.9939C12.8111 18.8488 12.8111 18.6114 12.9537 18.4663C12.9796 18.44 13.0056 18.4267 13.0315 18.4004C12.9796 18.4136 12.9407 18.44 12.9018 18.4795C12.7593 18.6245 12.7593 18.8619 12.9018 19.007C13.0186 19.1257 13.2 19.152 13.3427 19.0729C13.213 19.1257 13.0575 19.0993 12.9537 18.9939Z" fill="url(#paint10_linear_523_10250)"/>
</g>
<path opacity="0.3" d="M13.2907 18.6504C13.3336 18.6504 13.3684 18.615 13.3684 18.5712C13.3684 18.5276 13.3336 18.4922 13.2907 18.4922C13.2477 18.4922 13.2129 18.5276 13.2129 18.5712C13.2129 18.615 13.2477 18.6504 13.2907 18.6504Z" fill="white"/>
<path opacity="0.2" d="M12.2273 19.9816C12.3777 19.9816 12.4996 19.8576 12.4996 19.7047C12.4996 19.5517 12.3777 19.4277 12.2273 19.4277C12.077 19.4277 11.9551 19.5517 11.9551 19.7047C11.9551 19.8576 12.077 19.9816 12.2273 19.9816Z" fill="white"/>
<g opacity="0.4">
<path opacity="0.6" d="M12.0718 19.8805C11.968 19.775 11.968 19.5904 12.0718 19.4849C12.0847 19.4717 12.1106 19.4586 12.1236 19.4453C12.0847 19.4586 12.0588 19.4849 12.0329 19.5113C11.9292 19.6167 11.9292 19.8014 12.0329 19.9069C12.1236 19.9992 12.2533 20.0124 12.37 19.9465C12.2662 19.9861 12.1495 19.9597 12.0718 19.8805Z" fill="url(#paint11_linear_523_10250)"/>
</g>
<path opacity="0.3" d="M12.3177 19.6138C12.3465 19.6138 12.3698 19.5901 12.3698 19.5609C12.3698 19.5316 12.3465 19.5078 12.3177 19.5078C12.289 19.5078 12.2656 19.5316 12.2656 19.5609C12.2656 19.5901 12.289 19.6138 12.3177 19.6138Z" fill="white"/>
<path opacity="0.2" d="M13.8992 19.7843C14.0495 19.7843 14.1714 19.6603 14.1714 19.5074C14.1714 19.3544 14.0495 19.2305 13.8992 19.2305C13.7489 19.2305 13.627 19.3544 13.627 19.5074C13.627 19.6603 13.7489 19.7843 13.8992 19.7843Z" fill="white"/>
<g opacity="0.4">
<path opacity="0.6" d="M13.7446 19.6813C13.641 19.5758 13.641 19.3912 13.7446 19.2857C13.7576 19.2725 13.7835 19.2593 13.7965 19.2461C13.7576 19.2593 13.7316 19.2857 13.7057 19.3121C13.602 19.4175 13.602 19.6022 13.7057 19.7077C13.7965 19.8 13.9262 19.8132 14.0428 19.7473C13.9391 19.7868 13.8224 19.7604 13.7446 19.6813Z" fill="url(#paint12_linear_523_10250)"/>
</g>
<path opacity="0.3" d="M13.9906 19.4146C14.0194 19.4146 14.0427 19.3909 14.0427 19.3616C14.0427 19.3323 14.0194 19.3086 13.9906 19.3086C13.9618 19.3086 13.9385 19.3323 13.9385 19.3616C13.9385 19.3909 13.9618 19.4146 13.9906 19.4146Z" fill="white"/>
<path opacity="0.2" d="M9.72528 19.1781C10.0546 19.1781 10.3216 18.9065 10.3216 18.5715C10.3216 18.2365 10.0546 17.9648 9.72528 17.9648C9.39591 17.9648 9.12891 18.2365 9.12891 18.5715C9.12891 18.9065 9.39591 19.1781 9.72528 19.1781Z" fill="white"/>
<g opacity="0.4">
<path opacity="0.6" d="M9.38856 18.9535C9.15519 18.7161 9.15519 18.3336 9.38856 18.0963C9.42745 18.0567 9.46634 18.0303 9.5182 18.0039C9.44041 18.0303 9.37559 18.083 9.31077 18.1358C9.0774 18.3732 9.0774 18.7556 9.31077 18.993C9.50523 19.1909 9.80342 19.2304 10.0368 19.0853C9.81639 19.1776 9.55709 19.138 9.38856 18.9535Z" fill="url(#paint13_linear_523_10250)"/>
</g>
<path opacity="0.3" d="M9.93238 18.3868C10.004 18.3868 10.062 18.3277 10.062 18.2549C10.062 18.1821 10.004 18.123 9.93238 18.123C9.86077 18.123 9.80273 18.1821 9.80273 18.2549C9.80273 18.3277 9.86077 18.3868 9.93238 18.3868Z" fill="white"/>
<path opacity="0.2" d="M15.0553 17.6879C15.3848 17.6879 15.6517 17.4163 15.6517 17.0812C15.6517 16.7462 15.3848 16.4746 15.0553 16.4746C14.726 16.4746 14.459 16.7462 14.459 17.0812C14.459 17.4163 14.726 17.6879 15.0553 17.6879Z" fill="white"/>
<g opacity="0.4">
<path opacity="0.6" d="M14.704 17.4652C14.4706 17.2278 14.4706 16.8454 14.704 16.608C14.7429 16.5684 14.7818 16.542 14.8336 16.5156C14.7558 16.542 14.691 16.5948 14.6262 16.6476C14.3928 16.885 14.3928 17.2674 14.6262 17.5048C14.8207 17.7026 15.1188 17.7421 15.3522 17.597C15.1318 17.6894 14.8854 17.6499 14.704 17.4652Z" fill="url(#paint14_linear_523_10250)"/>
</g>
<path opacity="0.3" d="M15.2615 16.8966C15.3331 16.8966 15.3911 16.8375 15.3911 16.7647C15.3911 16.6918 15.3331 16.6328 15.2615 16.6328C15.1899 16.6328 15.1318 16.6918 15.1318 16.7647C15.1318 16.8375 15.1899 16.8966 15.2615 16.8966Z" fill="white"/>
</g>
<path opacity="0.6" fill-rule="evenodd" clip-rule="evenodd" d="M7.04746 22.8516C2.89281 20.98 0 16.8019 0 11.9534C0 5.35591 5.35636 -0.000459671 11.9538 -0.000459671C15.7677 -0.000459671 19.167 1.78962 21.3542 4.57748C22.0684 5.58434 22.5462 7.69526 20.727 9.84144C19.7084 11.0428 17.3569 12.4488 14.0198 13.9795C11.4313 15.1502 8.88224 16.5465 7.25234 18.1937C6.64282 18.8098 6.24058 19.503 6.0327 20.1626C5.72848 21.1281 6.05792 22.3679 7.04746 22.8516Z" fill="#FF984D"/>
<defs>
<radialGradient id="paint0_radial_523_10250" cx="0" cy="0" r="1" gradientUnits="userSpaceOnUse" gradientTransform="translate(19.7698 6.21513) scale(5.79442 5.8942)">
<stop stop-color="#FFEAFF" stop-opacity="0.6"/>
<stop offset="0.6807" stop-color="#A087C9"/>
<stop offset="1" stop-color="#10002F"/>
</radialGradient>
<radialGradient id="paint1_radial_523_10250" cx="0" cy="0" r="1" gradientUnits="userSpaceOnUse" gradientTransform="translate(18.2524 12.5003) scale(16.2281 17.5565)">
<stop stop-color="#FFEAFF" stop-opacity="0.6"/>
<stop offset="0.6807" stop-color="#A087C9"/>
<stop offset="1" stop-color="#10002F"/>
</radialGradient>
<linearGradient id="paint2_linear_523_10250" x1="10.5847" y1="21.0769" x2="12.9811" y2="6.54278" gradientUnits="userSpaceOnUse">
<stop stop-color="#81FFFF"/>
<stop offset="0.6202" stop-color="white" stop-opacity="0"/>
</linearGradient>
<linearGradient id="paint3_linear_523_10250" x1="16.8558" y1="8.80435" x2="10.7696" y2="14.294" gradientUnits="userSpaceOnUse">
<stop offset="0.2888" stop-color="white"/>
<stop offset="0.7796" stop-color="white" stop-opacity="0"/>
</linearGradient>
<linearGradient id="paint4_linear_523_10250" x1="4.85642" y1="17.2413" x2="18.6286" y2="17.2413" gradientUnits="userSpaceOnUse">
<stop stop-color="#0002E9"/>
<stop offset="0.9952" stop-color="#FF00C7"/>
</linearGradient>
<linearGradient id="paint5_linear_523_10250" x1="19.2806" y1="14.3605" x2="11.6639" y2="21.4369" gradientUnits="userSpaceOnUse">
<stop offset="0.2888" stop-color="white"/>
<stop offset="0.7796" stop-color="white" stop-opacity="0"/>
</linearGradient>
<linearGradient id="paint6_linear_523_10250" x1="4.85642" y1="17.2433" x2="12.2244" y2="17.2433" gradientUnits="userSpaceOnUse">
<stop stop-color="#000292"/>
<stop offset="0.9952" stop-color="#7D00C7"/>
</linearGradient>
<linearGradient id="paint7_linear_523_10250" x1="4.86566" y1="14.3917" x2="18.6193" y2="14.3917" gradientUnits="userSpaceOnUse">
<stop stop-color="#000292"/>
<stop offset="0.9952" stop-color="#BE00C7"/>
</linearGradient>
<linearGradient id="paint8_linear_523_10250" x1="18.3941" y1="6.88936" x2="17.3809" y2="8.50788" gradientUnits="userSpaceOnUse">
<stop offset="0.2888" stop-color="white"/>
<stop offset="0.7796" stop-color="white" stop-opacity="0"/>
</linearGradient>
<linearGradient id="paint9_linear_523_10250" x1="10.901" y1="18.9553" x2="11.4495" y2="18.9553" gradientUnits="userSpaceOnUse">
<stop offset="0.2888" stop-color="white"/>
<stop offset="0.7796" stop-color="white" stop-opacity="0"/>
</linearGradient>
<linearGradient id="paint10_linear_523_10250" x1="12.7932" y1="18.7652" x2="13.3417" y2="18.7652" gradientUnits="userSpaceOnUse">
<stop offset="0.2888" stop-color="white"/>
<stop offset="0.7796" stop-color="white" stop-opacity="0"/>
</linearGradient>
<linearGradient id="paint11_linear_523_10250" x1="11.9478" y1="19.7117" x2="12.3596" y2="19.7117" gradientUnits="userSpaceOnUse">
<stop offset="0.2888" stop-color="white"/>
<stop offset="0.7796" stop-color="white" stop-opacity="0"/>
</linearGradient>
<linearGradient id="paint12_linear_523_10250" x1="13.6207" y1="19.5125" x2="14.0325" y2="19.5125" gradientUnits="userSpaceOnUse">
<stop offset="0.2888" stop-color="white"/>
<stop offset="0.7796" stop-color="white" stop-opacity="0"/>
</linearGradient>
<linearGradient id="paint13_linear_523_10250" x1="9.12979" y1="18.5865" x2="10.0256" y2="18.5865" gradientUnits="userSpaceOnUse">
<stop offset="0.2888" stop-color="white"/>
<stop offset="0.7796" stop-color="white" stop-opacity="0"/>
</linearGradient>
<linearGradient id="paint14_linear_523_10250" x1="14.4502" y1="17.0977" x2="15.346" y2="17.0977" gradientUnits="userSpaceOnUse">
<stop offset="0.2888" stop-color="white"/>
<stop offset="0.7796" stop-color="white" stop-opacity="0"/>
</linearGradient>
<clipPath id="clip0_523_10250">
<rect width="16.9807" height="18.6788" fill="white" transform="translate(3.86035 3.00977)"/>
</clipPath>
</defs>
</svg>
