<svg width="36" height="36" fill="none" xmlns="http://www.w3.org/2000/svg"><g clip-path="url(#prefix__clip0_49_707)"><path d="M18 36c9.941 0 18-8.059 18-18S27.941 0 18 0 0 8.059 0 18s8.059 18 18 18z" fill="#2E3148"/><path d="M18 28.444c5.767 0 10.444-4.676 10.444-10.444 0-5.769-4.677-10.445-10.445-10.445-5.768 0-10.444 4.676-10.444 10.445 0 5.768 4.676 10.444 10.444 10.444z" fill="#1B1E36"/><path d="M18.037 2.296c-1.943 0-3.519 7.048-3.519 15.741 0 8.694 1.576 15.74 3.519 15.74s3.518-7.047 3.518-15.74c0-8.693-1.575-15.74-3.518-15.74zm.243 30.593c-.223.297-.445.075-.445.075C16.94 31.927 16.493 30 16.493 30 14.928 24.964 15.3 14.149 15.3 14.149c.736-8.586 2.074-10.614 2.53-11.065a.278.278 0 01.356-.028c.66.468 1.214 2.426 1.214 2.426 1.637 6.074 1.489 11.777 1.489 11.777.148 4.963-.82 10.519-.82 10.519-.746 4.222-1.79 5.111-1.79 5.111z" fill="#6F7390"/><path d="M31.69 10.204c-.967-1.686-7.864.454-15.408 4.78-7.544 4.326-12.866 9.2-11.9 10.886.968 1.685 7.865-.455 15.409-4.781 7.544-4.326 12.866-9.2 11.9-10.885zM5.275 25.638c-.37-.046-.286-.35-.286-.35.454-1.293 1.9-2.64 1.9-2.64 3.592-3.864 13.158-8.922 13.158-8.922 7.813-3.635 10.24-3.482 10.855-3.312a.278.278 0 01.202.296c-.074.807-1.5 2.261-1.5 2.261-4.452 4.444-9.473 7.154-9.473 7.154-4.231 2.6-9.532 4.523-9.532 4.523-4.033 1.453-5.323.99-5.323.99z" fill="#6F7390"/><path d="M31.657 25.926c.975-1.682-4.333-6.578-11.851-10.937-7.518-4.358-14.413-6.525-15.387-4.841-.974 1.684 4.333 6.578 11.855 10.936 7.522 4.359 14.409 6.526 15.383 4.842zM5.065 10.798c-.144-.342.16-.424.16-.424 1.345-.254 3.236.325 3.236.325 5.143 1.171 14.313 6.916 14.313 6.916 7.061 4.94 8.144 7.117 8.306 7.735a.278.278 0 01-.154.322c-.736.337-2.708-.165-2.708-.165-6.078-1.63-10.939-4.615-10.939-4.615-4.367-2.356-8.685-5.98-8.685-5.98-3.282-2.763-3.528-4.11-3.528-4.11l-.001-.004z" fill="#6F7390"/><path d="M18 19.852a1.852 1.852 0 100-3.704 1.852 1.852 0 000 3.704zM25.592 12c.594 0 1.074-.497 1.074-1.11 0-.615-.48-1.112-1.074-1.112-.593 0-1.074.497-1.074 1.111S25 12 25.592 12zM7.963 15.777c.594 0 1.074-.497 1.074-1.11 0-.614-.48-1.112-1.074-1.112-.593 0-1.074.498-1.074 1.111 0 .614.481 1.111 1.074 1.111zM15.815 29.407c.593 0 1.074-.497 1.074-1.111s-.48-1.111-1.074-1.111c-.593 0-1.074.497-1.074 1.111s.48 1.111 1.074 1.111z" fill="#B7B9C8"/></g><defs><clipPath id="prefix__clip0_49_707"><path fill="#fff" d="M0 0h36v36H0z"/></clipPath></defs></svg>