<svg width="33" height="36" fill="none" xmlns="http://www.w3.org/2000/svg"><path d="M31.818 7.575c-.35-1.347-1.474-2.694-3.498-4.194-1.625-1.194-3.349-1.88-4.723-1.88-.275 0-.525.025-.774.076-.625.127-1.175.584-1.525 1.27-.424.814-.524 1.907-.25 2.568.1.203.225.457.375.686-1.324.813-2.074 1.042-2.174 1.067 3.449 1.17 6.322 3.61 8.121 6.787l.025-.305c.075-.839.325-1.805.675-2.796.35.102.7.152 1.05.152.924 0 1.723-.38 2.223-1.067.5-.686.7-1.601.475-2.364z" fill="#5E12A0"/><path d="M28.22 10.117c2.273.636 3.198-1.143 2.898-2.338-.325-1.195-1.374-2.415-3.223-3.787-1.85-1.373-3.723-1.932-4.923-1.678-1.2.254-1.549 2.11-1.25 2.822.126.28.4.686.775 1.143-.474.33-.924.585-1.299.814a14.82 14.82 0 015.797 4.702c.175-.686.425-1.296.65-1.83.175.025.375.076.575.152z" fill="url(#prefix__paint0_radial_49_725)"/><path d="M15.201 35.026c7.714 0 13.968-6.362 13.968-14.209 0-7.846-6.254-14.208-13.968-14.208S1.234 12.971 1.234 20.817c0 7.847 6.253 14.209 13.967 14.209z" fill="url(#prefix__paint1_radial_49_725)"/><path opacity=".6" d="M29.969 6.609c-1.9-2.033-3.499-2.567-5.422-3-1.5-.355-1.1-1.22.724-1.041-.874-.305-1.699-.382-2.299-.254-1.2.254-1.549 2.11-1.249 2.82.125.28.4.687.775 1.145-.675.457-1.25.788-1.725 1.042.225.101.5.228.825.406.85.458 1.774 1.22 1.774 1.22-1.4-1.22-1.1-1.779.825-3.151.6-.432 1.699-.382 2.723.152 1.025.534 2.224 1.881 2.224 1.881l-1.15 2.237.226.076c.724.203 1.299.152 1.749-.025.524-.33 1.899-1.45 0-3.508z" fill="#A98698"/><path d="M24.521 4.83c.5.203 1.15.56 1.95 1.093.949.636 1.773 1.347 2.298 1.906-.874 1.17-1.45 2.77-1.799 3.89.175.253.375.508.55.762.175-.636.474-1.576.874-2.517.1.026.225.026.35.026.3 0 .65-.051.925-.28.2-.152.424-.432.4-.94 0-.483-.375-1.093-1.15-1.83-.55-.534-1.3-1.119-2.049-1.652-2.149-1.45-3.648-1.856-4.323-1.17-.45.458-.4 1.017-.25 1.424-.799.534-1.474.915-1.923 1.169.3.102.574.229.874.356.8-.432 1.949-1.17 3.273-2.237zm4.723 3.635c.075.127.1.254.1.33 0 .229-.075.305-.125.356-.1.076-.3.127-.475.127.15-.305.325-.56.5-.813zm-6.172-3.787c.075-.077.275-.127.6-.077-.25.204-.5.382-.75.56-.025-.178 0-.356.15-.483z" fill="#5E12A0"/><path d="M15.201 5.77C7.031 5.77.41 12.506.41 20.817s6.622 15.047 14.792 15.047c8.171 0 14.793-6.735 14.793-15.047 0-8.311-6.647-15.047-14.793-15.047zm0 29.255c-7.72 0-13.967-6.354-13.967-14.208S7.48 6.61 15.2 6.61c7.721 0 13.968 6.354 13.968 14.208s-6.271 14.208-13.968 14.208z" fill="#5E12A0"/><path opacity=".6" d="M15.201 35.026c7.714 0 13.968-6.362 13.968-14.209 0-7.846-6.254-14.208-13.968-14.208S1.234 12.971 1.234 20.817c0 7.847 6.253 14.209 13.967 14.209z" fill="url(#prefix__paint2_linear_49_725)"/><path opacity=".6" d="M15.101 33.297c-7.62-1.245-12.793-8.54-11.543-16.292a14.188 14.188 0 014.647-8.464A14.18 14.18 0 001.41 18.556C.184 26.308 5.357 33.603 12.952 34.848c4.248.712 8.346-.635 11.37-3.279a13.81 13.81 0 01-9.22 1.729z" fill="#A98698"/><path opacity=".6" d="M17.425 6.813c-3.523-.585-6.946.228-9.745 2.033l-.1.102c1.075-.661 2.65-1.246 2.65-1.246-4.049 2.39-5.298 5.109-5.298 5.109 1.574-3.1 6.197-5.287 9.82-5.44 3.623-.152 5.996.941 8.895 3.305 2.898 2.39 4.648 7.27 4.473 11.133-.15 3.863-2.15 6.99-2.15 6.99 1.375-1.805 2.2-3.127 2.724-4.474.1-.407.2-.813.25-1.246 1.25-7.726-3.898-15.021-11.519-16.266z" fill="url(#prefix__paint3_linear_49_725)"/><path d="M28.47 20.69c0 7.447-5.948 13.496-13.269 13.496S1.908 28.136 1.908 20.69H28.47z" fill="url(#prefix__paint4_linear_49_725)"/><path opacity=".6" d="M27.42 20.69c0 7.269-5.647 13.216-12.744 13.496h.525c7.321 0 13.268-6.05 13.268-13.496h-1.05z" fill="url(#prefix__paint5_linear_49_725)"/><path opacity=".7" d="M3.782 20.69H1.908c0 7.447 5.947 13.496 13.268 13.496.325 0 .625 0 .925-.026-6.872-.508-12.319-6.354-12.319-13.47z" fill="url(#prefix__paint6_linear_49_725)"/><path d="M28.444 20.817c0-1.55-2.648-2.44-6.172-2.745-2.548-.203-5.122.05-8.07.966-2.549.762-4.848.635-6.522.432-3.723-.432-5.772-.483-5.772 1.347 0 2.644 5.297 5.948 13.243 4.804 4.023-.585 6.097-1.78 8.47-2.593 2.574-.864 4.823-.838 4.823-2.21z" fill="url(#prefix__paint7_linear_49_725)"/><path d="M19.55 14.412c1.241 0 2.248-1.024 2.248-2.287s-1.007-2.288-2.249-2.288c-1.242 0-2.249 1.025-2.249 2.288s1.007 2.287 2.25 2.287zM23.222 16.116c.525 0 .95-.433.95-.966a.958.958 0 00-.95-.966.958.958 0 00-.95.966c0 .533.426.966.95.966z" fill="#fff"/><path opacity=".6" d="M26.62 10.296h-.05c-.15-.026-.249-.178-.224-.356.225-1.17 1.174-2.288 1.224-2.339.1-.127.3-.127.4-.025a.289.289 0 01.025.407c-.025.025-.9 1.067-1.1 2.084a.269.269 0 01-.274.229z" fill="url(#prefix__paint8_linear_49_725)"/><path opacity=".2" d="M14.281 31.416c.387 0 .7-.318.7-.711a.706.706 0 00-.7-.712c-.386 0-.7.319-.7.712 0 .393.314.711.7.711z" fill="#fff"/><g opacity=".4"><path opacity=".6" d="M13.877 31.169a.73.73 0 010-1.017c.05-.05.1-.076.15-.127a.519.519 0 00-.25.152.73.73 0 000 1.017c.225.229.575.28.85.127a.69.69 0 01-.75-.152z" fill="url(#prefix__paint9_linear_49_725)"/></g><path opacity=".3" d="M14.527 30.5c.083 0 .15-.067.15-.152a.151.151 0 00-.15-.152.151.151 0 00-.15.152c0 .085.067.153.15.153z" fill="#fff"/><path opacity=".2" d="M17.93 31.06c.386 0 .699-.319.699-.712a.706.706 0 00-.7-.711c-.386 0-.7.318-.7.711 0 .393.314.712.7.712z" fill="#fff"/><g opacity=".4"><path opacity=".6" d="M17.525 30.81a.73.73 0 010-1.016c.05-.05.1-.076.15-.127a.517.517 0 00-.25.153.73.73 0 000 1.016c.225.23.575.28.85.127a.69.69 0 01-.75-.152z" fill="url(#prefix__paint10_linear_49_725)"/></g><path opacity=".3" d="M18.175 30.145c.083 0 .15-.069.15-.153a.151.151 0 00-.15-.152.151.151 0 00-.15.152c0 .084.067.153.15.153z" fill="#fff"/><path opacity=".2" d="M16.126 32.713a.53.53 0 00.524-.534.53.53 0 00-.524-.534.53.53 0 00-.525.534.53.53 0 00.525.534z" fill="#fff"/><g opacity=".4"><path opacity=".6" d="M15.826 32.515a.56.56 0 010-.763c.025-.025.075-.05.1-.076a.448.448 0 00-.175.127.56.56 0 000 .762c.175.178.425.204.65.077a.537.537 0 01-.575-.127z" fill="url(#prefix__paint11_linear_49_725)"/></g><path opacity=".3" d="M16.3 32a.1.1 0 00.1-.101.1.1 0 00-.1-.102.1.1 0 00-.1.102.1.1 0 00.1.102z" fill="#fff"/><path opacity=".2" d="M19.349 32.33a.53.53 0 00.525-.533.53.53 0 00-.525-.534.53.53 0 00-.525.534.53.53 0 00.525.534z" fill="#fff"/><g opacity=".4"><path opacity=".6" d="M19.05 32.133a.56.56 0 010-.763c.024-.025.074-.05.1-.076a.45.45 0 00-.176.127.56.56 0 000 .763c.175.177.425.203.65.076a.537.537 0 01-.575-.127z" fill="url(#prefix__paint12_linear_49_725)"/></g><path opacity=".3" d="M19.524 31.62a.1.1 0 00.1-.102.1.1 0 00-.1-.101.1.1 0 00-.1.101.1.1 0 00.1.102z" fill="#fff"/><path opacity=".2" d="M11.303 31.162a1.16 1.16 0 001.15-1.17 1.16 1.16 0 00-1.15-1.169 1.16 1.16 0 00-1.15 1.17c0 .645.515 1.169 1.15 1.169z" fill="#fff"/><g opacity=".4"><path opacity=".6" d="M10.654 30.73a1.18 1.18 0 010-1.652.898.898 0 01.25-.178c-.15.05-.275.152-.4.254a1.18 1.18 0 000 1.652c.375.382.95.458 1.4.178-.425.178-.925.102-1.25-.254z" fill="url(#prefix__paint13_linear_49_725)"/></g><path opacity=".3" d="M11.703 29.637c.138 0 .25-.114.25-.254a.252.252 0 00-.25-.255.252.252 0 00-.25.255c0 .14.112.254.25.254z" fill="#fff"/><path opacity=".2" d="M21.577 28.29a1.16 1.16 0 001.15-1.169 1.16 1.16 0 00-1.15-1.17 1.16 1.16 0 00-1.15 1.17c0 .646.515 1.17 1.15 1.17z" fill="#fff"/><g opacity=".4"><path opacity=".6" d="M20.898 27.858a1.18 1.18 0 010-1.652.898.898 0 01.25-.178c-.15.051-.274.153-.4.255a1.18 1.18 0 000 1.652c.375.381.95.457 1.4.178-.425.178-.9.101-1.25-.255z" fill="url(#prefix__paint14_linear_49_725)"/></g><path opacity=".3" d="M21.973 26.765c.138 0 .25-.114.25-.254a.252.252 0 00-.25-.254.252.252 0 00-.25.254c0 .14.112.254.25.254z" fill="#fff"/><defs><linearGradient id="prefix__paint2_linear_49_725" x1="12.961" y1="34.824" x2="17.579" y2="6.812" gradientUnits="userSpaceOnUse"><stop stop-color="#81FFFF"/><stop offset=".62" stop-color="#fff" stop-opacity="0"/></linearGradient><linearGradient id="prefix__paint3_linear_49_725" x1="25.045" y1="11.168" x2="13.315" y2="21.749" gradientUnits="userSpaceOnUse"><stop offset=".289" stop-color="#fff"/><stop offset=".78" stop-color="#fff" stop-opacity="0"/></linearGradient><linearGradient id="prefix__paint4_linear_49_725" x1="1.919" y1="27.43" x2="28.463" y2="27.43" gradientUnits="userSpaceOnUse"><stop stop-color="#0002E9"/><stop offset=".995" stop-color="#FF00C7"/></linearGradient><linearGradient id="prefix__paint5_linear_49_725" x1="29.719" y1="21.874" x2="15.039" y2="35.512" gradientUnits="userSpaceOnUse"><stop offset=".289" stop-color="#fff"/><stop offset=".78" stop-color="#fff" stop-opacity="0"/></linearGradient><linearGradient id="prefix__paint6_linear_49_725" x1="1.919" y1="27.43" x2="16.12" y2="27.43" gradientUnits="userSpaceOnUse"><stop stop-color="#000292"/><stop offset=".995" stop-color="#7D00C7"/></linearGradient><linearGradient id="prefix__paint7_linear_49_725" x1="1.937" y1="21.938" x2="28.445" y2="21.938" gradientUnits="userSpaceOnUse"><stop stop-color="#000292"/><stop offset=".995" stop-color="#BE00C7"/></linearGradient><linearGradient id="prefix__paint8_linear_49_725" x1="28.011" y1="7.478" x2="26.058" y2="10.597" gradientUnits="userSpaceOnUse"><stop offset=".289" stop-color="#fff"/><stop offset=".78" stop-color="#fff" stop-opacity="0"/></linearGradient><linearGradient id="prefix__paint9_linear_49_725" x1="13.57" y1="30.733" x2="14.628" y2="30.733" gradientUnits="userSpaceOnUse"><stop offset=".289" stop-color="#fff"/><stop offset=".78" stop-color="#fff" stop-opacity="0"/></linearGradient><linearGradient id="prefix__paint10_linear_49_725" x1="17.216" y1="30.37" x2="18.273" y2="30.37" gradientUnits="userSpaceOnUse"><stop offset=".289" stop-color="#fff"/><stop offset=".78" stop-color="#fff" stop-opacity="0"/></linearGradient><linearGradient id="prefix__paint11_linear_49_725" x1="15.587" y1="32.189" x2="16.381" y2="32.189" gradientUnits="userSpaceOnUse"><stop offset=".289" stop-color="#fff"/><stop offset=".78" stop-color="#fff" stop-opacity="0"/></linearGradient><linearGradient id="prefix__paint12_linear_49_725" x1="18.81" y1="31.807" x2="19.604" y2="31.807" gradientUnits="userSpaceOnUse"><stop offset=".289" stop-color="#fff"/><stop offset=".78" stop-color="#fff" stop-opacity="0"/></linearGradient><linearGradient id="prefix__paint13_linear_49_725" x1="10.156" y1="30.023" x2="11.882" y2="30.023" gradientUnits="userSpaceOnUse"><stop offset=".289" stop-color="#fff"/><stop offset=".78" stop-color="#fff" stop-opacity="0"/></linearGradient><linearGradient id="prefix__paint14_linear_49_725" x1="20.409" y1="27.15" x2="22.136" y2="27.15" gradientUnits="userSpaceOnUse"><stop offset=".289" stop-color="#fff"/><stop offset=".78" stop-color="#fff" stop-opacity="0"/></linearGradient><radialGradient id="prefix__paint0_radial_49_725" cx="0" cy="0" r="1" gradientUnits="userSpaceOnUse" gradientTransform="matrix(11.1677 0 0 11.36 30.662 6.178)"><stop stop-color="#FFEAFF" stop-opacity=".6"/><stop offset=".681" stop-color="#A087C9"/><stop offset="1" stop-color="#10002F"/></radialGradient><radialGradient id="prefix__paint1_radial_49_725" cx="0" cy="0" r="1" gradientUnits="userSpaceOnUse" gradientTransform="matrix(31.2766 0 0 33.8369 27.739 18.294)"><stop stop-color="#FFEAFF" stop-opacity=".6"/><stop offset=".681" stop-color="#A087C9"/><stop offset="1" stop-color="#10002F"/></radialGradient></defs></svg>