<svg width="36" height="36" fill="none" xmlns="http://www.w3.org/2000/svg"><g clip-path="url(#prefix__clip0_4_832)"><path d="M18 36c9.941 0 18-8.059 18-18S27.941 0 18 0 0 8.059 0 18s8.059 18 18 18z" fill="url(#prefix__paint0_linear_4_832)"/><path fill-rule="evenodd" clip-rule="evenodd" d="M18 34.592c9.163 0 16.592-7.473 16.592-16.693C34.592 8.68 27.164 1.207 18 1.207c-9.164 0-16.592 7.473-16.592 16.692 0 9.22 7.428 16.693 16.592 16.693zm0-1.408c8.386 0 15.184-6.843 15.184-15.285 0-8.441-6.798-15.285-15.184-15.285S2.816 9.458 2.816 17.9c0 8.442 6.798 15.285 15.184 15.285z" fill="#fff"/><path d="M16.465 14.212v.014l-1.26-6.65-1.046-.336-.657.885 2.963 6.087zM17.149 11.437l.536 2.574.576-2.614-.563-.376-.55.416zM21.13 11.893l-.683.067-.805 2.547 1.77-1.998-.281-.616zM26.977 12.429v-1.086l-1.06-.335-4.96 4.652 6.02-3.231zM14.856 15.178l-1.475-2.213-.67.108-.108.67 2.253 1.435zM24.349 17.43l-2.642.523 2.642.577.402-.55-.402-.55zM13.676 17.966l-6.784-.858-.657.885.657.885 6.784-.912zM11.169 19.441l-.202.63.55.403 2.347-1.314-2.695.281zM11.946 21.305l-.026.67.643.228 1.877-1.97-2.494 1.072zM15.325 21.144l-1.998 1.757.175.643.683.027 1.14-2.427zM17.698 21.922l-.536 2.6.55.39.55-.402-.564-2.588zM26.99 23.504l-6.034-3.205 4.988 4.626 1.046-.335v-1.086zM20.34 24l-1.355-2.266.309 2.601.643.201.403-.536zM16.478 21.734l-2.936 6.1.657.886 1.046-.336 1.233-6.65z" fill="#fff"/></g><defs><linearGradient id="prefix__paint0_linear_4_832" x1="9.453" y1="33.788" x2="23.229" y2="0" gradientUnits="userSpaceOnUse"><stop stop-color="#3FAD6C"/><stop offset="1" stop-color="#6EC2B7"/></linearGradient><clipPath id="prefix__clip0_4_832"><path fill="#fff" d="M0 0h36v36H0z"/></clipPath></defs></svg>