<svg width="1064" height="1058" viewBox="0 0 1064 1058" fill="none" xmlns="http://www.w3.org/2000/svg">
<path d="M192.801 1057.6H768.801C874.399 1057.6 960.801 971.199 960.801 865.6V513.6C960.801 496.001 946.399 481.6 928.801 481.6C911.202 481.6 896.801 496.001 896.801 513.6V865.6C896.801 936.001 839.202 993.6 768.801 993.6H192.801C122.399 993.6 64.8008 936.001 64.8008 865.6V289.6C64.8008 219.199 122.399 161.6 192.801 161.6H544.801C562.399 161.6 576.801 147.199 576.801 129.6C576.801 112.001 562.399 97.6001 544.801 97.6001H192.801C87.2021 97.6001 0.800781 184.001 0.800781 289.6V865.6C0.800781 971.199 87.1968 1057.6 192.801 1057.6Z" fill="#D35100"/>
<path d="M1063.2 323.2V30.4V23.9989V22.4C1063.2 20.801 1063.2 19.2021 1061.6 17.5978L1060 15.9989C1060 14.4 1058.4 12.801 1058.4 12.801C1056.81 9.60316 1053.6 6.39995 1048.81 3.20209C1047.21 1.60315 1045.61 1.60315 1044 1.60315V1.59796L1039.2 -0.000976562H1037.6H1031.2H738.402C720.803 -0.000976562 706.402 14.4004 706.402 31.999C706.402 49.5977 720.803 63.999 738.402 63.999H954.402L485.602 529.599C472.799 542.401 472.799 561.599 485.602 574.402C498.404 587.204 517.602 587.204 530.404 574.402L999.204 107.202V323.202C999.204 340.8 1013.61 355.202 1031.2 355.202C1048.8 355.197 1063.2 340.8 1063.2 323.196L1063.2 323.2Z" fill="#D35100"/>
</svg>
