<svg width="35" height="35" viewBox="0 0 35 35" fill="none" xmlns="http://www.w3.org/2000/svg">
<path d="M17.5006 2.9165V17.4998H18.959V2.9165H17.5006ZM14.4302 6.42847C9.44089 8.0338 5.83398 12.7156 5.83398 18.229C5.83399 25.0664 11.3924 30.6248 18.2298 30.6248C25.0672 30.6248 30.6256 25.0664 30.6256 18.229C30.6257 12.76 27.0761 8.1097 22.1491 6.46834L21.6905 7.84977C26.0337 9.29673 29.1673 13.3903 29.1673 18.229C29.1673 24.2785 24.2792 29.1694 18.2298 29.1694C12.1804 29.1694 7.29232 24.2785 7.29232 18.229C7.29232 13.351 10.4794 9.23061 14.8774 7.81559L14.4302 6.42847Z" fill="white"/>
</svg>
