<svg width="878" height="759" viewBox="0 0 878 759" fill="none" xmlns="http://www.w3.org/2000/svg">
<path fill-rule="evenodd" clip-rule="evenodd" d="M231.552 746.78C96.1138 685.768 1.8125 549.559 1.8125 391.5C1.8125 176.423 176.423 1.81317 391.5 1.81317C515.836 1.81317 626.649 60.1658 697.946 151.048C721.237 183.868 736.812 252.688 677.502 322.651C644.298 361.818 567.636 407.649 458.854 457.549C374.465 495.719 291.366 541.233 238.236 594.932C218.36 615.014 205.25 637.61 198.474 659.123C188.557 690.598 199.296 731.014 231.552 746.78Z" stroke="white" stroke-opacity="0.05" stroke-width="3" stroke-miterlimit="10"/>
<path fill-rule="evenodd" clip-rule="evenodd" d="M465.14 454.588L465.175 454.658C462.269 534.181 439.411 618.333 405.961 679.235C373.024 739.215 292.625 770.141 237.878 749.455L231.552 746.78C199.296 731.014 188.557 690.598 198.474 659.123C205.25 637.61 218.361 615.014 238.236 594.932C291.366 541.233 374.465 495.719 458.854 457.549L465.14 454.588Z" stroke="white" stroke-opacity="0.05" stroke-width="3" stroke-miterlimit="10"/>
<path fill-rule="evenodd" clip-rule="evenodd" d="M787.47 459.057C839.823 483.618 876.164 538.211 875.974 601.433C875.715 687.461 807.913 757.103 724.657 756.853C676.529 756.708 633.703 733.236 606.214 696.801C597.239 683.646 591.294 656.1 614.338 628.182C627.232 612.556 656.963 594.311 699.134 574.48C731.847 559.312 764.069 541.201 784.699 519.784C792.416 511.774 797.521 502.754 800.171 494.156C804.047 481.576 799.936 465.398 787.47 459.057Z" stroke="white" stroke-opacity="0.05" stroke-width="3" stroke-miterlimit="10"/>
<path fill-rule="evenodd" clip-rule="evenodd" d="M696.7 575.657L696.686 575.631C697.904 543.825 706.856 510.189 719.874 485.87C732.697 461.913 763.855 449.639 785.023 457.977L787.47 459.057C799.936 465.398 804.047 481.576 800.17 494.156C797.521 502.754 792.415 511.774 784.699 519.784C764.069 541.201 731.847 559.312 699.134 574.48L696.7 575.657Z" stroke="white" stroke-opacity="0.05" stroke-width="3" stroke-miterlimit="10"/>
</svg>
