<?xml version="1.0" encoding="UTF-8"?>
<svg width="1200pt" height="1200pt" version="1.1" viewBox="0 0 1200 1200" xmlns="http://www.w3.org/2000/svg">
 <g>
  <path d="m600 543.75c54.699 0 107.16-21.73 145.84-60.41 38.68-38.68 60.41-91.141 60.41-145.84s-21.73-107.16-60.41-145.84c-38.68-38.68-91.141-60.41-145.84-60.41s-107.16 21.73-145.84 60.41c-38.68 38.68-60.41 91.141-60.41 145.84s21.73 107.16 60.41 145.84c38.68 38.68 91.141 60.41 145.84 60.41zm0-375c44.754 0 87.676 17.777 119.32 49.426 31.648 31.648 49.426 74.57 49.426 119.32s-17.777 87.676-49.426 119.32c-31.648 31.648-74.57 49.426-119.32 49.426s-87.676-17.777-119.32-49.426c-31.648-31.648-49.426-74.57-49.426-119.32s17.777-87.676 49.426-119.32c31.648-31.648 74.57-49.426 119.32-49.426z"/>
  <path d="m637.5 562.5h-75c-114.38 0-224.07 45.434-304.94 126.31s-126.31 190.57-126.31 304.94c0 14.918 5.9258 29.227 16.477 39.773 10.547 10.551 24.855 16.477 39.773 16.477h825c14.918 0 29.227-5.9258 39.773-16.477 10.551-10.547 16.477-24.855 16.477-39.773 0-114.38-45.434-224.07-126.31-304.94s-190.57-126.31-304.94-126.31zm375 450h-825c-4.9727 0-9.7422-1.9766-13.258-5.4922-3.5156-3.5156-5.4922-8.2852-5.4922-13.258 0-104.43 41.484-204.58 115.33-278.42 73.84-73.844 173.99-115.33 278.42-115.33h75c104.43 0 204.58 41.484 278.42 115.33 73.844 73.84 115.33 173.99 115.33 278.42 0 4.9727-1.9766 9.7422-5.4922 13.258-3.5156 3.5156-8.2852 5.4922-13.258 5.4922z"/>
 </g>
</svg>
